# Blender v3.0.0 OBJ File: 'berrari_b40.blend'
# www.blender.org
mtllib b40glass.mtl
o glass_Plane.002
v 1.043727 1.521802 -2.992224
v 0.976073 1.521802 -2.950831
v 0.594557 1.521802 -2.789842
v 0.000000 1.521802 -2.725245
v 1.322616 1.521940 -3.236023
v 1.024363 2.049597 -4.254309
v 0.000000 2.039867 -4.113342
v 1.424947 1.565602 -4.507523
v 1.383110 1.590704 -5.427931
v 1.276194 1.625568 -6.574438
v 1.090439 2.074449 -5.599661
v 1.135845 1.991593 -4.375009
v 1.424947 1.536103 -3.530367
v 1.121082 2.090949 -5.137670
v 1.137355 2.060009 -4.575328
v 1.374735 1.593436 -5.517746
v 1.118621 2.087916 -5.222589
v 1.179269 1.859791 -6.065807
v 0.482836 2.044453 -4.179787
v 0.754974 2.047038 -4.217237
v 0.000000 1.884210 -3.603831
v 0.518531 1.889461 -3.679901
v 0.815179 1.892908 -3.758859
v 0.000000 1.684748 -3.107203
v 0.562873 1.689610 -3.177645
v 0.904907 1.676644 -3.258161
v 0.846742 2.047910 -4.229866
v 0.899291 1.893141 -3.788011
v 0.986196 1.673856 -3.289059
v 1.365741 1.628856 -3.685865
v 1.261536 1.630000 -3.444559
v 1.126622 1.868685 -3.865618
v 1.234966 1.835197 -4.038317
v 0.988232 1.709575 -7.523787
v 0.910037 2.050514 -6.493180
v 0.860477 2.117531 -6.376339
v 0.000000 2.138339 -6.183106
v 0.000000 1.718178 -7.942225
v 0.580441 1.709321 -7.861338
v 0.889060 2.078880 -6.443725
v 0.947430 1.887474 -6.986025
v 0.428838 2.128531 -6.274187
v 0.645753 2.123003 -6.325522
v 0.718899 2.121139 -6.342833
v 0.765138 1.901220 -7.054053
v 0.000000 1.950855 -7.139348
v 0.334416 1.936735 -7.125980
v 0.550870 1.919434 -7.107684
v 0.623861 1.913262 -7.096509
v 1.249235 1.841399 -5.371029
v -1.043727 1.521802 -2.992224
v -0.976073 1.521802 -2.950831
v -0.594557 1.521802 -2.789842
v -1.322616 1.521940 -3.236023
v -1.024363 2.049597 -4.254309
v -1.424947 1.565602 -4.507523
v -1.383110 1.590704 -5.427931
v -1.276194 1.625568 -6.574438
v -1.090439 2.074449 -5.599661
v -1.135845 1.991593 -4.375009
v -1.424947 1.536103 -3.530367
v -1.121082 2.090949 -5.137670
v -1.137355 2.060009 -4.575328
v -1.374735 1.593436 -5.517746
v -1.118621 2.087916 -5.222589
v -1.179269 1.859791 -6.065807
v -0.482836 2.044453 -4.179787
v -0.754974 2.047038 -4.217237
v -0.518531 1.889461 -3.679901
v -0.815179 1.892908 -3.758859
v -0.562873 1.689610 -3.177645
v -0.904907 1.676644 -3.258161
v -0.846742 2.047910 -4.229866
v -0.899291 1.893141 -3.788011
v -0.986196 1.673856 -3.289059
v -1.365741 1.628856 -3.685865
v -1.261536 1.630000 -3.444559
v -1.126622 1.868685 -3.865618
v -1.234966 1.835197 -4.038317
v -0.988232 1.709575 -7.523787
v -0.910037 2.050514 -6.493180
v -0.860477 2.117531 -6.376339
v -0.580441 1.709321 -7.861338
v -0.889060 2.078880 -6.443725
v -0.947430 1.887474 -6.986025
v -0.428838 2.128531 -6.274187
v -0.645753 2.123003 -6.325522
v -0.718899 2.121139 -6.342833
v -0.765138 1.901220 -7.054053
v -0.334416 1.936735 -7.125980
v -0.550870 1.919434 -7.107684
v -0.623861 1.913262 -7.096509
v -1.249235 1.841399 -5.371029
vt 0.000000 0.000000
vt 0.000000 0.000000
vt 0.000000 0.000000
vt 0.000000 0.000000
vt 0.000000 0.000000
vt 0.000000 0.000000
vt 0.000000 0.000000
vt 0.000000 0.000000
vt 0.000000 0.000000
vt 0.000000 0.000000
vt 0.000000 0.000000
vt 0.000000 0.000000
vt 0.000000 0.000000
vt 0.000000 0.000000
vt 0.000000 0.000000
vt 0.000000 0.000000
vt 0.000000 0.000000
vt 0.000000 0.000000
vt 0.000000 0.000000
vt 0.000000 0.000000
vt 0.000000 0.000000
vt 0.000000 0.000000
vt 0.000000 0.000000
vt 0.000000 0.000000
vt 0.000000 0.000000
vt 0.000000 0.000000
vt 0.000000 0.000000
vt 0.000000 0.000000
vt 0.000000 0.000000
vt 0.000000 0.000000
vt 0.000000 0.000000
vt 0.000000 0.000000
vt 0.000000 0.000000
vt 0.000000 0.000000
vt 0.000000 0.000000
vt 0.000000 0.000000
vt 0.000000 0.000000
vt 0.000000 0.000000
vt 0.000000 0.000000
vt 0.000000 0.000000
vt 0.000000 0.000000
vt 0.000000 0.000000
vt 0.000000 0.000000
vt 0.000000 0.000000
vt 0.000000 0.000000
vt 0.000000 0.000000
vt 0.000000 0.000000
vt 0.000000 0.000000
vt 0.000000 0.000000
vt 0.000000 0.000000
vt 0.000000 0.000000
vt 0.000000 0.000000
vt 0.000000 0.000000
vt 0.000000 0.000000
vt 0.000000 0.000000
vt 0.000000 0.000000
vt 0.000000 0.000000
vt 0.000000 0.000000
vt 0.000000 0.000000
vt 0.000000 0.000000
vt 0.000000 0.000000
vt 0.000000 0.000000
vt 0.000000 0.000000
vt 0.000000 0.000000
vt 0.000000 0.000000
vt 0.000000 0.000000
vt 0.000000 0.000000
vt 0.000000 0.000000
vt 0.000000 0.000000
vt 0.000000 0.000000
vt 0.000000 0.000000
vt 0.000000 0.000000
vt 0.000000 0.000000
vt 0.000000 0.000000
vt 0.000000 0.000000
vt 0.000000 0.000000
vt 0.000000 0.000000
vt 0.000000 0.000000
vt 0.000000 0.000000
vt 0.000000 0.000000
vt 0.000000 0.000000
vt 0.000000 0.000000
vt 0.000000 0.000000
vt 0.000000 0.000000
vt 0.000000 0.000000
vt 0.000000 0.000000
vt 0.000000 0.000000
vt 0.000000 0.000000
vt 0.000000 0.000000
vt 0.000000 0.000000
vt 0.000000 0.000000
vt 0.000000 0.000000
vt 0.000000 0.000000
vn 0.0424 0.9537 0.2976
vn 0.0591 0.9404 0.3347
vn 0.0952 0.9353 0.3407
vn 0.0605 0.9491 0.3090
vn 0.0000 0.9561 0.2931
vn 0.0000 0.9422 0.3350
vn 0.0855 0.9197 0.3832
vn 0.1555 0.9087 0.3874
vn 0.0000 0.9240 0.3824
vn 0.0000 0.9194 0.3933
vn 0.0898 0.9139 0.3958
vn 0.1767 0.8986 0.4016
vn 0.2472 0.8916 0.3794
vn 0.1630 0.9218 0.3517
vn 0.1051 0.9371 0.3327
vn 0.2584 0.8826 0.3927
vn 0.3338 0.8677 0.3683
vn 0.3108 0.8760 0.3688
vn 0.2164 0.9075 0.3600
vn 0.1399 0.9268 0.3485
vn 0.8574 0.5146 0.0104
vn 0.0205 0.9750 -0.2210
vn 0.0425 0.9679 -0.2478
vn 0.0000 0.9704 -0.2414
vn 0.0000 0.9786 -0.2058
vn 0.1086 0.9488 -0.2966
vn 0.1650 0.9437 -0.2867
vn 0.0864 0.9586 -0.2714
vn 0.0513 0.9597 -0.2763
vn 0.0371 0.9675 -0.2501
vn 0.0509 0.9637 -0.2622
vn 0.2540 0.9163 -0.3095
vn 0.2372 0.9249 -0.2972
vn 0.1105 0.9547 -0.2761
vn 0.2140 0.9358 -0.2802
vn 0.0000 0.9613 -0.2755
vn 0.8572 0.5094 -0.0761
vn 0.8607 0.5036 -0.0736
vn 0.8652 0.4964 -0.0703
vn 0.8668 0.4938 -0.0691
vn -0.0424 0.9537 0.2976
vn -0.0605 0.9491 0.3090
vn -0.0952 0.9353 0.3407
vn -0.0591 0.9404 0.3347
vn -0.1555 0.9087 0.3874
vn -0.0855 0.9197 0.3832
vn -0.0898 0.9139 0.3958
vn -0.1767 0.8986 0.4016
vn -0.1630 0.9218 0.3517
vn -0.2472 0.8916 0.3794
vn -0.1051 0.9371 0.3327
vn -0.2584 0.8826 0.3927
vn -0.3338 0.8677 0.3683
vn -0.3108 0.8760 0.3688
vn -0.2164 0.9075 0.3600
vn -0.1399 0.9268 0.3485
vn -0.8574 0.5146 0.0104
vn -0.0205 0.9750 -0.2210
vn -0.0425 0.9679 -0.2478
vn -0.1086 0.9488 -0.2966
vn -0.0513 0.9597 -0.2763
vn -0.0864 0.9586 -0.2714
vn -0.1650 0.9437 -0.2867
vn -0.0371 0.9675 -0.2501
vn -0.0509 0.9637 -0.2622
vn -0.2540 0.9163 -0.3095
vn -0.2372 0.9249 -0.2972
vn -0.1105 0.9547 -0.2761
vn -0.2140 0.9358 -0.2802
vn -0.8572 0.5094 -0.0761
vn -0.8652 0.4964 -0.0703
vn -0.8607 0.5036 -0.0736
vn -0.8668 0.4938 -0.0691
usemtl Material.003
s 1
f 19/1/1 22/2/2 23/3/3 20/4/4
f 7/5/5 21/6/6 22/2/2 19/1/1
f 22/2/2 25/7/7 26/8/8 23/3/3
f 21/6/6 24/9/9 25/7/7 22/2/2
f 4/10/10 3/11/11 25/7/7 24/9/9
f 3/11/11 2/12/12 26/8/8 25/7/7
f 26/8/8 29/13/13 28/14/14 23/3/3
f 27/15/15 20/4/4 23/3/3 28/14/14
f 2/12/12 1/16/16 29/13/13 26/8/8
f 5/17/17 31/18/18 29/13/13 1/16/16
f 28/14/14 29/13/13 31/18/18 32/19/19
f 32/19/19 6/20/20 27/15/15 28/14/14
f 30/21/21 13/22/21 8/23/21 9/24/21 14/25/21 15/26/21 12/27/21 33/28/21
f 42/29/22 47/30/23 46/31/24 37/32/25
f 36/33/26 45/34/27 49/35/28 44/36/29
f 43/37/30 48/38/31 47/30/23 42/29/22
f 44/36/29 49/35/28 48/38/31 43/37/30
f 40/39/32 35/40/32 41/41/33 45/34/27 36/33/26
f 39/42/34 45/34/27 41/41/33 34/43/35
f 45/34/27 39/42/34 49/35/28
f 38/44/36 46/31/24 47/30/23 48/38/31 49/35/28 39/42/34
f 17/45/37 50/46/38 18/47/39 11/48/37
f 16/49/40 10/50/40 18/47/39 50/46/38
f 67/51/41 68/52/42 70/53/43 69/54/44
f 7/5/5 67/51/41 69/54/44 21/6/6
f 69/54/44 70/53/43 72/55/45 71/56/46
f 21/6/6 69/54/44 71/56/46 24/9/9
f 4/10/10 24/9/9 71/56/46 53/57/47
f 53/57/47 71/56/46 72/55/45 52/58/48
f 72/55/45 70/53/43 74/59/49 75/60/50
f 73/61/51 74/59/49 70/53/43 68/52/42
f 52/58/48 72/55/45 75/60/50 51/62/52
f 54/63/53 51/62/52 75/60/50 77/64/54
f 74/59/49 78/65/55 77/64/54 75/60/50
f 78/65/55 74/59/49 73/61/51 55/66/56
f 76/67/57 79/68/57 60/69/57 63/70/57 62/71/57 57/72/57 56/73/57 61/74/57
f 86/75/58 37/32/25 46/31/24 90/76/59
f 82/77/60 88/78/61 92/79/62 89/80/63
f 87/81/64 86/75/58 90/76/59 91/82/65
f 88/78/61 87/81/64 91/82/65 92/79/62
f 84/83/66 82/77/60 89/80/63 85/84/67 81/85/66
f 83/86/68 80/87/69 85/84/67 89/80/63
f 89/80/63 92/79/62 83/86/68
f 38/44/36 83/86/68 92/79/62 91/82/65 90/76/59 46/31/24
f 65/88/70 59/89/70 66/90/71 93/91/72
f 64/92/73 93/91/72 66/90/71 58/93/73
