# Blender v3.0.0 OBJ File: 'berrari_b40.blend'
# www.blender.org
mtllib b40underbody.mtl
o underbody_Plane.005
v 1.903000 0.796497 -1.325751
v 1.902953 0.857012 -2.737593
v 1.913332 1.102224 -2.576828
v 1.925543 1.253831 -2.349933
v 1.928046 1.305236 -2.034438
v 1.927074 1.246870 -1.737722
v 1.914097 1.095263 -1.510826
v 1.904958 0.868368 -1.359219
v 1.903000 0.728361 -1.319157
v 1.859247 0.429269 -1.301574
v 1.859247 0.199807 -1.325312
v 1.845731 0.324487 -2.885682
v 1.845731 0.370553 -2.883484
v 1.845731 0.429269 -2.872494
v 1.889485 0.787110 -2.769191
v 1.845731 0.199807 -2.885682
v 1.971841 0.324487 -6.467459
v 1.972092 0.199807 -6.466579
v 1.972092 0.370553 -6.471856
v 1.972092 0.429269 -6.479768
v 1.972092 0.784912 -6.552270
v 1.972092 0.856141 -6.587779
v 1.967004 1.177040 -6.839223
v 1.971687 1.240337 -6.909335
v 1.971687 1.325914 -7.328639
v 1.945154 1.235244 -7.771744
v 1.940067 1.177165 -7.835484
v 1.919026 0.856141 -8.065853
v 1.915868 0.784912 -8.089624
v 1.870580 0.429269 -8.173210
v 1.870580 0.254558 -8.199797
v 1.859247 0.285281 -1.316470
v 1.348414 0.796497 -1.325751
v 1.348367 0.857012 -2.737593
v 1.358747 1.102224 -2.576828
v 1.370957 1.253831 -2.349933
v 1.373460 1.305236 -2.034438
v 1.372489 1.246870 -1.737722
v 1.359512 1.095263 -1.510826
v 1.350372 0.868368 -1.359219
v 1.348414 0.728361 -1.319157
v 1.304661 0.429269 -1.301574
v 1.304661 0.199807 -1.325312
v 1.291146 0.324487 -2.885682
v 1.291146 0.370553 -2.883484
v 1.291146 0.429269 -2.872494
v 1.334899 0.787110 -2.769191
v 1.291146 0.199807 -2.885682
v 1.304661 0.285281 -1.316470
v 1.348414 0.324486 -6.467460
v 1.348414 0.199807 -6.466581
v 1.348414 0.370553 -6.471856
v 1.348414 0.429269 -6.479769
v 1.348414 0.784912 -6.552272
v 1.348414 0.856141 -6.587780
v 1.348414 1.177040 -6.839224
v 1.348414 1.240337 -6.909337
v 1.348414 1.325914 -7.328640
v 1.348414 1.235244 -7.771745
v 1.348414 1.177165 -7.835485
v 1.348414 0.856141 -8.065854
v 1.348414 0.784912 -8.089624
v 1.348414 0.429269 -8.173213
v 1.348414 0.254558 -8.199799
v 1.872100 0.441203 -8.170405
v 1.348414 0.441203 -8.170408
v -1.903000 0.796497 -1.325751
v -1.902953 0.857012 -2.737593
v -1.913332 1.102224 -2.576828
v -1.925543 1.253831 -2.349933
v -1.928046 1.305236 -2.034438
v -1.927074 1.246870 -1.737722
v -1.914097 1.095263 -1.510826
v -1.904958 0.868368 -1.359219
v -1.903000 0.728361 -1.319157
v -1.859247 0.429269 -1.301574
v -1.859247 0.199807 -1.325312
v -1.845731 0.324487 -2.885682
v -1.845731 0.370553 -2.883484
v -1.845731 0.429269 -2.872494
v -1.889485 0.787110 -2.769191
v -1.845731 0.199807 -2.885682
v -1.971841 0.324487 -6.467459
v -1.972092 0.199807 -6.466579
v -1.972092 0.370553 -6.471856
v -1.972092 0.429269 -6.479768
v -1.972092 0.784912 -6.552270
v -1.972092 0.856141 -6.587779
v -1.967004 1.177040 -6.839223
v -1.971687 1.240337 -6.909335
v -1.971687 1.325914 -7.328639
v -1.945154 1.235244 -7.771744
v -1.940067 1.177165 -7.835484
v -1.919026 0.856141 -8.065853
v -1.915868 0.784912 -8.089624
v -1.870580 0.429269 -8.173210
v -1.870580 0.254558 -8.199797
v -1.859247 0.285281 -1.316470
v -1.348414 0.796497 -1.325751
v -1.348367 0.857012 -2.737593
v -1.358747 1.102224 -2.576828
v -1.370957 1.253831 -2.349933
v -1.373460 1.305236 -2.034438
v -1.372489 1.246870 -1.737722
v -1.359512 1.095263 -1.510826
v -1.350372 0.868368 -1.359219
v -1.348414 0.728361 -1.319157
v -1.304661 0.429269 -1.301574
v -1.304661 0.199807 -1.325312
v -1.291146 0.324487 -2.885682
v -1.291146 0.370553 -2.883484
v -1.291146 0.429269 -2.872494
v -1.334899 0.787110 -2.769191
v -1.291146 0.199807 -2.885682
v -1.304661 0.285281 -1.316470
v -1.348414 0.324486 -6.467460
v -1.348414 0.199807 -6.466581
v -1.348414 0.370553 -6.471856
v -1.348414 0.429269 -6.479769
v -1.348414 0.784912 -6.552272
v -1.348414 0.856141 -6.587780
v -1.348414 1.177040 -6.839224
v -1.348414 1.240337 -6.909337
v -1.348414 1.325914 -7.328640
v -1.348414 1.235244 -7.771745
v -1.348414 1.177165 -7.835485
v -1.348414 0.856141 -8.065854
v -1.348414 0.784912 -8.089624
v -1.348414 0.429269 -8.173213
v -1.348414 0.254558 -8.199799
v -1.872100 0.441203 -8.170405
v -1.348414 0.441203 -8.170408
vt 0.000000 0.000000
vt 0.000000 0.000000
vt 0.000000 0.000000
vt 0.000000 0.000000
vt 0.000000 0.000000
vt 0.000000 0.000000
vt 0.000000 0.000000
vt 0.000000 0.000000
vt 0.000000 0.000000
vt 0.000000 0.000000
vt 0.000000 0.000000
vt 0.000000 0.000000
vt 0.000000 0.000000
vt 0.000000 0.000000
vt 0.000000 0.000000
vt 0.000000 0.000000
vt 0.000000 0.000000
vt 0.000000 0.000000
vt 0.000000 0.000000
vt 0.000000 0.000000
vt 0.000000 0.000000
vt 0.000000 0.000000
vt 0.000000 0.000000
vt 0.000000 0.000000
vt 0.000000 0.000000
vt 0.000000 0.000000
vt 0.000000 0.000000
vt 0.000000 0.000000
vt 0.000000 0.000000
vt 0.000000 0.000000
vt 0.000000 0.000000
vt 0.000000 0.000000
vt 0.000000 0.000000
vt 0.000000 0.000000
vt 0.000000 0.000000
vt 0.000000 0.000000
vt 0.000000 0.000000
vt 0.000000 0.000000
vt 0.000000 0.000000
vt 0.000000 0.000000
vt 0.000000 0.000000
vt 0.000000 0.000000
vt 0.000000 0.000000
vt 0.000000 0.000000
vt 0.000000 0.000000
vt 0.000000 0.000000
vt 0.000000 0.000000
vt 0.000000 0.000000
vt 0.000000 0.000000
vt 0.000000 0.000000
vt 0.000000 0.000000
vt 0.000000 0.000000
vt 0.000000 0.000000
vt 0.000000 0.000000
vt 0.000000 0.000000
vt 0.000000 0.000000
vt 0.000000 0.000000
vt 0.000000 0.000000
vt 0.000000 0.000000
vt 0.000000 0.000000
vt 0.000000 0.000000
vt 0.000000 0.000000
vt 0.000000 0.000000
vt 0.000000 0.000000
vt 0.000000 0.000000
vt 0.000000 0.000000
vt 0.000000 0.000000
vt 0.000000 0.000000
vt 0.000000 0.000000
vt 0.000000 0.000000
vt 0.000000 0.000000
vt 0.000000 0.000000
vt 0.000000 0.000000
vt 0.000000 0.000000
vt 0.000000 0.000000
vt 0.000000 0.000000
vt 0.000000 0.000000
vt 0.000000 0.000000
vt 0.000000 0.000000
vt 0.000000 0.000000
vt 0.000000 0.000000
vt 0.000000 0.000000
vt 0.000000 0.000000
vt 0.000000 0.000000
vt 0.000000 0.000000
vt 0.000000 0.000000
vt 0.000000 0.000000
vt 0.000000 0.000000
vt 0.000000 0.000000
vt 0.000000 0.000000
vt 0.000000 0.000000
vt 0.000000 0.000000
vt 0.000000 0.000000
vt 0.000000 0.000000
vt 0.000000 0.000000
vt 0.000000 0.000000
vt 0.000000 0.000000
vt 0.000000 0.000000
vt 0.000000 0.000000
vt 0.000000 0.000000
vt 0.000000 0.000000
vt 0.000000 0.000000
vt 0.000000 0.000000
vt 0.000000 0.000000
vt 0.000000 0.000000
vt 0.000000 0.000000
vt 0.000000 0.000000
vt 0.000000 0.000000
vt 0.000000 0.000000
vt 0.000000 0.000000
vt 0.000000 0.000000
vt 0.000000 0.000000
vt 0.000000 0.000000
vt 0.000000 0.000000
vt 0.000000 0.000000
vt 0.000000 0.000000
vt 0.000000 0.000000
vt 0.000000 0.000000
vt 0.000000 0.000000
vt 0.000000 0.000000
vt 0.000000 0.000000
vt 0.000000 0.000000
vt 0.000000 0.000000
vt 0.000000 0.000000
vt 0.000000 0.000000
vt 0.000000 0.000000
vt 0.000000 0.000000
vt 0.000000 0.000000
vt 0.000000 0.000000
vt 0.000000 0.000000
vt 0.000000 0.000000
vt 0.000000 0.000000
vn 0.0000 -0.0238 0.9997
vn 0.0000 -0.1161 0.9932
vn 0.6900 -0.1313 0.7118
vn 0.7020 -0.0654 0.7091
vn 0.0000 -0.9317 0.3631
vn 0.0000 -0.9998 -0.0166
vn 0.6447 -0.7642 -0.0162
vn 0.6372 -0.7234 0.2659
vn 0.0000 -0.2326 0.9726
vn 0.0000 -0.3516 0.9361
vn 0.6894 -0.2888 0.6643
vn 0.6987 -0.2103 0.6837
vn 0.0000 0.0000 1.0000
vn 0.7079 -0.0488 0.7046
vn 0.0000 -0.7107 -0.7035
vn 0.6488 -0.5552 -0.5204
vn 0.6378 -0.7157 -0.2845
vn 0.0000 -0.9255 -0.3786
vn 0.0000 0.1029 -0.9947
vn 0.7054 0.0241 -0.7084
vn 0.6961 -0.0294 -0.7173
vn 0.0000 0.0186 -0.9998
vn 0.0000 -0.4863 0.8738
vn 0.0000 -0.7077 0.7065
vn 0.6506 -0.5564 0.5168
vn 0.6576 -0.3959 0.6409
vn 0.7274 0.0203 -0.6859
vn 0.0000 -0.4915 -0.8708
vn 0.6763 -0.3931 -0.6229
vn 0.0000 -0.2643 -0.9644
vn 0.6640 -0.2368 -0.7093
vn 0.6675 -0.1024 -0.7375
vn 0.0000 -0.0784 -0.9969
vn 0.0000 -0.5338 -0.8456
vn 0.0000 -0.3257 -0.9455
vn 0.6789 -0.2391 -0.6941
vn 0.6851 -0.3891 -0.6158
vn 0.0000 -1.0000 -0.0036
vn 0.0000 -0.8945 -0.4470
vn 0.6523 -0.6764 -0.3418
vn 0.6647 -0.7471 0.0002
vn 0.6520 -0.6759 0.3436
vn 0.0000 -0.8960 0.4440
vn 0.0000 -0.6675 0.7446
vn 0.6843 -0.4847 0.5447
vn 0.6749 -0.3356 0.6571
vn 0.0000 -0.4590 0.8884
vn 0.0000 -0.6828 -0.7306
vn 0.6883 -0.4948 -0.5305
vn 0.0000 -0.1912 0.9815
vn 0.6982 -0.1358 0.7028
vn 0.6786 -0.1105 0.7261
vn 0.0000 -0.1504 0.9886
vn 0.0000 -0.1667 -0.9860
vn 0.6996 -0.1191 -0.7045
vn 0.6970 -0.1957 0.6898
vn 0.0000 -0.2753 0.9613
vn 0.0000 -0.0511 -0.9987
vn 0.0000 -0.0070 -1.0000
vn 0.6982 -0.0050 -0.7158
vn 0.6973 -0.0366 -0.7158
vn 0.0000 -0.1143 -0.9934
vn 0.7027 -0.0813 -0.7067
vn 0.0000 -0.2288 0.9734
vn 0.7071 -0.1618 0.6884
vn -0.7020 -0.0654 0.7091
vn -0.6900 -0.1313 0.7118
vn -0.6372 -0.7234 0.2659
vn -0.6447 -0.7642 -0.0162
vn -0.6987 -0.2103 0.6837
vn -0.6894 -0.2888 0.6643
vn -0.7079 -0.0488 0.7046
vn -0.6378 -0.7157 -0.2845
vn -0.6488 -0.5552 -0.5204
vn -0.6961 -0.0294 -0.7173
vn -0.7054 0.0241 -0.7084
vn -0.6576 -0.3959 0.6409
vn -0.6506 -0.5564 0.5168
vn -0.7274 0.0203 -0.6859
vn -0.6763 -0.3931 -0.6229
vn -0.6640 -0.2368 -0.7093
vn -0.6675 -0.1024 -0.7375
vn -0.6851 -0.3891 -0.6158
vn -0.6789 -0.2391 -0.6941
vn -0.6647 -0.7471 0.0002
vn -0.6523 -0.6764 -0.3418
vn -0.6520 -0.6759 0.3436
vn -0.6749 -0.3356 0.6571
vn -0.6843 -0.4847 0.5447
vn -0.6883 -0.4948 -0.5305
vn -0.6786 -0.1105 0.7261
vn -0.6982 -0.1358 0.7028
vn -0.6996 -0.1191 -0.7045
vn -0.6970 -0.1957 0.6898
vn -0.6973 -0.0366 -0.7158
vn -0.6982 -0.0050 -0.7158
vn -0.7027 -0.0813 -0.7067
vn -0.7071 -0.1618 0.6884
usemtl Material.004
s 1
f 12/1/1 13/2/2 45/3/3 44/4/4
f 4/5/5 5/6/6 37/7/7 36/8/8
f 14/9/9 15/10/10 47/11/11 46/12/12
f 16/13/13 12/1/1 44/4/4 48/14/14
f 7/15/15 39/16/16 38/17/17 6/18/18
f 32/19/19 49/20/20 42/21/21 10/22/22
f 2/23/23 3/24/24 35/25/25 34/26/26
f 15/10/10 2/23/23 34/26/26 47/11/11
f 13/2/2 14/9/9 46/12/12 45/3/3
f 11/27/19 43/28/27 49/20/20 32/19/19
f 5/6/6 6/18/18 38/17/17 37/7/7
f 8/29/28 40/30/29 39/16/16 7/15/15
f 1/31/30 33/32/31 40/30/29 8/29/28
f 3/24/24 4/5/5 36/8/8 35/25/25
f 10/22/22 42/21/21 41/33/32 9/34/33
f 9/34/33 41/33/32 33/32/31 1/31/30
f 38/17/17 39/16/16 40/30/29 33/32/31 41/33/32 42/21/21 49/20/20 43/28/27 48/14/14 44/4/4 45/3/3 46/12/12 47/11/11 34/26/26 35/25/25 36/8/8 37/7/7
f 22/35/34 21/36/35 54/37/36 55/38/37
f 25/39/38 24/40/39 57/41/40 58/42/41
f 25/39/38 58/42/41 59/43/42 26/44/43
f 27/45/44 60/46/45 61/47/46 28/48/47
f 24/40/39 23/49/48 56/50/49 57/41/40
f 30/51/50 63/52/51 64/53/52 31/54/53
f 23/49/48 22/35/34 55/38/37 56/50/49
f 21/36/35 20/55/54 53/56/55 54/37/36
f 28/48/47 61/47/46 62/57/56 29/58/57
f 17/59/58 18/60/59 51/61/60 50/62/61
f 20/55/54 19/63/62 52/64/63 53/56/55
f 65/65/64 66/66/65 63/52/51 30/51/50
f 19/63/62 17/59/58 50/62/61 52/64/63
f 26/44/43 59/43/42 60/46/45 27/45/44
f 58/42/41 57/41/40 56/50/49 55/38/37 54/37/36 53/56/55 52/64/63 50/62/61 51/61/60 64/53/52 63/52/51 66/66/65 62/57/56 61/47/46 60/46/45 59/43/42
f 29/58/57 62/57/56 66/66/65 65/65/64
f 78/67/1 110/68/66 111/69/67 79/70/2
f 70/71/5 102/72/68 103/73/69 71/74/6
f 80/75/9 112/76/70 113/77/71 81/78/10
f 82/79/13 114/80/72 110/68/66 78/67/1
f 73/81/15 72/82/18 104/83/73 105/84/74
f 98/85/19 76/86/22 108/87/75 115/88/76
f 68/89/23 100/90/77 101/91/78 69/92/24
f 81/78/10 113/77/71 100/90/77 68/89/23
f 79/70/2 111/69/67 112/76/70 80/75/9
f 77/93/19 98/85/19 115/88/76 109/94/79
f 71/74/6 103/73/69 104/83/73 72/82/18
f 74/95/28 73/81/15 105/84/74 106/96/80
f 67/97/30 74/95/28 106/96/80 99/98/81
f 69/92/24 101/91/78 102/72/68 70/71/5
f 76/86/22 75/99/33 107/100/82 108/87/75
f 75/99/33 67/97/30 99/98/81 107/100/82
f 104/83/73 103/73/69 102/72/68 101/91/78 100/90/77 113/77/71 112/76/70 111/69/67 110/68/66 114/80/72 109/94/79 115/88/76 108/87/75 107/100/82 99/98/81 106/96/80 105/84/74
f 88/101/34 121/102/83 120/103/84 87/104/35
f 91/105/38 124/106/85 123/107/86 90/108/39
f 91/105/38 92/109/43 125/110/87 124/106/85
f 93/111/44 94/112/47 127/113/88 126/114/89
f 90/108/39 123/107/86 122/115/90 89/116/48
f 96/117/50 97/118/53 130/119/91 129/120/92
f 89/116/48 122/115/90 121/102/83 88/101/34
f 87/104/35 120/103/84 119/121/93 86/122/54
f 94/112/47 95/123/57 128/124/94 127/113/88
f 83/125/58 116/126/95 117/127/96 84/128/59
f 86/122/54 119/121/93 118/129/97 85/130/62
f 131/131/64 96/117/50 129/120/92 132/132/98
f 85/130/62 118/129/97 116/126/95 83/125/58
f 92/109/43 93/111/44 126/114/89 125/110/87
f 124/106/85 125/110/87 126/114/89 127/113/88 128/124/94 132/132/98 129/120/92 130/119/91 117/127/96 116/126/95 118/129/97 119/121/93 120/103/84 121/102/83 122/115/90 123/107/86
f 95/123/57 131/131/64 132/132/98 128/124/94
