# Blender v3.0.0 OBJ File: 'berrari_b40.blend'
# www.blender.org
mtllib tireoriginreal.mtl
o front_left_tire_Circle.014
v -0.254169 -0.188136 0.475160
v -0.254169 -0.300393 0.413445
v -0.235474 -0.216015 0.545574
v -0.254169 -0.064058 0.507020
v -0.235474 -0.073550 0.582155
v -0.254169 0.064045 0.507022
v -0.254169 0.188124 0.475165
v -0.235474 0.073536 0.582156
v -0.235474 0.216002 0.545579
v -0.204558 0.081012 0.641340
v -0.204558 0.237962 0.601045
v -0.204558 -0.081028 0.641338
v -0.204558 -0.237976 0.601039
v -0.204558 -0.379972 0.522974
v -0.204558 -0.498093 0.412048
v -0.235474 -0.344908 0.474713
v -0.235474 -0.452128 0.374024
v -0.235474 -0.530939 0.249833
v -0.254169 -0.393775 0.325751
v -0.254169 -0.462415 0.217589
v -0.254169 -0.501999 0.095755
v -0.235474 -0.576390 0.109945
v -0.254169 -0.510041 -0.032095
v -0.254170 -0.486036 -0.157929
v -0.235474 -0.585624 -0.036851
v -0.204559 -0.645160 -0.040598
v -0.235474 -0.558061 -0.181332
v -0.235474 -0.495432 -0.314420
v -0.204559 -0.614795 -0.199767
v -0.204559 -0.545800 -0.346384
v -0.204559 -0.442510 -0.471237
v -0.235475 -0.401674 -0.427750
v -0.204559 -0.311416 -0.566480
v -0.204559 -0.160754 -0.626129
v -0.235475 -0.282678 -0.514204
v -0.254170 -0.246195 -0.447840
v -0.235475 -0.145920 -0.568349
v -0.235475 0.000008 -0.586782
v -0.254170 -0.127087 -0.494996
v -0.254170 0.000006 -0.511050
v -0.254170 0.127099 -0.494993
v -0.235475 0.145934 -0.568345
v -0.254170 0.246206 -0.447833
v -0.254170 0.349843 -0.372535
v -0.235475 0.282691 -0.514197
v -0.204559 0.311430 -0.566472
v -0.235475 0.401685 -0.427740
v -0.235475 0.495441 -0.314407
v -0.204559 0.442522 -0.471226
v -0.204559 0.545809 -0.346371
v -0.204559 0.614800 -0.199752
v -0.204559 0.645161 -0.040582
v -0.235474 0.558065 -0.181318
v -0.235474 0.585625 -0.036837
v -0.254170 0.486040 -0.157917
v -0.254170 0.431498 -0.273829
v -0.254170 0.510042 -0.032082
v -0.254169 0.501997 0.095768
v -0.254169 0.462409 0.217600
v -0.235474 0.576387 0.109960
v -0.204559 0.634985 0.121138
v -0.235474 0.530933 0.249847
v -0.235474 0.452119 0.374035
v -0.204558 0.584910 0.275247
v -0.204558 0.498083 0.412061
v -0.204558 0.379959 0.522983
v -0.235474 0.344896 0.474721
v -0.254169 0.300383 0.413452
v -0.254169 0.393767 0.325761
v -0.204559 0.160770 -0.626125
v -0.204559 0.000008 -0.646436
v -0.254170 -0.349833 -0.372544
v -0.254170 -0.431490 -0.273840
v -0.204558 -0.634987 0.121123
v -0.204558 -0.584916 0.275232
v 0.254164 -0.127093 -0.494994
v 0.254165 -0.431494 -0.273834
v 0.254164 0.000000 -0.511050
v 0.204554 -0.311423 -0.566476
v 0.204554 -0.545804 -0.346377
v 0.204554 0.000000 -0.646436
v 0.254165 -0.510041 -0.032089
v 0.254165 -0.462412 0.217595
v 0.254165 -0.393771 0.325756
v 0.235470 -0.585624 -0.036844
v 0.235470 -0.530936 0.249840
v 0.235470 -0.452123 0.374029
v 0.204554 -0.584913 0.275239
v 0.204554 -0.614797 -0.199760
v 0.254165 -0.188130 0.475162
v 0.235469 -0.073543 0.582155
v 0.235469 0.073544 0.582155
v 0.235469 0.216009 0.545576
v 0.204554 -0.081020 0.641339
v 0.204554 0.081020 0.641339
v 0.204554 -0.379965 0.522978
v 0.254164 0.393771 0.325756
v 0.254164 0.462412 0.217595
v 0.254164 0.300388 0.413448
v 0.235469 0.452123 0.374029
v 0.235469 0.530936 0.249840
v 0.235469 0.585624 -0.036844
v 0.204554 0.498088 0.412054
v 0.204554 0.634986 0.121130
v 0.204554 0.645161 -0.040590
v 0.204554 0.379966 0.522978
v 0.254164 0.349838 -0.372539
v 0.254164 0.486038 -0.157923
v 0.235469 0.282684 -0.514201
v 0.204554 0.614797 -0.199760
v 0.254164 0.127093 -0.494994
v 0.254164 0.246201 -0.447836
v 0.254164 0.431494 -0.273834
v 0.235469 0.145927 -0.568347
v 0.235469 0.401680 -0.427745
v 0.235469 0.495437 -0.314413
v 0.235469 0.000000 -0.586782
v 0.204554 0.160762 -0.626127
v 0.204554 0.311423 -0.566476
v 0.204554 0.442516 -0.471231
v 0.204554 0.545804 -0.346377
v 0.254164 0.510042 -0.032089
v 0.254164 0.501998 0.095761
v 0.235469 0.576389 0.109952
v 0.235469 0.558063 -0.181325
v 0.204554 0.584913 0.275239
v 0.254165 0.188130 0.475162
v 0.254165 0.064052 0.507020
v 0.254165 -0.064051 0.507020
v 0.235470 -0.216009 0.545576
v 0.235469 0.344902 0.474717
v 0.204554 0.237969 0.601041
v 0.204554 -0.237969 0.601041
v 0.254165 -0.501998 0.095761
v 0.254165 -0.300388 0.413448
v 0.235470 -0.576388 0.109952
v 0.235470 -0.344902 0.474717
v 0.204554 -0.498087 0.412054
v 0.204554 -0.634986 0.121130
v 0.204554 -0.645160 -0.040590
v 0.254165 -0.349838 -0.372539
v 0.254164 -0.246200 -0.447836
v 0.254165 -0.486037 -0.157923
v 0.235469 -0.495436 -0.314413
v 0.235469 -0.401680 -0.427746
v 0.235469 -0.282684 -0.514201
v 0.235469 -0.145926 -0.568347
v 0.235469 -0.558062 -0.181326
v 0.204554 -0.442516 -0.471232
v 0.204554 -0.160762 -0.626127
v 0.204557 -0.160762 -0.626127
v 0.204558 -0.311423 -0.566476
v 0.204557 0.000000 -0.646436
v -0.204547 -0.160762 -0.626127
v -0.204547 -0.311423 -0.566476
v -0.204547 0.000000 -0.646436
v -0.204547 0.160762 -0.626127
v -0.204547 0.311423 -0.566476
v 0.204557 0.160762 -0.626127
v 0.204557 0.311423 -0.566476
v 0.204557 0.442516 -0.471231
v 0.204557 0.545804 -0.346377
v -0.204547 0.442516 -0.471231
v -0.204547 0.545804 -0.346377
v -0.204547 0.614797 -0.199759
v -0.204547 0.645160 -0.040590
v 0.204557 0.614797 -0.199759
v 0.204557 0.645160 -0.040590
v 0.204557 0.634986 0.121130
v 0.204557 0.584913 0.275240
v -0.204547 0.634986 0.121131
v -0.204547 0.584913 0.275240
v -0.204547 0.498087 0.412054
v 0.204557 0.498088 0.412054
v -0.204547 0.379966 0.522978
v 0.204558 0.379966 0.522978
v -0.204547 0.237969 0.601041
v -0.204547 0.081020 0.641339
v 0.204558 0.237969 0.601041
v 0.204558 0.081020 0.641339
v 0.204558 -0.081020 0.641339
v 0.204558 -0.237969 0.601041
v -0.204547 -0.081020 0.641339
v -0.204547 -0.237969 0.601041
v -0.204547 -0.379965 0.522978
v 0.204558 -0.379965 0.522978
v -0.204547 -0.498087 0.412054
v -0.204547 -0.584913 0.275240
v 0.204558 -0.498087 0.412054
v 0.204558 -0.584913 0.275240
v 0.204558 -0.634986 0.121130
v -0.204547 -0.634986 0.121130
v 0.204558 -0.645160 -0.040590
v 0.204558 -0.614797 -0.199759
v -0.204547 -0.645160 -0.040590
v -0.204547 -0.614797 -0.199759
v -0.204547 -0.545804 -0.346377
v -0.204547 -0.442516 -0.471231
v 0.204558 -0.545804 -0.346377
v 0.204558 -0.442516 -0.471231
vt 0.000000 0.000000
vt 0.000000 0.000000
vt 0.000000 0.000000
vt 0.000000 0.000000
vt 0.000000 0.000000
vt 0.000000 0.000000
vt 0.000000 0.000000
vt 0.000000 0.000000
vt 0.000000 0.000000
vt 0.000000 0.000000
vt 0.000000 0.000000
vt 0.000000 0.000000
vt 0.000000 0.000000
vt 0.000000 0.000000
vt 0.000000 0.000000
vt 0.000000 0.000000
vt 0.000000 0.000000
vt 0.000000 0.000000
vt 0.000000 0.000000
vt 0.000000 0.000000
vt 0.000000 0.000000
vt 0.000000 0.000000
vt 0.000000 0.000000
vt 0.000000 0.000000
vt 0.000000 0.000000
vt 0.000000 0.000000
vt 0.000000 0.000000
vt 0.000000 0.000000
vt 0.000000 0.000000
vt 0.000000 0.000000
vt 0.000000 0.000000
vt 0.000000 0.000000
vt 0.000000 0.000000
vt 0.000000 0.000000
vt 0.000000 0.000000
vt 0.000000 0.000000
vt 0.000000 0.000000
vt 0.000000 0.000000
vt 0.000000 0.000000
vt 0.000000 0.000000
vt 0.000000 0.000000
vt 0.000000 0.000000
vt 0.000000 0.000000
vt 0.000000 0.000000
vt 0.000000 0.000000
vt 0.000000 0.000000
vt 0.000000 0.000000
vt 0.000000 0.000000
vt 0.000000 0.000000
vt 0.000000 0.000000
vt 0.000000 0.000000
vt 0.000000 0.000000
vt 0.000000 0.000000
vt 0.000000 0.000000
vt 0.000000 0.000000
vt 0.000000 0.000000
vt 0.000000 0.000000
vt 0.000000 0.000000
vt 0.000000 0.000000
vt 0.000000 0.000000
vt 0.000000 0.000000
vt 0.000000 0.000000
vt 0.000000 0.000000
vt 0.000000 0.000000
vt 0.000000 0.000000
vt 0.000000 0.000000
vt 0.000000 0.000000
vt 0.000000 0.000000
vt 0.000000 0.000000
vt 0.000000 0.000000
vt 0.000000 0.000000
vt 0.000000 0.000000
vt 0.000000 0.000000
vt 0.000000 0.000000
vt 0.000000 0.000000
vt 0.000000 0.000000
vt 0.000000 0.000000
vt 0.000000 0.000000
vt 0.000000 0.000000
vt 0.000000 0.000000
vt 0.000000 0.000000
vt 0.000000 0.000000
vt 0.000000 0.000000
vt 0.000000 0.000000
vt 0.000000 0.000000
vt 0.000000 0.000000
vt 0.000000 0.000000
vt 0.000000 0.000000
vt 0.000000 0.000000
vt 0.000000 0.000000
vt 0.000000 0.000000
vt 0.000000 0.000000
vt 0.000000 0.000000
vt 0.000000 0.000000
vt 0.000000 0.000000
vt 0.000000 0.000000
vt 0.000000 0.000000
vt 0.000000 0.000000
vt 0.000000 0.000000
vt 0.000000 0.000000
vt 0.000000 0.000000
vt 0.000000 0.000000
vt 0.000000 0.000000
vt 0.000000 0.000000
vt 0.000000 0.000000
vt 0.000000 0.000000
vt 0.000000 0.000000
vt 0.000000 0.000000
vt 0.000000 0.000000
vt 0.000000 0.000000
vt 0.000000 0.000000
vt 0.000000 0.000000
vt 0.000000 0.000000
vt 0.000000 0.000000
vt 0.000000 0.000000
vt 0.000000 0.000000
vt 0.000000 0.000000
vt 0.000000 0.000000
vt 0.000000 0.000000
vt 0.000000 0.000000
vt 0.000000 0.000000
vt 0.000000 0.000000
vt 0.000000 0.000000
vt 0.000000 0.000000
vt 0.000000 0.000000
vt 0.000000 0.000000
vt 0.000000 0.000000
vt 0.000000 0.000000
vt 0.000000 0.000000
vt 0.000000 0.000000
vt 0.000000 0.000000
vt 0.000000 0.000000
vt 0.000000 0.000000
vt 0.000000 0.000000
vt 0.000000 0.000000
vt 0.000000 0.000000
vt 0.000000 0.000000
vt 0.000000 0.000000
vt 0.000000 0.000000
vt 0.000000 0.000000
vt 0.000000 0.000000
vt 0.000000 0.000000
vt 0.000000 0.000000
vt 0.000000 0.000000
vt 0.000000 0.000000
vt 0.000000 0.000000
vt 0.000000 0.000000
vt 0.000000 0.000000
vt 0.000000 0.000000
vt 0.000000 0.000000
vt 0.000000 0.000000
vt 0.000000 0.000000
vt 0.000000 0.000000
vt 0.000000 0.000000
vt 0.000000 0.000000
vt 0.000000 0.000000
vt 0.000000 0.000000
vt 0.000000 0.000000
vt 0.000000 0.000000
vt 0.000000 0.000000
vt 0.000000 0.000000
vt 0.000000 0.000000
vt 0.000000 0.000000
vt 0.000000 0.000000
vt 0.000000 0.000000
vt 0.000000 0.000000
vt 0.000000 0.000000
vt 0.000000 0.000000
vt 0.000000 0.000000
vt 0.000000 0.000000
vt 0.000000 0.000000
vt 0.000000 0.000000
vt 0.000000 0.000000
vt 0.000000 0.000000
vt 0.000000 0.000000
vt 0.000000 0.000000
vt 0.000000 0.000000
vt 0.000000 0.000000
vt 0.000000 0.000000
vt 0.000000 0.000000
vt 0.000000 0.000000
vt 0.000000 0.000000
vt 0.000000 0.000000
vt 0.000000 0.000000
vt 0.000000 0.000000
vt 0.000000 0.000000
vt 0.000000 0.000000
vt 0.000000 0.000000
vt 0.000000 0.000000
vt 0.000000 0.000000
vt 0.000000 0.000000
vt 0.000000 0.000000
vt 0.000000 0.000000
vt 0.000000 0.000000
vt 0.000000 0.000000
vt 0.000000 0.000000
vt 0.000000 0.000000
vt 0.000000 0.000000
vt 0.000000 0.000000
vt 0.000000 0.000000
vn -0.9709 -0.1409 0.1939
vn -0.9327 -0.2119 0.2917
vn -0.9327 -0.1327 0.3352
vn -0.9709 -0.0882 0.2228
vn -0.9327 -0.0452 0.3577
vn -0.9709 -0.0300 0.2378
vn -0.9327 0.0452 0.3577
vn -0.9709 0.0300 0.2378
vn -0.9709 0.0882 0.2228
vn -0.9327 0.1327 0.3352
vn -0.8879 0.0577 0.4565
vn -0.8879 0.1694 0.4278
vn -0.8879 -0.0577 0.4565
vn -0.8879 -0.1694 0.4278
vn -0.8879 -0.2705 0.3722
vn -0.9327 -0.2778 0.2298
vn -0.8879 -0.3545 0.2933
vn -0.9709 -0.1847 0.1528
vn -0.9327 -0.3262 0.1535
vn -0.8879 -0.4163 0.1959
vn -0.9709 -0.2169 0.1020
vn -0.9709 -0.2354 0.0449
vn -0.9327 -0.3542 0.0676
vn -0.9327 -0.3598 -0.0226
vn -0.9709 -0.2392 -0.0151
vn -0.9709 -0.2279 -0.0741
vn -0.9327 -0.3429 -0.1114
vn -0.8879 -0.4592 -0.0289
vn -0.8879 -0.4520 0.0862
vn -0.8879 -0.4376 -0.1422
vn -0.9327 -0.3044 -0.1932
vn -0.8879 -0.3885 -0.2466
vn -0.9709 -0.2024 -0.1284
vn -0.9327 -0.2468 -0.2628
vn -0.8879 -0.3150 -0.3354
vn -0.9327 -0.1737 -0.3159
vn -0.8879 -0.2217 -0.4032
vn -0.9327 -0.0897 -0.3492
vn -0.8879 -0.1144 -0.4457
vn -0.9709 -0.1641 -0.1747
vn -0.9709 -0.1155 -0.2100
vn -0.9709 -0.0596 -0.2321
vn -0.9327 0.0000 -0.3605
vn -0.8879 0.0000 -0.4601
vn -0.9709 0.0000 -0.2397
vn -0.9709 0.0596 -0.2321
vn -0.9327 0.0897 -0.3492
vn -0.9709 0.1155 -0.2100
vn -0.9327 0.1737 -0.3159
vn -0.9709 0.1641 -0.1747
vn -0.9327 0.2468 -0.2628
vn -0.8879 0.2217 -0.4032
vn -0.8879 0.1144 -0.4457
vn -0.8879 0.3150 -0.3354
vn -0.9327 0.3044 -0.1932
vn -0.8879 0.3885 -0.2465
vn -0.9709 0.2024 -0.1284
vn -0.9327 0.3429 -0.1114
vn -0.8879 0.4376 -0.1422
vn -0.9327 0.3598 -0.0226
vn -0.8879 0.4592 -0.0289
vn -0.9709 0.2392 -0.0150
vn -0.9709 0.2279 -0.0741
vn -0.9709 0.2354 0.0449
vn -0.9327 0.3542 0.0676
vn -0.9709 0.2169 0.1020
vn -0.9327 0.3262 0.1535
vn -0.8879 0.4163 0.1959
vn -0.8879 0.4520 0.0862
vn -0.9327 0.2778 0.2298
vn -0.8879 0.3545 0.2933
vn -0.9709 0.1847 0.1528
vn -0.9327 0.2119 0.2917
vn -0.8879 0.2705 0.3723
vn -0.9709 0.1409 0.1939
vn 0.9706 -0.1908 -0.1465
vn 0.9323 -0.2870 -0.2203
vn 0.9327 -0.2468 -0.2628
vn 0.9709 -0.1641 -0.1747
vn 0.9709 -0.1155 -0.2100
vn 0.9327 -0.1737 -0.3159
vn 0.9327 -0.0897 -0.3492
vn 0.9709 -0.0596 -0.2321
vn 0.9234 -0.0391 -0.3819
vn 0.9647 -0.0187 -0.2626
vn 0.8879 -0.3150 -0.3354
vn 0.8879 -0.2217 -0.4032
vn 0.8871 -0.3662 -0.2810
vn 0.8879 -0.1144 -0.4457
vn 0.8772 -0.0545 -0.4771
vn 0.9706 -0.1983 0.1362
vn 0.9323 -0.2982 0.2049
vn 0.9327 -0.3262 0.1535
vn 0.9709 -0.2169 0.1020
vn 0.9327 -0.3542 0.0676
vn 0.9709 -0.2354 0.0449
vn 0.9327 -0.3598 -0.0226
vn 0.9709 -0.2392 -0.0150
vn 0.9181 -0.3683 -0.1463
vn 0.9632 -0.2541 -0.0872
vn 0.8879 -0.4163 0.1959
vn 0.8879 -0.4520 0.0862
vn 0.8871 -0.3804 0.2614
vn 0.8879 -0.4592 -0.0289
vn 0.8619 -0.4747 -0.1785
vn 0.9706 0.0683 0.2307
vn 0.9323 0.1027 0.3469
vn 0.9327 0.0452 0.3577
vn 0.9709 0.0300 0.2378
vn 0.9327 -0.0452 0.3577
vn 0.9709 -0.0300 0.2378
vn 0.9327 -0.1327 0.3352
vn 0.9709 -0.0882 0.2228
vn 0.9220 -0.1970 0.3333
vn 0.9637 -0.1662 0.2088
vn 0.8879 0.0577 0.4565
vn 0.8879 -0.0577 0.4565
vn 0.8871 0.1311 0.4426
vn 0.8879 -0.1694 0.4278
vn 0.9091 -0.2689 0.3182
vn 0.9706 0.2405 0.0063
vn 0.9323 0.3617 0.0095
vn 0.9327 0.3542 0.0676
vn 0.9709 0.2354 0.0449
vn 0.9327 0.3262 0.1535
vn 0.9709 0.2169 0.1020
vn 0.9327 0.2778 0.2298
vn 0.9709 0.1847 0.1528
vn 0.9312 0.2494 0.2659
vn 0.9769 0.1146 0.1801
vn 0.8879 0.4520 0.0862
vn 0.8879 0.4163 0.1959
vn 0.8871 0.4614 0.0121
vn 0.8879 0.3545 0.2933
vn 0.9127 0.2325 0.3360
vn 0.9706 0.0803 -0.2268
vn 0.9323 0.1208 -0.3410
vn 0.9327 0.1737 -0.3159
vn 0.9709 0.1155 -0.2100
vn 0.9327 0.2468 -0.2628
vn 0.9709 0.1641 -0.1747
vn 0.9325 0.2922 -0.2123
vn 0.9709 0.2024 -0.1284
vn 0.9160 0.3775 -0.1358
vn 0.9750 0.2172 -0.0461
vn 0.8879 0.2217 -0.4032
vn 0.8879 0.3150 -0.3354
vn 0.8871 0.1541 -0.4351
vn 0.8871 0.3662 -0.2810
vn 0.8602 0.4885 -0.1461
vn 0.0000 -0.4818 -0.8763
vn -0.0000 -0.2487 -0.9686
vn -0.0000 -0.0000 -1.0000
vn -0.0000 0.2487 -0.9686
vn -0.0000 0.4818 -0.8763
vn -0.0000 0.6845 -0.7290
vn -0.0000 0.8443 -0.5358
vn -0.0000 0.9511 -0.3090
vn -0.0000 0.9980 -0.0628
vn -0.0000 0.9823 0.1874
vn -0.0000 0.9048 0.4258
vn -0.0000 0.7705 0.6374
vn -0.0000 0.5878 0.8090
vn -0.0000 0.3681 0.9298
vn 0.0000 0.1253 0.9921
vn 0.0000 -0.1253 0.9921
vn 0.0000 -0.3681 0.9298
vn 0.0000 -0.5878 0.8090
vn 0.0000 -0.7705 0.6374
vn 0.0000 -0.9048 0.4258
vn 0.0000 -0.9823 0.1874
vn 0.0000 -0.9980 -0.0628
vn 0.0000 -0.9511 -0.3090
vn 0.0000 -0.8443 -0.5358
vn 0.0000 -0.6845 -0.7290
usemtl tire
s 1
f 2/1/1 16/2/2 3/3/3 1/4/4
f 3/3/3 5/5/5 4/6/6 1/4/4
f 8/7/7 6/8/8 4/6/6 5/5/5
f 7/9/9 6/8/8 8/7/7 9/10/10
f 8/7/7 10/11/11 11/12/12 9/10/10
f 8/7/7 5/5/5 12/13/13 10/11/11
f 3/3/3 13/14/14 12/13/13 5/5/5
f 16/2/2 14/15/15 13/14/14 3/3/3
f 17/16/16 15/17/17 14/15/15 16/2/2
f 19/18/18 17/16/16 16/2/2 2/1/1
f 18/19/19 75/20/20 15/17/17 17/16/16
f 20/21/21 18/19/19 17/16/16 19/18/18
f 18/19/19 20/21/21 21/22/22 22/23/23
f 25/24/24 22/23/23 21/22/22 23/25/25
f 24/26/26 27/27/27 25/24/24 23/25/25
f 25/24/24 26/28/28 74/29/29 22/23/23
f 27/27/27 29/30/30 26/28/28 25/24/24
f 28/31/31 30/32/32 29/30/30 27/27/27
f 73/33/33 28/31/31 27/27/27 24/26/26
f 32/34/34 31/35/35 30/32/32 28/31/31
f 32/34/34 35/36/36 33/37/37 31/35/35
f 37/38/38 34/39/39 33/37/37 35/36/36
f 32/34/34 72/40/40 36/41/41 35/36/36
f 37/38/38 35/36/36 36/41/41 39/42/42
f 38/43/43 71/44/44 34/39/39 37/38/38
f 40/45/45 38/43/43 37/38/38 39/42/42
f 41/46/46 42/47/47 38/43/43 40/45/45
f 43/48/48 45/49/49 42/47/47 41/46/46
f 45/49/49 43/48/48 44/50/50 47/51/51
f 45/49/49 46/52/52 70/53/53 42/47/47
f 45/49/49 47/51/51 49/54/54 46/52/52
f 48/55/55 50/56/56 49/54/54 47/51/51
f 48/55/55 47/51/51 44/50/50 56/57/57
f 53/58/58 51/59/59 50/56/56 48/55/55
f 54/60/60 52/61/61 51/59/59 53/58/58
f 57/62/62 54/60/60 53/58/58 55/63/63
f 55/63/63 53/58/58 48/55/55 56/57/57
f 58/64/64 60/65/65 54/60/60 57/62/62
f 60/65/65 58/64/64 59/66/66 62/67/67
f 60/65/65 62/67/67 64/68/68 61/69/69
f 60/65/65 61/69/69 52/61/61 54/60/60
f 63/70/70 65/71/71 64/68/68 62/67/67
f 63/70/70 62/67/67 59/66/66 69/72/72
f 67/73/73 66/74/74 65/71/71 63/70/70
f 67/73/73 9/10/10 11/12/12 66/74/74
f 68/75/75 7/9/9 9/10/10 67/73/73
f 68/75/75 67/73/73 63/70/70 69/72/72
f 42/47/47 70/53/53 71/44/44 38/43/43
f 72/40/40 32/34/34 28/31/31 73/33/33
f 18/19/19 22/23/23 74/29/29 75/20/20
f 77/76/76 144/77/77 145/78/78 141/79/79
f 142/80/80 146/81/81 147/82/82 76/83/83
f 147/82/82 117/84/84 78/85/85 76/83/83
f 145/78/78 149/86/86 79/87/87 146/81/81
f 144/77/77 80/88/88 149/86/86 145/78/78
f 146/81/81 79/87/87 150/89/89 147/82/82
f 147/82/82 150/89/89 81/90/90 117/84/84
f 84/91/91 87/92/92 86/93/93 83/94/94
f 83/94/94 86/93/93 136/95/95 134/96/96
f 134/96/96 136/95/95 85/97/97 82/98/98
f 85/97/97 148/99/99 143/100/100 82/98/98
f 86/93/93 88/101/101 139/102/102 136/95/95
f 87/92/92 138/103/103 88/101/101 86/93/93
f 136/95/95 139/102/102 140/104/104 85/97/97
f 85/97/97 140/104/104 89/105/105 148/99/99
f 127/106/106 93/107/107 92/108/108 128/109/109
f 128/109/109 92/108/108 91/110/110 129/111/111
f 129/111/111 91/110/110 130/112/112 90/113/113
f 130/112/112 137/114/114 135/115/115 90/113/113
f 92/108/108 95/116/116 94/117/117 91/110/110
f 93/107/107 132/118/118 95/116/116 92/108/108
f 91/110/110 94/117/117 133/119/119 130/112/112
f 130/112/112 133/119/119 96/120/120 137/114/114
f 122/121/121 102/122/122 124/123/123 123/124/124
f 123/124/124 124/123/123 101/125/125 98/126/126
f 98/126/126 101/125/125 100/127/127 97/128/128
f 100/127/127 131/129/129 99/130/130 97/128/128
f 124/123/123 104/131/131 126/132/132 101/125/125
f 102/122/122 105/133/133 104/131/131 124/123/123
f 101/125/125 126/132/132 103/134/134 100/127/127
f 100/127/127 103/134/134 106/135/135 131/129/129
f 111/136/136 114/137/137 109/138/138 112/139/139
f 112/139/139 109/138/138 115/140/140 107/141/141
f 107/141/141 115/140/140 116/142/142 113/143/143
f 116/142/142 125/144/144 108/145/145 113/143/143
f 109/138/138 119/146/146 120/147/147 115/140/140
f 114/137/137 118/148/148 119/146/146 109/138/138
f 116/142/142 121/149/149 110/150/150 125/144/144
f 114/137/137 111/136/136 78/85/85 117/84/84
f 116/142/142 115/140/140 120/147/147 121/149/149
f 114/137/137 117/84/84 81/90/90 118/148/148
f 102/122/122 122/121/121 108/145/145 125/144/144
f 102/122/122 125/144/144 110/150/150 105/133/133
f 93/107/107 127/106/106 99/130/130 131/129/129
f 93/107/107 131/129/129 106/135/135 132/118/118
f 87/92/92 84/91/91 135/115/115 137/114/114
f 87/92/92 137/114/114 96/120/120 138/103/103
f 142/80/80 141/79/79 145/78/78 146/81/81
f 144/77/77 77/76/76 143/100/100 148/99/99
f 144/77/77 148/99/99 89/105/105 80/88/88
f 152/151/151 155/152/151 154/153/152 151/154/152
f 151/154/152 154/153/152 156/155/153 153/156/153
f 159/157/154 153/156/153 156/155/153 157/158/154
f 160/159/155 159/157/154 157/158/154 158/160/155
f 161/161/156 160/159/155 158/160/155 163/162/156
f 162/163/157 161/161/156 163/162/156 164/164/157
f 162/163/157 164/164/157 165/165/158 167/166/158
f 168/167/159 167/166/158 165/165/158 166/168/159
f 168/167/159 166/168/159 171/169/160 169/170/160
f 169/170/160 171/169/160 172/171/161 170/172/161
f 170/172/161 172/171/161 173/173/162 174/174/162
f 174/174/162 173/173/162 175/175/163 176/176/163
f 179/177/164 176/176/163 175/175/163 177/178/164
f 179/177/164 177/178/164 178/179/165 180/180/165
f 180/180/165 178/179/165 183/181/166 181/182/166
f 181/182/166 183/181/166 184/183/167 182/184/167
f 182/184/167 184/183/167 185/185/168 186/186/168
f 189/187/169 186/186/168 185/185/168 187/188/169
f 189/187/169 187/188/169 188/189/170 190/190/170
f 190/190/170 188/189/170 192/191/171 191/192/171
f 191/192/171 192/191/171 195/193/172 193/194/172
f 193/194/172 195/193/172 196/195/173 194/196/173
f 199/197/174 194/196/173 196/195/173 197/198/174
f 199/197/174 197/198/174 198/199/175 200/200/175
f 200/200/175 198/199/175 155/152/151 152/151/151
