# Blender v3.0.0 OBJ File: 'dragonshuttle.blend'
# www.blender.org
mtllib headlights.mtl
o Cube.001
v 1.295000 0.778876 -0.177245
v 1.295000 0.682046 -0.177245
v 0.731596 0.779084 -0.007246
v 0.731966 0.778682 -0.006908
v 0.731966 0.682239 -0.006908
v 0.731596 0.681838 -0.007246
v 1.104822 0.682239 -0.006908
v 1.105185 0.681838 -0.007411
v 1.105184 0.779084 -0.007410
v 1.104822 0.778682 -0.006908
v 1.097457 0.690229 0.005489
v 1.099017 0.688537 0.004068
v 1.099017 0.772384 0.004068
v 1.097457 0.770692 0.005489
v 0.737771 0.772384 0.004068
v 0.739331 0.770692 0.005489
v 0.739331 0.690229 0.005489
v 0.737771 0.688537 0.004068
v 1.294032 0.773069 -0.166194
v 1.293676 0.772450 -0.165391
v 1.293676 0.688471 -0.165391
v 1.294032 0.687853 -0.166194
v 1.114585 0.687857 -0.005613
v 1.115321 0.688471 -0.005809
v 1.115321 0.772450 -0.005809
v 1.114585 0.773065 -0.005613
v -1.295000 0.778876 -0.177245
v -1.295000 0.682046 -0.177245
v -0.731596 0.779084 -0.007246
v -0.731966 0.778682 -0.006908
v -0.731966 0.682239 -0.006908
v -0.731596 0.681838 -0.007246
v -1.104822 0.682239 -0.006908
v -1.105185 0.681838 -0.007411
v -1.105184 0.779084 -0.007410
v -1.104822 0.778682 -0.006908
v -1.097457 0.690229 0.005489
v -1.099017 0.688537 0.004068
v -1.099017 0.772384 0.004068
v -1.097457 0.770692 0.005489
v -0.737771 0.772384 0.004068
v -0.739331 0.770692 0.005489
v -0.739331 0.690229 0.005489
v -0.737771 0.688537 0.004068
v -1.294032 0.773069 -0.166194
v -1.293676 0.772450 -0.165391
v -1.293676 0.688471 -0.165391
v -1.294032 0.687853 -0.166194
v -1.114585 0.687857 -0.005613
v -1.115321 0.688471 -0.005809
v -1.115321 0.772450 -0.005809
v -1.114585 0.773065 -0.005613
vt 0.794768 0.001991
vt 0.794972 0.065316
vt 0.793721 0.066707
vt 0.793498 0.000525
vt 0.814479 0.108285
vt 0.816216 0.070156
vt 0.817667 0.067828
vt 0.815725 0.108897
vt 0.794449 0.069576
vt 0.795417 0.107877
vt 0.794161 0.108425
vt 0.793047 0.067189
vt 0.815709 0.065850
vt 0.816971 0.067311
vt 0.815735 0.002533
vt 0.817000 0.001129
vt 0.795985 0.107534
vt 0.794916 0.070033
vt 0.815746 0.070589
vt 0.813912 0.107915
vt 0.792806 0.000000
vt 0.817667 0.000641
vt 0.795651 0.064823
vt 0.815021 0.065327
vt 0.795466 0.002520
vt 0.815047 0.003032
vt 0.794768 0.001991
vt 0.793498 0.000525
vt 0.793721 0.066707
vt 0.794972 0.065316
vt 0.814479 0.108285
vt 0.815725 0.108897
vt 0.817667 0.067828
vt 0.816216 0.070156
vt 0.794449 0.069576
vt 0.793047 0.067189
vt 0.794161 0.108425
vt 0.795417 0.107877
vt 0.816971 0.067311
vt 0.815709 0.065850
vt 0.817000 0.001129
vt 0.815735 0.002533
vt 0.795985 0.107534
vt 0.813912 0.107915
vt 0.815746 0.070589
vt 0.794916 0.070033
vt 0.792806 0.000000
vt 0.817667 0.000641
vt 0.815021 0.065327
vt 0.795651 0.064823
vt 0.795466 0.002520
vt 0.815047 0.003032
vn -0.5074 0.4956 0.7049
vn 0.5074 0.4956 0.7049
vn 0.5138 0.4725 0.7160
vn -0.4476 0.4622 0.7655
vn 0.8189 -0.4131 0.3983
vn 0.2303 -0.4102 0.8824
vn 0.3098 -0.4696 0.8267
vn 0.8627 -0.4107 0.2949
vn 0.2304 0.4102 0.8824
vn 0.8189 0.4131 0.3983
vn 0.8627 0.4107 0.2949
vn 0.3095 0.4696 0.8268
vn 0.5074 -0.4956 0.7049
vn 0.5137 -0.4728 0.7159
vn -0.5074 -0.4956 0.7049
vn -0.4476 -0.4624 0.7654
vn 0.7589 0.2047 0.6181
vn 0.5124 0.1996 0.8352
vn 0.5124 -0.1996 0.8352
vn 0.7589 -0.2047 0.6181
vn -0.3746 0.4294 0.8217
vn -0.3747 -0.4296 0.8216
vn 0.2843 0.2641 0.9216
vn 0.2843 -0.2641 0.9216
vn -0.2843 0.2641 0.9216
vn -0.2843 -0.2641 0.9216
vn 0.4476 0.4622 0.7655
vn -0.5138 0.4725 0.7160
vn -0.8189 -0.4131 0.3983
vn -0.8627 -0.4107 0.2949
vn -0.3098 -0.4696 0.8267
vn -0.2303 -0.4102 0.8824
vn -0.2304 0.4102 0.8824
vn -0.3095 0.4696 0.8268
vn -0.8627 0.4107 0.2949
vn -0.8189 0.4131 0.3983
vn -0.5137 -0.4728 0.7159
vn 0.4476 -0.4624 0.7654
vn -0.7589 0.2047 0.6181
vn -0.7589 -0.2047 0.6181
vn -0.5124 -0.1996 0.8352
vn -0.5124 0.1996 0.8352
vn 0.3746 0.4294 0.8217
vn 0.3747 -0.4296 0.8216
usemtl Material
s 1
f 15/1/1 13/2/2 10/3/3 4/4/4
f 22/5/5 23/6/6 8/7/7 2/8/8
f 26/9/9 19/10/10 1/11/11 9/12/12
f 13/2/2 12/13/13 7/14/14 10/3/3
f 12/13/13 18/15/15 5/16/16 7/14/14
f 23/6/6 26/9/9 9/12/12 8/7/7
f 20/17/17 25/18/18 24/19/19 21/20/20
f 8/7/7 9/12/12 10/3/3 7/14/14
f 4/4/4 10/3/3 9/12/12 3/21/21
f 6/22/22 8/7/7 7/14/14 5/16/16
f 3/21/21 6/22/22 5/16/16 4/4/4
f 18/15/15 15/1/1 4/4/4 5/16/16
f 12/13/13 13/2/2 14/23/23 11/24/24
f 16/25/25 14/23/23 13/2/2 15/1/1
f 18/15/15 12/13/13 11/24/24 17/26/26
f 15/1/1 18/15/15 17/26/26 16/25/25
f 14/23/23 16/25/25 17/26/26 11/24/24
f 24/19/19 25/18/18 26/9/9 23/6/6
f 20/17/17 21/20/20 22/5/5 19/10/10
f 25/18/18 20/17/17 19/10/10 26/9/9
f 23/6/6 22/5/5 21/20/20 24/19/19
f 19/10/10 22/5/5 2/8/8 1/11/11
f 41/27/2 30/28/27 36/29/28 39/30/1
f 48/31/29 28/32/30 34/33/31 49/34/32
f 52/35/33 35/36/34 27/37/35 45/38/36
f 39/30/1 36/29/28 33/39/37 38/40/15
f 38/40/15 33/39/37 31/41/38 44/42/13
f 49/34/32 34/33/31 35/36/34 52/35/33
f 46/43/39 47/44/40 50/45/41 51/46/42
f 34/33/31 33/39/37 36/29/28 35/36/34
f 30/28/27 29/47/43 35/36/34 36/29/28
f 32/48/44 31/41/38 33/39/37 34/33/31
f 29/47/43 30/28/27 31/41/38 32/48/44
f 44/42/13 31/41/38 30/28/27 41/27/2
f 38/40/15 37/49/26 40/50/25 39/30/1
f 42/51/23 41/27/2 39/30/1 40/50/25
f 44/42/13 43/52/24 37/49/26 38/40/15
f 41/27/2 42/51/23 43/52/24 44/42/13
f 40/50/25 37/49/26 43/52/24 42/51/23
f 50/45/41 49/34/32 52/35/33 51/46/42
f 46/43/39 45/38/36 48/31/29 47/44/40
f 51/46/42 52/35/33 45/38/36 46/43/39
f 49/34/32 50/45/41 47/44/40 48/31/29
f 45/38/36 27/37/35 28/32/30 48/31/29
