# Blender v3.0.0 OBJ File: '711.blend'
# www.blender.org
mtllib grille711.mtl
o grilles_Plane.013
v 0.890116 0.571522 -2.773818
v 0.879281 0.724774 -2.824382
v 0.870177 0.771463 -2.832210
v 0.894737 0.571522 -2.908600
v 0.890040 0.536689 -2.768641
v 0.886244 0.787269 -2.908600
v 0.875618 0.784759 -2.849487
v 0.891904 0.533342 -2.825962
v 0.895077 0.772982 -3.009104
v 0.890141 0.787270 -2.982027
v 0.898296 0.724814 -3.013316
v 0.894789 0.750183 -3.016619
v 0.894504 0.674625 -3.005412
v 0.894621 0.623073 -2.957006
v 0.874729 0.748118 -2.828296
v 0.886244 0.771463 -2.908096
v 0.886244 0.750183 -2.908096
v 0.886244 0.724774 -2.908096
v 0.886244 0.662324 -2.908096
v 0.886244 0.621286 -2.908096
v 0.520710 0.451253 -0.130213
v 0.595676 0.451253 -0.160782
v 0.661767 0.341339 -0.200545
v 0.347148 0.341339 -0.083401
v 0.659712 0.310662 -0.201921
v 0.188236 0.306114 -0.053655
v 0.000000 0.305146 -0.026901
v 0.312896 0.260405 -0.099146
v 0.285145 0.285061 -0.081332
v 0.085375 0.305412 -0.033988
v 0.186475 0.201683 -0.080111
v 0.342875 0.209150 -0.117805
v 0.583089 0.221815 -0.188678
v 0.000000 0.193446 -0.052988
v 0.300107 0.215649 -0.104977
v 0.282961 0.208596 -0.102362
v 0.509707 0.217062 -0.158530
v 0.084555 0.195949 -0.060179
v 0.330998 0.286374 -0.096484
v 0.631028 0.257264 -0.199540
v 0.309784 0.214179 -0.108172
v 0.666513 0.428799 -0.195198
v 0.614483 0.451253 -0.169406
v 0.445708 0.451253 -0.106191
v 0.387937 0.412066 -0.090897
v 0.488748 0.451253 -0.119976
v 0.445708 0.341339 -0.106191
v 0.445708 0.286374 -0.120465
v 0.445708 0.412066 -0.106191
v 0.443714 0.213932 -0.142421
v 0.488157 0.341339 -0.120353
v 0.489832 0.286519 -0.135128
v 0.488157 0.412066 -0.120353
v 0.522231 0.341686 -0.131204
v 0.522231 0.289315 -0.144805
v 0.522231 0.412414 -0.131204
v 0.595472 0.341686 -0.161049
v 0.592931 0.296543 -0.171737
v 0.595472 0.412414 -0.161049
v 0.000000 0.927188 -3.987421
v 0.455221 0.874943 -3.992419
v 0.437248 0.889551 -3.969704
v 0.436100 0.867178 -4.027068
v 0.130734 0.932624 -3.966679
v 0.131227 0.932634 -3.966626
v 0.437158 0.851308 -4.066285
v 0.000000 0.919615 -4.008216
v 0.435984 0.898069 -3.948307
v 0.450827 0.877913 -3.988383
v 0.000000 0.912844 -4.026810
v 0.323310 0.879425 -4.063784
v 0.323310 0.907615 -3.984955
v 0.451436 0.873482 -3.999085
v 0.323231 0.865291 -4.103328
v 0.000000 0.905270 -4.047605
v 0.000000 0.933959 -3.968828
v 0.000000 0.898499 -4.066198
v 0.000000 0.890926 -4.086994
v 0.131227 0.898052 -4.064142
v 0.436065 0.882796 -3.987684
v 0.131227 0.890733 -4.084780
v 0.131227 0.918667 -4.006011
v 0.437087 0.904221 -3.930340
v 0.131215 0.876774 -4.124144
v 0.000000 0.884155 -4.105587
v 0.323310 0.886607 -4.043700
v 0.451307 0.904281 -3.920326
v 0.323310 0.893520 -4.024369
v 0.000000 0.876585 -4.126374
v 0.450640 0.908270 -3.909633
v 0.000000 0.869813 -4.144967
v 0.437319 0.858316 -4.048472
v 0.438377 0.842446 -4.087690
v 0.435752 0.912199 -3.908954
v 0.451471 0.857865 -4.038470
v 0.452529 0.841995 -4.077687
v 0.131227 0.904700 -4.045395
v 0.455091 0.905728 -3.913659
v 0.450862 0.862296 -4.027768
v 0.131227 0.925981 -3.985387
v 0.131227 0.912016 -4.024765
v 0.451401 0.889100 -3.959701
v 0.131227 0.884088 -4.103519
v 0.437283 0.873934 -4.009088
v 0.131227 0.870142 -4.142842
v 0.450791 0.893531 -3.948999
v 0.455256 0.859326 -4.031803
v 0.454513 0.845874 -4.070166
v 0.441363 0.896649 -3.948552
v 0.455185 0.890561 -3.953034
v 0.323310 0.914771 -3.964944
v 0.323310 0.872525 -4.083078
v 0.323310 0.858463 -4.122402
v 0.323310 0.900689 -4.004322
v 0.323310 0.921710 -3.945541
v 0.448541 0.851308 -4.066141
v 0.197131 0.928886 -3.959392
v 0.261159 0.925245 -3.952363
v 0.041640 0.233725 -4.038009
v 0.018704 0.241174 -4.037777
v 0.004529 0.260675 -4.037171
v 0.004529 0.284779 -4.036422
v 0.018704 0.304280 -4.035816
v 0.041640 0.311729 -4.035585
v 0.064576 0.304280 -4.035816
v 0.078751 0.284779 -4.036422
v 0.078751 0.260675 -4.037171
v 0.064576 0.241174 -4.037777
v 0.055815 0.277331 -4.036654
v 0.027465 0.268123 -4.036941
v -0.890116 0.571522 -2.773818
v -0.879281 0.724774 -2.824382
v -0.870177 0.771463 -2.832210
v -0.894737 0.571522 -2.908600
v -0.890040 0.536689 -2.768641
v -0.886244 0.787269 -2.908600
v -0.875618 0.784759 -2.849487
v -0.891904 0.533342 -2.825962
v -0.895077 0.772982 -3.009104
v -0.890141 0.787270 -2.982027
v -0.898296 0.724814 -3.013316
v -0.894789 0.750183 -3.016619
v -0.894504 0.674625 -3.005412
v -0.894621 0.623073 -2.957006
v -0.874729 0.748118 -2.828296
v -0.886244 0.771463 -2.908096
v -0.886244 0.750183 -2.908096
v -0.886244 0.724774 -2.908096
v -0.886244 0.662324 -2.908096
v -0.886244 0.621286 -2.908096
v -0.520710 0.451253 -0.130213
v -0.595676 0.451253 -0.160782
v -0.661767 0.341339 -0.200545
v -0.347148 0.341339 -0.083401
v -0.659712 0.310662 -0.201921
v -0.188236 0.306114 -0.053655
v -0.312896 0.260405 -0.099146
v -0.285145 0.285061 -0.081332
v -0.085375 0.305412 -0.033988
v -0.186475 0.201683 -0.080111
v -0.342875 0.209150 -0.117805
v -0.583089 0.221815 -0.188678
v -0.300107 0.215649 -0.104977
v -0.282961 0.208596 -0.102362
v -0.509707 0.217062 -0.158530
v -0.084555 0.195949 -0.060179
v -0.330998 0.286374 -0.096484
v -0.631028 0.257264 -0.199540
v -0.309784 0.214179 -0.108172
v -0.666513 0.428799 -0.195198
v -0.614483 0.451253 -0.169406
v -0.445708 0.451253 -0.106191
v -0.387937 0.412066 -0.090897
v -0.488748 0.451253 -0.119976
v -0.445708 0.341339 -0.106191
v -0.445708 0.286374 -0.120465
v -0.445708 0.412066 -0.106191
v -0.443714 0.213932 -0.142421
v -0.488157 0.341339 -0.120353
v -0.489832 0.286519 -0.135128
v -0.488157 0.412066 -0.120353
v -0.522231 0.341686 -0.131204
v -0.522231 0.289315 -0.144805
v -0.522231 0.412414 -0.131204
v -0.595472 0.341686 -0.161049
v -0.592931 0.296543 -0.171737
v -0.595472 0.412414 -0.161049
v -0.455221 0.874943 -3.992419
v -0.437248 0.889551 -3.969704
v -0.436100 0.867178 -4.027068
v -0.130734 0.932624 -3.966679
v -0.131227 0.932634 -3.966626
v -0.437158 0.851308 -4.066285
v -0.435984 0.898069 -3.948307
v -0.450827 0.877913 -3.988383
v -0.323310 0.879425 -4.063784
v -0.323310 0.907615 -3.984955
v -0.451436 0.873482 -3.999085
v -0.323231 0.865291 -4.103328
v -0.131227 0.898052 -4.064142
v -0.436065 0.882796 -3.987684
v -0.131227 0.890733 -4.084780
v -0.131227 0.918667 -4.006011
v -0.437087 0.904221 -3.930340
v -0.131215 0.876774 -4.124144
v -0.323310 0.886607 -4.043700
v -0.451307 0.904281 -3.920326
v -0.323310 0.893520 -4.024369
v -0.450640 0.908270 -3.909633
v -0.437319 0.858316 -4.048472
v -0.438377 0.842446 -4.087690
v -0.435752 0.912199 -3.908954
v -0.451471 0.857865 -4.038470
v -0.452529 0.841995 -4.077687
v -0.131227 0.904700 -4.045395
v -0.455091 0.905728 -3.913659
v -0.450862 0.862296 -4.027768
v -0.131227 0.925981 -3.985387
v -0.131227 0.912016 -4.024765
v -0.451401 0.889100 -3.959701
v -0.131227 0.884088 -4.103519
v -0.437283 0.873934 -4.009088
v -0.131227 0.870142 -4.142842
v -0.450791 0.893531 -3.948999
v -0.455256 0.859326 -4.031803
v -0.454513 0.845874 -4.070166
v -0.441363 0.896649 -3.948552
v -0.455185 0.890561 -3.953034
v -0.323310 0.914771 -3.964944
v -0.323310 0.872525 -4.083078
v -0.323310 0.858463 -4.122402
v -0.323310 0.900689 -4.004322
v -0.323310 0.921710 -3.945541
v -0.448541 0.851308 -4.066141
v -0.197131 0.928886 -3.959392
v -0.261159 0.925245 -3.952363
v -0.041640 0.233725 -4.038009
v -0.018704 0.241174 -4.037777
v -0.004529 0.260675 -4.037171
v -0.004529 0.284779 -4.036422
v -0.018704 0.304280 -4.035816
v -0.041640 0.311729 -4.035585
v -0.064576 0.304280 -4.035816
v -0.078751 0.284779 -4.036422
v -0.078751 0.260675 -4.037171
v -0.064576 0.241174 -4.037777
v -0.055815 0.277331 -4.036654
v -0.027465 0.268123 -4.036941
vt 0.000000 0.000000
vt 0.000000 0.000000
vt 0.000000 0.000000
vt 0.000000 0.000000
vt 0.000000 0.000000
vt 0.000000 0.000000
vt 0.000000 0.000000
vt 0.000000 0.000000
vt 0.000000 0.000000
vt 0.000000 0.000000
vt 0.000000 0.000000
vt 0.000000 0.000000
vt 0.000000 0.000000
vt 0.000000 0.000000
vt 0.000000 0.000000
vt 0.000000 0.000000
vt 0.000000 0.000000
vt 0.000000 0.000000
vt 0.000000 0.000000
vt 0.000000 0.000000
vt 0.000000 0.000000
vt 0.000000 0.000000
vt 0.000000 0.000000
vt 0.000000 0.000000
vt 0.000000 0.000000
vt 0.000000 0.000000
vt 0.000000 0.000000
vt 0.000000 0.000000
vt 0.000000 0.000000
vt 0.000000 0.000000
vt 0.000000 0.000000
vt 0.000000 0.000000
vt 0.000000 0.000000
vt 0.000000 0.000000
vt 0.000000 0.000000
vt 0.000000 0.000000
vt 0.000000 0.000000
vt 0.000000 0.000000
vt 0.000000 0.000000
vt 0.000000 0.000000
vt 0.000000 0.000000
vt 0.000000 0.000000
vt 0.000000 0.000000
vt 0.000000 0.000000
vt 0.000000 0.000000
vt 0.000000 0.000000
vt 0.000000 0.000000
vt 0.000000 0.000000
vt 0.000000 0.000000
vt 0.000000 0.000000
vt 0.000000 0.000000
vt 0.000000 0.000000
vt 0.000000 0.000000
vt 0.000000 0.000000
vt 0.000000 0.000000
vt 0.000000 0.000000
vt 0.000000 0.000000
vt 0.000000 0.000000
vt 0.000000 0.000000
vt 0.000000 0.000000
vt 0.000000 0.000000
vt 0.000000 0.000000
vt 0.000000 0.000000
vt 0.000000 0.000000
vt 0.000000 0.000000
vt 0.000000 0.000000
vt 0.000000 0.000000
vt 0.000000 0.000000
vt 0.000000 0.000000
vt 0.000000 0.000000
vt 0.000000 0.000000
vt 0.000000 0.000000
vt 0.000000 0.000000
vt 0.000000 0.000000
vt 0.000000 0.000000
vt 0.000000 0.000000
vt 0.000000 0.000000
vt 0.000000 0.000000
vt 0.000000 0.000000
vt 0.000000 0.000000
vt 0.000000 0.000000
vt 0.000000 0.000000
vt 0.000000 0.000000
vt 0.000000 0.000000
vt 0.000000 0.000000
vt 0.000000 0.000000
vt 0.000000 0.000000
vt 0.000000 0.000000
vt 0.000000 0.000000
vt 0.000000 0.000000
vt 0.000000 0.000000
vt 0.000000 0.000000
vt 0.000000 0.000000
vt 0.000000 0.000000
vt 0.000000 0.000000
vt 0.000000 0.000000
vt 0.000000 0.000000
vt 0.000000 0.000000
vt 0.000000 0.000000
vt 0.000000 0.000000
vt 0.000000 0.000000
vt 0.000000 0.000000
vt 0.000000 0.000000
vt 0.000000 0.000000
vt 0.000000 0.000000
vt 0.000000 0.000000
vt 0.000000 0.000000
vt 0.000000 0.000000
vt 0.000000 0.000000
vt 0.000000 0.000000
vt 0.000000 0.000000
vt 0.000000 0.000000
vt 0.000000 0.000000
vt 0.000000 0.000000
vt 0.000000 0.000000
vt 0.000000 0.000000
vt 0.000000 0.000000
vt 0.000000 0.000000
vt 0.000000 0.000000
vt 0.000000 0.000000
vt 0.000000 0.000000
vt 0.000000 0.000000
vt 0.000000 0.000000
vt 0.000000 0.000000
vt 0.000000 0.000000
vt 0.000000 0.000000
vt 0.000000 0.000000
vt 0.000000 0.000000
vt 0.000000 0.000000
vt 0.000000 0.000000
vt 0.000000 0.000000
vt 0.000000 0.000000
vt 0.000000 0.000000
vt 0.000000 0.000000
vt 0.000000 0.000000
vt 0.000000 0.000000
vt 0.000000 0.000000
vt 0.000000 0.000000
vt 0.000000 0.000000
vt 0.000000 0.000000
vt 0.000000 0.000000
vt 0.000000 0.000000
vt 0.000000 0.000000
vt 0.000000 0.000000
vt 0.000000 0.000000
vt 0.000000 0.000000
vt 0.000000 0.000000
vt 0.000000 0.000000
vt 0.000000 0.000000
vt 0.000000 0.000000
vt 0.000000 0.000000
vt 0.000000 0.000000
vt 0.000000 0.000000
vt 0.000000 0.000000
vt 0.000000 0.000000
vt 0.000000 0.000000
vt 0.000000 0.000000
vt 0.000000 0.000000
vt 0.000000 0.000000
vt 0.000000 0.000000
vt 0.000000 0.000000
vt 0.000000 0.000000
vt 0.000000 0.000000
vt 0.000000 0.000000
vt 0.000000 0.000000
vt 0.000000 0.000000
vt 0.000000 0.000000
vt 0.000000 0.000000
vt 0.000000 0.000000
vt 0.000000 0.000000
vt 0.000000 0.000000
vt 0.000000 0.000000
vt 0.000000 0.000000
vt 0.000000 0.000000
vt 0.000000 0.000000
vt 0.000000 0.000000
vt 0.000000 0.000000
vt 0.000000 0.000000
vt 0.000000 0.000000
vt 0.000000 0.000000
vt 0.000000 0.000000
vt 0.000000 0.000000
vt 0.000000 0.000000
vt 0.000000 0.000000
vt 0.000000 0.000000
vt 0.000000 0.000000
vt 0.000000 0.000000
vt 0.000000 0.000000
vt 0.000000 0.000000
vt 0.000000 0.000000
vt 0.000000 0.000000
vt 0.000000 0.000000
vt 0.000000 0.000000
vt 0.000000 0.000000
vt 0.000000 0.000000
vt 0.000000 0.000000
vt 0.000000 0.000000
vt 0.000000 0.000000
vt 0.000000 0.000000
vt 0.000000 0.000000
vt 0.000000 0.000000
vt 0.000000 0.000000
vt 0.000000 0.000000
vt 0.000000 0.000000
vt 0.000000 0.000000
vt 0.000000 0.000000
vt 0.000000 0.000000
vt 0.000000 0.000000
vt 0.000000 0.000000
vt 0.000000 0.000000
vt 0.000000 0.000000
vt 0.000000 0.000000
vt 0.000000 0.000000
vt 0.000000 0.000000
vt 0.000000 0.000000
vt 0.000000 0.000000
vt 0.000000 0.000000
vt 0.000000 0.000000
vt 0.000000 0.000000
vt 0.000000 0.000000
vt 0.000000 0.000000
vt 0.000000 0.000000
vt 0.000000 0.000000
vt 0.000000 0.000000
vt 0.000000 0.000000
vt 0.000000 0.000000
vt 0.000000 0.000000
vt 0.000000 0.000000
vt 0.000000 0.000000
vt 0.000000 0.000000
vt 0.000000 0.000000
vt 0.000000 0.000000
vt 0.000000 0.000000
vt 0.000000 0.000000
vt 0.000000 0.000000
vt 0.000000 0.000000
vt 0.000000 0.000000
vt 0.000000 0.000000
vt 0.000000 0.000000
vt 0.000000 0.000000
vt 0.000000 0.000000
vt 0.000000 0.000000
vt 0.000000 0.000000
vt 0.000000 0.000000
vt 0.000000 0.000000
vt 0.000000 0.000000
vt 0.000000 0.000000
vt 0.000000 0.000000
vn 0.9908 0.0308 0.1319
vn 0.9911 0.0191 0.1315
vn 0.9791 -0.0655 0.1924
vn 0.9814 0.0657 0.1802
vn 0.9967 0.0045 0.0806
vn 0.9925 0.0981 0.0733
vn 0.9842 0.1075 0.1408
vn 0.9908 0.0678 0.1169
vn 0.9955 0.0306 0.0896
vn 0.9945 0.0774 0.0708
vn 0.9949 0.0522 0.0865
vn 0.9949 0.0286 0.0969
vn 0.9975 0.0310 0.0635
vn 0.9998 0.0107 -0.0147
vn 0.9946 -0.0021 0.1039
vn 0.9944 0.0765 0.0732
vn 0.9872 0.0890 0.1325
vn 0.9987 0.0487 0.0084
vn 0.9863 0.1351 0.0946
vn 0.9903 0.1234 0.0639
vn 0.1379 -0.2334 0.9625
vn 0.0000 -0.2303 0.9731
vn 0.1380 -0.2334 0.9625
vn 0.2066 -0.2437 0.9476
vn 0.2079 -0.2443 0.9471
vn 0.2553 -0.2493 0.9341
vn 0.2665 -0.2482 0.9313
vn 0.3214 -0.2425 0.9153
vn 0.2408 -0.0131 0.9705
vn 0.2192 -0.1748 0.9599
vn 0.2680 -0.1311 0.9544
vn 0.2801 -0.0059 0.9599
vn 0.2076 -0.2450 0.9470
vn 0.2528 -0.2575 0.9326
vn 0.2152 -0.2427 0.9459
vn 0.2083 -0.2304 0.9505
vn 0.2535 -0.2752 0.9273
vn 0.2896 -0.0042 0.9571
vn 0.3084 -0.1211 0.9435
vn 0.3087 -0.0049 0.9511
vn 0.2901 -0.2442 0.9253
vn 0.3074 -0.0100 0.9515
vn 0.3203 -0.2495 0.9139
vn 0.3378 -0.1187 0.9337
vn 0.3414 -0.0054 0.9399
vn 0.3363 -0.2369 0.9114
vn 0.3400 -0.0109 0.9403
vn 0.4245 -0.1117 0.8985
vn 0.4178 -0.0184 0.9084
vn 0.4059 -0.2183 0.8874
vn 0.4051 -0.0131 0.9142
vn 0.3880 -0.2370 0.8906
vn 0.4128 -0.2244 0.8827
vn 0.4516 -0.1861 0.8726
vn 0.4744 -0.1046 0.8741
vn 0.4632 -0.0361 0.8855
vn 0.4324 -0.0176 0.9015
vn 0.0995 0.9368 -0.3353
vn 0.0000 0.9415 -0.3370
vn 0.1019 0.9352 -0.3390
vn 0.0000 0.9401 -0.3408
vn 0.1053 0.9342 -0.3408
vn 0.0000 0.9394 -0.3427
vn 0.1080 0.9340 -0.3406
vn 0.0000 0.9395 -0.3426
vn 0.1092 0.9327 -0.3436
vn 0.0000 0.9384 -0.3457
vn 0.0000 -0.0310 0.9995
vn 0.0000 -0.0311 0.9995
vn -0.9908 0.0308 0.1319
vn -0.9814 0.0657 0.1802
vn -0.9791 -0.0655 0.1924
vn -0.9911 0.0191 0.1315
vn -0.9925 0.0981 0.0733
vn -0.9967 0.0045 0.0806
vn -0.9842 0.1075 0.1408
vn -0.9908 0.0678 0.1169
vn -0.9955 0.0306 0.0896
vn -0.9945 0.0774 0.0708
vn -0.9949 0.0522 0.0865
vn -0.9949 0.0286 0.0969
vn -0.9975 0.0310 0.0635
vn -0.9998 0.0107 -0.0147
vn -0.9946 -0.0021 0.1039
vn -0.9944 0.0765 0.0732
vn -0.9872 0.0890 0.1325
vn -0.9987 0.0487 0.0084
vn -0.9863 0.1351 0.0946
vn -0.9903 0.1234 0.0639
vn -0.1379 -0.2334 0.9625
vn -0.1380 -0.2334 0.9625
vn -0.2066 -0.2437 0.9476
vn -0.2079 -0.2443 0.9471
vn -0.2553 -0.2493 0.9341
vn -0.2665 -0.2482 0.9313
vn -0.3214 -0.2425 0.9153
vn -0.2408 -0.0131 0.9705
vn -0.2801 -0.0059 0.9599
vn -0.2680 -0.1311 0.9544
vn -0.2192 -0.1748 0.9599
vn -0.2528 -0.2575 0.9326
vn -0.2076 -0.2450 0.9470
vn -0.2152 -0.2427 0.9459
vn -0.2083 -0.2304 0.9505
vn -0.2535 -0.2752 0.9273
vn -0.2896 -0.0042 0.9571
vn -0.3087 -0.0049 0.9511
vn -0.3084 -0.1211 0.9435
vn -0.2901 -0.2442 0.9253
vn -0.3074 -0.0100 0.9515
vn -0.3203 -0.2495 0.9139
vn -0.3414 -0.0054 0.9399
vn -0.3378 -0.1187 0.9337
vn -0.3363 -0.2369 0.9114
vn -0.3400 -0.0109 0.9403
vn -0.4178 -0.0184 0.9084
vn -0.4245 -0.1117 0.8985
vn -0.4059 -0.2183 0.8874
vn -0.4051 -0.0131 0.9142
vn -0.3880 -0.2370 0.8906
vn -0.4128 -0.2244 0.8827
vn -0.4516 -0.1861 0.8726
vn -0.4744 -0.1046 0.8741
vn -0.4632 -0.0361 0.8855
vn -0.4324 -0.0176 0.9015
vn -0.0995 0.9368 -0.3353
vn -0.1019 0.9352 -0.3390
vn -0.1053 0.9342 -0.3408
vn -0.1080 0.9340 -0.3406
vn -0.1092 0.9327 -0.3436
usemtl None
s 1
f 16/1/1 6/2/2 7/3/3 3/4/4
f 6/2/2 16/1/1 9/5/5 10/6/6
f 15/7/7 17/8/8 16/1/1 3/4/4
f 12/9/9 9/5/5 16/1/1 17/8/8
f 2/10/10 18/11/11 17/8/8 15/7/7
f 11/12/12 12/9/9 17/8/8 18/11/11
f 19/13/13 18/11/11 2/10/10 1/14/14
f 13/15/15 11/12/12 18/11/11 19/13/13
f 20/16/16 14/17/17 13/15/15 19/13/13
f 5/18/18 20/16/16 19/13/13 1/14/14
f 4/19/19 20/16/16 5/18/18 8/20/20
f 14/17/17 20/16/16 4/19/19
f 30/21/21 27/22/22 34/23/22 38/24/23
f 26/25/24 30/21/21 38/24/23 31/26/25
f 29/27/26 26/25/24 31/26/25 36/28/27
f 28/29/28 29/27/26 36/28/27 35/30/28
f 45/31/29 24/32/30 47/33/31 49/34/32
f 24/32/30 39/35/33 48/36/34 47/33/31
f 32/37/35 48/36/34 39/35/33 41/38/36
f 50/39/37 48/36/34 32/37/35
f 45/31/29 49/34/32 44/40/38
f 49/34/32 47/33/31 51/41/39 53/42/40
f 47/33/31 48/36/34 52/43/41 51/41/39
f 44/40/38 49/34/32 53/42/40 46/44/42
f 37/45/43 52/43/41 48/36/34 50/39/37
f 53/42/40 51/41/39 54/46/44 56/47/45
f 51/41/39 52/43/41 55/48/46 54/46/44
f 52/43/41 37/45/43 55/48/46
f 46/44/42 53/42/40 56/47/45 21/49/47
f 56/47/45 54/46/44 57/50/48 59/51/49
f 54/46/44 55/48/46 58/52/50 57/50/48
f 21/49/47 56/47/45 59/51/49 22/53/51
f 33/54/52 58/52/50 55/48/46 37/45/43
f 40/55/53 25/56/54 58/52/50 33/54/52
f 25/56/54 23/57/55 57/50/48 58/52/50
f 42/58/56 59/51/49 57/50/48 23/57/55
f 22/53/51 59/51/49 42/58/56 43/59/57
f 65/60/58 117/61/58 118/62/58 115/63/58 94/64/58 90/65/58 98/66/58 87/67/58 83/68/58 111/69/58 100/70/58 60/71/59 76/72/59 64/73/58
f 109/74/60 106/75/60 110/76/60 102/77/60 62/78/60 114/79/60 101/80/60 70/81/61 67/82/61 82/83/60 72/84/60 68/85/60
f 61/86/62 73/87/62 104/88/62 86/89/62 79/90/62 77/91/63 75/92/63 97/93/62 88/94/62 80/95/62 69/96/62
f 81/97/64 71/98/64 63/99/64 99/100/64 107/101/64 95/102/64 92/103/64 112/104/64 103/105/64 85/106/65 78/107/65
f 96/108/66 93/109/66 113/110/66 105/111/66 91/112/67 89/113/67 84/114/66 74/115/66 66/116/66 116/117/66 108/118/66
f 127/119/68 126/120/68 129/121/68 128/122/68
f 126/120/68 125/123/69 124/124/69 129/121/68
f 128/122/68 129/121/68 130/125/68 119/126/68
f 129/121/68 124/124/69 123/127/69 130/125/68
f 119/126/68 130/125/68 121/128/68 120/129/68
f 130/125/68 123/127/69 122/130/69 121/128/68
f 146/131/70 133/132/71 137/133/72 136/134/73
f 136/134/73 140/135/74 139/136/75 146/131/70
f 145/137/76 133/132/71 146/131/70 147/138/77
f 142/139/78 147/138/77 146/131/70 139/136/75
f 132/140/79 145/137/76 147/138/77 148/141/80
f 141/142/81 148/141/80 147/138/77 142/139/78
f 149/143/82 131/144/83 132/140/79 148/141/80
f 143/145/84 149/143/82 148/141/80 141/142/81
f 150/146/85 149/143/82 143/145/84 144/147/86
f 135/148/87 131/144/83 149/143/82 150/146/85
f 134/149/88 138/150/89 135/148/87 150/146/85
f 144/147/86 134/149/88 150/146/85
f 159/151/90 166/152/91 34/23/22 27/22/22
f 156/153/92 160/154/93 166/152/91 159/151/90
f 158/155/94 164/156/95 160/154/93 156/153/92
f 157/157/96 163/158/96 164/156/95 158/155/94
f 173/159/97 177/160/98 175/161/99 154/162/100
f 154/162/100 175/161/99 176/163/101 167/164/102
f 161/165/103 169/166/104 167/164/102 176/163/101
f 178/167/105 161/165/103 176/163/101
f 173/159/97 172/168/106 177/160/98
f 177/160/98 181/169/107 179/170/108 175/161/99
f 175/161/99 179/170/108 180/171/109 176/163/101
f 172/168/106 174/172/110 181/169/107 177/160/98
f 165/173/111 178/167/105 176/163/101 180/171/109
f 181/169/107 184/174/112 182/175/113 179/170/108
f 179/170/108 182/175/113 183/176/114 180/171/109
f 180/171/109 183/176/114 165/173/111
f 174/172/110 151/177/115 184/174/112 181/169/107
f 184/174/112 187/178/116 185/179/117 182/175/113
f 182/175/113 185/179/117 186/180/118 183/176/114
f 151/177/115 152/181/119 187/178/116 184/174/112
f 162/182/120 165/173/111 183/176/114 186/180/118
f 168/183/121 162/182/120 186/180/118 155/184/122
f 155/184/122 186/180/118 185/179/117 153/185/123
f 170/186/124 153/185/123 185/179/117 187/178/116
f 152/181/119 171/187/125 170/186/124 187/178/116
f 192/188/126 191/189/126 76/72/59 60/71/59 218/190/126 229/191/126 204/192/126 207/193/126 216/194/126 209/195/126 212/196/126 233/197/126 236/198/126 235/199/126
f 227/200/127 194/201/127 197/202/127 203/203/127 67/82/61 70/81/61 219/204/127 232/205/127 189/206/127 220/207/127 228/208/127 224/209/127
f 188/210/128 195/211/128 201/212/128 208/213/128 215/214/128 75/92/63 77/91/63 200/215/128 206/216/128 222/217/128 198/218/128
f 202/219/129 78/107/65 85/106/65 221/220/129 230/221/129 210/222/129 213/223/129 225/224/129 217/225/129 190/226/129 196/227/129
f 214/228/130 226/229/130 234/230/130 193/231/130 199/232/130 205/233/130 89/113/67 91/112/67 223/234/130 231/235/130 211/236/130
f 245/237/68 246/238/68 247/239/68 244/240/68
f 244/240/68 247/239/68 242/241/69 243/242/69
f 246/238/68 237/243/68 248/244/68 247/239/68
f 247/239/68 248/244/68 241/245/69 242/241/69
f 237/243/68 238/246/68 239/247/68 248/244/68
f 248/244/68 239/247/68 240/248/69 241/245/69
