# Blender v3.0.0 OBJ File: '711.blend'
# www.blender.org
mtllib headlights711.mtl
o headlights_Plane.007
v 0.367328 0.565864 -0.239911
v 0.423550 0.666193 -0.457744
v 0.592977 0.747178 -0.621927
v 0.780288 0.654070 -0.499652
v 0.664473 0.768903 -0.632058
v 0.526507 0.565869 -0.288915
v 0.396570 0.617937 -0.352995
v 0.779662 0.675731 -0.525156
v 0.451929 0.669128 -0.469916
v 0.627937 0.524154 -0.264044
v 0.456458 0.565867 -0.267350
v 0.437739 0.667660 -0.463830
v 0.496656 0.565868 -0.279725
v 0.474233 0.671434 -0.479481
v 0.717837 0.538436 -0.321141
v 0.762414 0.593459 -0.422794
v 0.779036 0.697393 -0.550658
v 0.725759 0.750671 -0.608302
v 0.592536 0.529399 -0.252032
v 0.663924 0.518822 -0.276254
v 0.501392 0.617937 -0.363125
v 0.591189 0.617937 -0.377366
v 0.663030 0.617937 -0.398322
v 0.723653 0.619694 -0.427004
v 0.410060 0.642065 -0.405370
v 0.591850 0.665730 -0.465182
v 0.663604 0.677970 -0.487418
v 0.724706 0.685183 -0.509283
v 0.485473 0.650331 -0.414586
v 0.628432 0.757952 -0.626951
v 0.626815 0.617937 -0.387758
v 0.627433 0.671799 -0.476209
v 0.455263 0.617937 -0.358667
v 0.452286 0.646693 -0.410530
v 0.431173 0.644379 -0.407950
v 0.411893 0.565865 -0.253630
v 0.425916 0.617937 -0.355831
v 0.736394 0.561341 -0.363459
v 0.747938 0.728492 -0.584306
v 0.747230 0.634004 -0.457247
v 0.747584 0.681248 -0.515890
v 0.464728 0.670451 -0.475405
v 0.481734 0.617937 -0.361226
v 0.471330 0.648781 -0.412858
v -0.367328 0.565864 -0.239911
v -0.423550 0.666193 -0.457744
v -0.592977 0.747178 -0.621927
v -0.780288 0.654070 -0.499652
v -0.664473 0.768903 -0.632058
v -0.526507 0.565869 -0.288915
v -0.396570 0.617937 -0.352995
v -0.779662 0.675731 -0.525156
v -0.451929 0.669128 -0.469916
v -0.627937 0.524154 -0.264044
v -0.456458 0.565867 -0.267350
v -0.437739 0.667660 -0.463830
v -0.496656 0.565868 -0.279725
v -0.474233 0.671434 -0.479481
v -0.717837 0.538436 -0.321141
v -0.762414 0.593459 -0.422794
v -0.779036 0.697393 -0.550658
v -0.725759 0.750671 -0.608302
v -0.592536 0.529399 -0.252032
v -0.663924 0.518822 -0.276254
v -0.501392 0.617937 -0.363125
v -0.591189 0.617937 -0.377366
v -0.663030 0.617937 -0.398322
v -0.723653 0.619694 -0.427004
v -0.410060 0.642065 -0.405370
v -0.591850 0.665730 -0.465182
v -0.663604 0.677970 -0.487418
v -0.724706 0.685183 -0.509283
v -0.485473 0.650331 -0.414586
v -0.628432 0.757952 -0.626951
v -0.626815 0.617937 -0.387758
v -0.627433 0.671799 -0.476209
v -0.455263 0.617937 -0.358667
v -0.452286 0.646693 -0.410530
v -0.431173 0.644379 -0.407950
v -0.411893 0.565865 -0.253630
v -0.425916 0.617937 -0.355831
v -0.736394 0.561341 -0.363459
v -0.747938 0.728492 -0.584306
v -0.747230 0.634004 -0.457247
v -0.747584 0.681248 -0.515890
v -0.464728 0.670451 -0.475405
v -0.481734 0.617937 -0.361226
v -0.471330 0.648781 -0.412858
vt 0.000000 0.000000
vt 0.000000 0.000000
vt 0.000000 0.000000
vt 0.000000 0.000000
vt 0.000000 0.000000
vt 0.000000 0.000000
vt 0.000000 0.000000
vt 0.000000 0.000000
vt 0.000000 0.000000
vt 0.000000 0.000000
vt 0.000000 0.000000
vt 0.000000 0.000000
vt 0.000000 0.000000
vt 0.000000 0.000000
vt 0.000000 0.000000
vt 0.000000 0.000000
vt 0.000000 0.000000
vt 0.000000 0.000000
vt 0.000000 0.000000
vt 0.000000 0.000000
vt 0.000000 0.000000
vt 0.000000 0.000000
vt 0.000000 0.000000
vt 0.000000 0.000000
vt 0.000000 0.000000
vt 0.000000 0.000000
vt 0.000000 0.000000
vt 0.000000 0.000000
vt 0.000000 0.000000
vt 0.000000 0.000000
vt 0.000000 0.000000
vt 0.000000 0.000000
vt 0.000000 0.000000
vt 0.000000 0.000000
vt 0.000000 0.000000
vt 0.000000 0.000000
vt 0.000000 0.000000
vt 0.000000 0.000000
vt 0.000000 0.000000
vt 0.000000 0.000000
vt 0.000000 0.000000
vt 0.000000 0.000000
vt 0.000000 0.000000
vt 0.000000 0.000000
vt 0.000000 0.000000
vt 0.000000 0.000000
vt 0.000000 0.000000
vt 0.000000 0.000000
vt 0.000000 0.000000
vt 0.000000 0.000000
vt 0.000000 0.000000
vt 0.000000 0.000000
vt 0.000000 0.000000
vt 0.000000 0.000000
vt 0.000000 0.000000
vt 0.000000 0.000000
vt 0.000000 0.000000
vt 0.000000 0.000000
vt 0.000000 0.000000
vt 0.000000 0.000000
vt 0.000000 0.000000
vt 0.000000 0.000000
vt 0.000000 0.000000
vt 0.000000 0.000000
vt 0.000000 0.000000
vt 0.000000 0.000000
vt 0.000000 0.000000
vt 0.000000 0.000000
vt 0.000000 0.000000
vt 0.000000 0.000000
vt 0.000000 0.000000
vt 0.000000 0.000000
vt 0.000000 0.000000
vt 0.000000 0.000000
vt 0.000000 0.000000
vt 0.000000 0.000000
vt 0.000000 0.000000
vt 0.000000 0.000000
vt 0.000000 0.000000
vt 0.000000 0.000000
vt 0.000000 0.000000
vt 0.000000 0.000000
vt 0.000000 0.000000
vt 0.000000 0.000000
vt 0.000000 0.000000
vt 0.000000 0.000000
vt 0.000000 0.000000
vt 0.000000 0.000000
vn 0.1134 0.8271 0.5505
vn 0.1883 0.8000 0.5696
vn 0.1356 0.8347 0.5337
vn 0.0874 0.8466 0.5249
vn -0.0049 0.8610 0.5085
vn 0.0182 0.8832 0.4686
vn 0.1629 0.8167 0.5535
vn 0.2413 0.7754 0.5835
vn 0.2856 0.7541 0.5914
vn 0.1899 0.7911 0.5814
vn 0.2456 0.7615 0.5998
vn 0.2642 0.7530 0.6027
vn 0.1986 0.7996 0.5668
vn 0.0606 0.8347 0.5473
vn 0.3799 0.7147 0.5872
vn 0.4367 0.6719 0.5982
vn 0.3333 0.7260 0.6015
vn 0.3678 0.7120 0.5981
vn 0.2780 0.7668 0.5785
vn 0.2509 0.7979 0.5481
vn 0.1121 0.8331 0.5417
vn 0.1030 0.8820 0.4599
vn 0.0558 0.8869 0.4585
vn 0.0628 0.8934 0.4448
vn 0.1007 0.8875 0.4496
vn -0.0023 0.9066 0.4220
vn 0.0238 0.8960 0.4435
vn -0.0127 0.9229 0.3848
vn -0.0204 0.9441 0.3290
vn -0.0761 0.8835 0.4621
vn 0.0656 0.8553 0.5140
vn -0.0154 0.8502 0.5262
vn -0.0923 0.8628 0.4969
vn 0.0610 0.8707 0.4879
vn -0.0004 0.9069 0.4212
vn 0.0022 0.9067 0.4217
vn -0.0141 0.9362 0.3511
vn -0.0060 0.9252 0.3793
vn 0.1158 0.8480 0.5171
vn 0.1094 0.8655 0.4887
vn 0.0036 0.9060 0.4232
vn 0.0004 0.9160 0.4012
vn 0.2709 0.7621 0.5880
vn 0.2328 0.7844 0.5748
vn -0.1134 0.8271 0.5505
vn -0.0874 0.8466 0.5249
vn -0.1356 0.8347 0.5337
vn -0.1883 0.8000 0.5696
vn 0.0049 0.8610 0.5085
vn -0.1629 0.8167 0.5535
vn -0.0182 0.8832 0.4686
vn -0.2413 0.7754 0.5835
vn -0.2856 0.7541 0.5914
vn -0.2642 0.7530 0.6027
vn -0.2456 0.7615 0.5998
vn -0.1899 0.7911 0.5814
vn -0.1986 0.7996 0.5668
vn -0.0606 0.8347 0.5473
vn -0.3799 0.7147 0.5872
vn -0.3678 0.7120 0.5981
vn -0.3333 0.7260 0.6015
vn -0.4367 0.6719 0.5982
vn -0.2780 0.7668 0.5785
vn -0.1121 0.8331 0.5417
vn -0.2509 0.7979 0.5481
vn -0.1030 0.8820 0.4599
vn -0.1007 0.8875 0.4496
vn -0.0628 0.8934 0.4448
vn -0.0558 0.8869 0.4585
vn 0.0023 0.9066 0.4220
vn 0.0204 0.9441 0.3290
vn 0.0127 0.9229 0.3848
vn -0.0238 0.8960 0.4435
vn 0.0761 0.8835 0.4621
vn -0.0656 0.8553 0.5140
vn 0.0154 0.8502 0.5262
vn 0.0923 0.8628 0.4969
vn -0.0022 0.9067 0.4217
vn 0.0004 0.9069 0.4212
vn -0.0610 0.8707 0.4879
vn 0.0060 0.9252 0.3793
vn 0.0141 0.9362 0.3511
vn -0.1158 0.8480 0.5171
vn -0.1094 0.8655 0.4887
vn -0.0036 0.9060 0.4232
vn -0.0004 0.9160 0.4012
vn -0.2709 0.7621 0.5880
vn -0.2328 0.7844 0.5748
usemtl None
s 1
f 6/1/1 19/2/2 22/3/3 21/4/4
f 32/5/5 26/6/6 22/3/3 31/7/7
f 10/8/8 31/7/7 22/3/3 19/2/2
f 24/9/9 23/10/10 20/11/11 15/12/12
f 28/13/13 27/14/14 23/10/10 24/9/9
f 38/15/15 16/16/16 4/17/17 40/18/18
f 41/19/19 39/20/20 18/21/21 28/13/13
f 36/22/22 37/23/23 7/24/24 1/25/25
f 44/26/26 29/27/27 14/28/28 42/29/29
f 29/27/27 21/4/4 22/3/3 26/6/6
f 14/28/28 29/27/27 26/6/6 3/30/30
f 43/31/31 21/4/4 29/27/27 44/26/26
f 40/18/18 41/19/19 28/13/13 24/9/9
f 18/21/21 5/32/32 27/14/14 28/13/13
f 30/33/33 3/30/30 26/6/6 32/5/5
f 5/32/32 30/33/33 32/5/5 27/14/14
f 20/11/11 23/10/10 31/7/7 10/8/8
f 27/14/14 32/5/5 31/7/7 23/10/10
f 37/23/23 33/34/34 34/35/35 35/36/36
f 35/36/36 34/35/35 9/37/37 12/38/38
f 13/39/39 43/31/31 33/34/34 11/40/40
f 25/41/41 35/36/36 12/38/38 2/42/42
f 7/24/24 37/23/23 35/36/36 25/41/41
f 11/40/40 33/34/34 37/23/23 36/22/22
f 4/17/17 8/43/43 41/19/19 40/18/18
f 8/43/43 17/44/44 39/20/20 41/19/19
f 15/12/12 38/15/15 40/18/18 24/9/9
f 6/1/1 21/4/4 43/31/31 13/39/39
f 33/34/34 43/31/31 44/26/26 34/35/35
f 34/35/35 44/26/26 42/29/29 9/37/37
f 50/45/45 65/46/46 66/47/47 63/48/48
f 76/49/49 75/50/50 66/47/47 70/51/51
f 54/52/52 63/48/48 66/47/47 75/50/50
f 68/53/53 59/54/54 64/55/55 67/56/56
f 72/57/57 68/53/53 67/56/56 71/58/58
f 82/59/59 84/60/60 48/61/61 60/62/62
f 85/63/63 72/57/57 62/64/64 83/65/65
f 80/66/66 45/67/67 51/68/68 81/69/69
f 88/70/70 86/71/71 58/72/72 73/73/73
f 73/73/73 70/51/51 66/47/47 65/46/46
f 58/72/72 47/74/74 70/51/51 73/73/73
f 87/75/75 88/70/70 73/73/73 65/46/46
f 84/60/60 68/53/53 72/57/57 85/63/63
f 62/64/64 72/57/57 71/58/58 49/76/76
f 74/77/77 76/49/49 70/51/51 47/74/74
f 49/76/76 71/58/58 76/49/49 74/77/77
f 64/55/55 54/52/52 75/50/50 67/56/56
f 71/58/58 67/56/56 75/50/50 76/49/49
f 81/69/69 79/78/78 78/79/79 77/80/80
f 79/78/78 56/81/81 53/82/82 78/79/79
f 57/83/83 55/84/84 77/80/80 87/75/75
f 69/85/85 46/86/86 56/81/81 79/78/78
f 51/68/68 69/85/85 79/78/78 81/69/69
f 55/84/84 80/66/66 81/69/69 77/80/80
f 48/61/61 84/60/60 85/63/63 52/87/87
f 52/87/87 85/63/63 83/65/65 61/88/88
f 59/54/54 68/53/53 84/60/60 82/59/59
f 50/45/45 57/83/83 87/75/75 65/46/46
f 77/80/80 78/79/79 88/70/70 87/75/75
f 78/79/79 53/82/82 86/71/71 88/70/70
