# Blender v3.0.0 OBJ File: '711.blend'
# www.blender.org
mtllib RightRimCentered.mtl
o Object_Circle.001
v 0.006956 -0.040901 -0.004080
v 0.006956 -0.031099 -0.027077
v 0.006956 -0.035314 0.020286
v -0.007227 -0.097835 -0.010385
v -0.008093 -0.040901 -0.004080
v -0.008093 -0.031099 -0.027077
v -0.008093 -0.035314 0.020286
v -0.008093 -0.004065 -0.015554
v -0.008093 0.002841 0.014564
v -0.008093 0.034090 -0.021276
v -0.008093 -0.009652 -0.039921
v 0.006956 -0.009652 -0.039921
v -0.008093 0.015248 -0.037705
v 0.006956 0.015248 -0.037705
v 0.006956 0.034090 -0.021276
v -0.007227 0.037429 -0.084408
v -0.007227 -0.021249 -0.096016
v -0.007227 0.083857 -0.049640
v -0.019457 0.042035 -0.106132
v -0.007227 0.015138 -0.116011
v -0.007227 0.073351 -0.094817
v -0.019457 0.049827 -0.152649
v -0.007227 0.024664 -0.158840
v -0.007227 0.079078 -0.145672
v -0.019457 0.053848 -0.192182
v -0.007227 0.015743 -0.198690
v -0.007227 0.093886 -0.181167
v -0.007227 0.056938 -0.224635
v -0.007227 -0.000612 -0.231906
v -0.007227 0.110871 -0.203282
v -0.007227 0.060962 -0.243214
v -0.007227 -0.001253 -0.251073
v -0.007227 0.119268 -0.220129
v 0.019542 0.060962 -0.243214
v 0.019542 -0.001253 -0.251073
v 0.019542 0.119268 -0.220129
v 0.019542 0.050826 -0.188476
v 0.019542 0.002117 -0.194629
v 0.019542 0.096475 -0.170402
v 0.019542 0.136196 -0.141544
v 0.019542 0.167491 -0.103714
v 0.019542 0.170001 -0.183269
v 0.019542 0.209973 -0.134951
v -0.007227 0.170001 -0.183269
v -0.007227 0.209973 -0.134951
v -0.007227 0.157799 -0.169186
v -0.007227 0.194774 -0.124491
v -0.007227 0.219473 -0.072005
v -0.007227 0.230342 -0.015026
v -0.007227 0.192936 -0.046186
v -0.007227 0.236674 -0.078209
v -0.007227 0.248424 -0.016611
v 0.019542 0.236674 -0.078209
v 0.019542 0.248424 -0.016611
v 0.019542 0.188395 -0.059290
v 0.019542 0.197595 -0.011062
v 0.019542 0.194513 0.037938
v 0.019542 0.244487 0.045975
v 0.019542 0.179341 0.084631
v 0.019542 0.153033 0.126085
v 0.019542 0.225108 0.105615
v 0.019542 0.191507 0.158563
v -0.007227 0.225108 0.105615
v -0.007227 0.208775 0.098034
v -0.007227 0.244487 0.045975
v -0.007227 0.191507 0.158563
v -0.007227 0.177693 0.147011
v -0.007227 0.145794 0.201490
v -0.007227 0.090841 0.231701
v -0.007227 0.135408 0.186720
v 0.019542 0.145794 0.201490
v 0.019542 0.090841 0.231701
v 0.019542 0.117243 0.159694
v 0.019542 0.074219 0.183347
v 0.019542 0.026665 0.195557
v 0.019542 -0.022432 0.195557
v 0.019542 0.030102 0.247296
v 0.019542 -0.032608 0.247296
v -0.007227 0.030102 0.247296
v -0.007227 -0.032608 0.247296
v -0.007227 0.028392 0.229090
v -0.007227 0.084576 0.214665
v -0.007227 -0.029615 0.229090
v -0.007227 0.029134 0.201215
v -0.007227 0.020250 0.163796
v -0.019457 0.068000 0.186593
v -0.007227 0.102653 0.169461
v -0.019457 0.048016 0.152247
v -0.007227 0.072012 0.142465
v -0.019457 0.026978 0.110033
v -0.007227 0.054545 0.102216
v -0.007227 -0.005008 0.119287
v -0.007227 0.017935 0.089751
v -0.007227 0.072230 0.064652
v -0.007227 -0.040061 0.088913
v 0.006956 0.008429 0.038930
v 0.006956 0.029876 0.026087
v 0.006956 -0.016471 0.036714
v -0.008093 0.008429 0.038930
v -0.008093 0.029876 0.026087
v -0.008093 -0.016471 0.036714
v -0.008093 0.039678 0.003090
v 0.006956 0.039678 0.003090
v -0.007227 0.090949 0.009753
v -0.007227 0.072145 0.064741
v -0.019457 0.113033 0.007420
v -0.007227 0.114117 -0.021213
v -0.007227 0.111949 0.040701
v -0.019457 0.159681 0.000457
v -0.007227 0.157794 -0.025388
v -0.007227 0.162085 0.030433
v -0.019457 0.198522 -0.007935
v -0.007227 0.200418 0.033547
v -0.007227 0.226700 0.042867
v -0.007227 -0.081252 0.083701
v -0.007227 -0.080710 0.045032
v -0.019457 -0.097205 0.059899
v -0.007227 -0.115890 0.032338
v -0.019457 -0.130851 0.092952
v -0.007227 -0.114133 0.112752
v -0.007227 -0.150415 0.070114
v -0.019457 -0.157342 0.122572
v -0.007227 -0.130339 0.150234
v -0.007227 -0.183258 0.090127
v -0.007227 -0.178917 0.147011
v -0.007227 -0.136631 0.186720
v -0.007227 -0.209998 0.098034
v -0.007227 -0.194013 0.158563
v -0.007227 -0.148300 0.201490
v -0.007227 -0.227615 0.105615
v 0.019542 -0.194013 0.158563
v 0.019542 -0.148300 0.201490
v 0.019542 -0.227615 0.105615
v 0.019542 -0.148800 0.126085
v 0.019542 -0.113010 0.159695
v 0.019542 -0.175108 0.084631
v 0.019542 -0.190280 0.037938
v 0.019542 -0.193362 -0.011062
v 0.019542 -0.246993 0.045975
v 0.019542 -0.250931 -0.016611
v -0.007227 -0.246993 0.045975
v -0.007227 -0.250931 -0.016611
v -0.007227 -0.227923 0.042867
v -0.007227 -0.231565 -0.015026
v -0.007227 -0.220696 -0.072005
v -0.007227 -0.195998 -0.124491
v -0.007227 -0.184052 -0.077295
v -0.007227 -0.239180 -0.078209
v -0.007227 -0.212480 -0.134951
v 0.019542 -0.239180 -0.078209
v 0.019542 -0.212480 -0.134951
v 0.019542 -0.184163 -0.059290
v 0.019542 -0.163258 -0.103714
v 0.019542 -0.131963 -0.141544
v 0.019542 -0.092242 -0.170402
v 0.019542 -0.172507 -0.183269
v 0.019542 -0.121774 -0.220129
v -0.007227 -0.172507 -0.183269
v -0.007227 -0.121774 -0.220129
v -0.007227 -0.159023 -0.169186
v -0.007227 -0.112095 -0.203282
v -0.007227 -0.143239 -0.146199
v -0.007227 -0.114057 -0.121147
v -0.019457 -0.166088 -0.111524
v -0.019457 -0.129732 -0.095484
v -0.007227 -0.143396 -0.073466
v -0.019457 -0.087900 -0.073698
v -0.007227 -0.105606 -0.051171
v -0.007227 -0.067461 -0.099985
v -0.007227 -0.068662 -0.062605
v -0.007227 -0.058161 -0.224636
v -0.007227 -0.063468 -0.243214
v 0.019542 -0.063468 -0.243214
v 0.019542 -0.046593 -0.188476
v 0.019542 -0.069986 0.183347
v 0.019542 -0.093347 0.231701
v -0.007227 -0.093347 0.231701
v -0.007227 -0.085800 0.214665
vt 0.000000 0.000000
vt 0.000000 0.000000
vt 0.000000 0.000000
vt 0.000000 0.000000
vt 0.000000 0.000000
vt 0.000000 0.000000
vt 0.000000 0.000000
vt 0.000000 0.000000
vt 0.000000 0.000000
vt 0.000000 0.000000
vt 0.000000 0.000000
vt 0.000000 0.000000
vt 0.000000 0.000000
vt 0.000000 0.000000
vt 0.000000 0.000000
vt 0.000000 0.000000
vt 0.000000 0.000000
vt 0.000000 0.000000
vt 0.000000 0.000000
vt 0.000000 0.000000
vt 0.000000 0.000000
vt 0.000000 0.000000
vt 0.000000 0.000000
vt 0.000000 0.000000
vt 0.000000 0.000000
vt 0.000000 0.000000
vt 0.000000 0.000000
vt 0.000000 0.000000
vt 0.000000 0.000000
vt 0.000000 0.000000
vt 0.000000 0.000000
vt 0.000000 0.000000
vt 0.000000 0.000000
vt 0.000000 0.000000
vt 0.000000 0.000000
vt 0.000000 0.000000
vt 0.000000 0.000000
vt 0.000000 0.000000
vt 0.000000 0.000000
vt 0.000000 0.000000
vt 0.000000 0.000000
vt 0.000000 0.000000
vt 0.000000 0.000000
vt 0.000000 0.000000
vt 0.000000 0.000000
vt 0.000000 0.000000
vt 0.000000 0.000000
vt 0.000000 0.000000
vt 0.000000 0.000000
vt 0.000000 0.000000
vt 0.000000 0.000000
vt 0.000000 0.000000
vt 0.000000 0.000000
vt 0.000000 0.000000
vt 0.000000 0.000000
vt 0.000000 0.000000
vt 0.000000 0.000000
vt 0.000000 0.000000
vt 0.000000 0.000000
vt 0.000000 0.000000
vt 0.000000 0.000000
vt 0.000000 0.000000
vt 0.000000 0.000000
vt 0.000000 0.000000
vt 0.000000 0.000000
vt 0.000000 0.000000
vt 0.000000 0.000000
vt 0.000000 0.000000
vt 0.000000 0.000000
vt 0.000000 0.000000
vt 0.000000 0.000000
vt 0.000000 0.000000
vt 0.000000 0.000000
vt 0.000000 0.000000
vt 0.000000 0.000000
vt 0.000000 0.000000
vt 0.000000 0.000000
vt 0.000000 0.000000
vt 0.000000 0.000000
vt 0.000000 0.000000
vt 0.000000 0.000000
vt 0.000000 0.000000
vt 0.000000 0.000000
vt 0.000000 0.000000
vt 0.000000 0.000000
vt 0.000000 0.000000
vt 0.000000 0.000000
vt 0.000000 0.000000
vt 0.000000 0.000000
vt 0.000000 0.000000
vt 0.000000 0.000000
vt 0.000000 0.000000
vt 0.000000 0.000000
vt 0.000000 0.000000
vt 0.000000 0.000000
vt 0.000000 0.000000
vt 0.000000 0.000000
vt 0.000000 0.000000
vt 0.000000 0.000000
vt 0.000000 0.000000
vt 0.000000 0.000000
vt 0.000000 0.000000
vt 0.000000 0.000000
vt 0.000000 0.000000
vt 0.000000 0.000000
vt 0.000000 0.000000
vt 0.000000 0.000000
vt 0.000000 0.000000
vt 0.000000 0.000000
vt 0.000000 0.000000
vt 0.000000 0.000000
vt 0.000000 0.000000
vt 0.000000 0.000000
vt 0.000000 0.000000
vt 0.000000 0.000000
vt 0.000000 0.000000
vt 0.000000 0.000000
vt 0.000000 0.000000
vt 0.000000 0.000000
vt 0.000000 0.000000
vt 0.000000 0.000000
vt 0.000000 0.000000
vt 0.000000 0.000000
vt 0.000000 0.000000
vt 0.000000 0.000000
vt 0.000000 0.000000
vt 0.000000 0.000000
vt 0.000000 0.000000
vt 0.000000 0.000000
vt 0.000000 0.000000
vt 0.000000 0.000000
vt 0.000000 0.000000
vt 0.000000 0.000000
vt 0.000000 0.000000
vt 0.000000 0.000000
vt 0.000000 0.000000
vt 0.000000 0.000000
vt 0.000000 0.000000
vt 0.000000 0.000000
vt 0.000000 0.000000
vt 0.000000 0.000000
vt 0.000000 0.000000
vt 0.000000 0.000000
vt 0.000000 0.000000
vt 0.000000 0.000000
vt 0.000000 0.000000
vt 0.000000 0.000000
vt 0.000000 0.000000
vt 0.000000 0.000000
vt 0.000000 0.000000
vt 0.000000 0.000000
vt 0.000000 0.000000
vt 0.000000 0.000000
vt 0.000000 0.000000
vt 0.000000 0.000000
vt 0.000000 0.000000
vt 0.000000 0.000000
vt 0.000000 0.000000
vt 0.000000 0.000000
vt 0.000000 0.000000
vt 0.000000 0.000000
vt 0.000000 0.000000
vt 0.000000 0.000000
vt 0.000000 0.000000
vt 0.000000 0.000000
vt 0.000000 0.000000
vt 0.000000 0.000000
vt 0.000000 0.000000
vt 0.000000 0.000000
vt 0.000000 0.000000
vt 0.000000 0.000000
vt 0.000000 0.000000
vt 0.000000 0.000000
vt 0.000000 0.000000
vt 0.000000 0.000000
vt 0.000000 0.000000
vt 0.000000 0.000000
vt 0.000000 0.000000
vn -0.8684 -0.4939 -0.0422
vn -0.6437 -0.7622 -0.0678
vn -0.6437 -0.5768 -0.5029
vn -0.8721 -0.3696 -0.3205
vn -0.9795 0.1562 0.1274
vn -0.9836 0.1791 0.0210
vn -0.8721 -0.4190 0.2525
vn -0.6437 -0.6565 0.3931
vn -0.9795 0.1695 -0.1092
vn -1.0000 0.0000 0.0000
vn -0.6437 -0.1710 -0.7459
vn -0.6437 0.7622 0.0678
vn -0.6437 0.6565 -0.3931
vn -0.6437 0.3000 -0.7040
vn -0.8684 -0.1125 -0.4828
vn -0.8721 0.1906 -0.4506
vn -0.8684 0.4244 -0.2562
vn -0.9795 -0.0729 0.1880
vn -0.9836 0.0353 0.1768
vn -0.9836 -0.1572 0.0882
vn -0.9974 -0.0224 0.0678
vn -0.9609 -0.2745 0.0345
vn -0.9763 0.1744 0.1281
vn -0.9996 -0.0193 0.0193
vn -0.9237 -0.3824 -0.0217
vn -0.9392 0.3371 0.0646
vn -0.9984 -0.0009 -0.0560
vn -0.9753 -0.1981 -0.0974
vn -0.9696 0.2386 -0.0539
vn -0.9991 -0.0231 -0.0367
vn -0.9972 0.0113 -0.0733
vn -0.9979 0.0496 -0.0422
vn -0.6800 -0.1823 0.7102
vn -0.6800 0.0000 0.7332
vn -0.6800 -0.3532 0.6425
vn -0.6800 -0.5019 0.5345
vn -0.6800 -0.6191 0.3929
vn -0.9991 0.0277 -0.0333
vn -0.6800 -0.6973 0.2266
vn -0.9972 0.0732 -0.0119
vn -0.6800 -0.7318 0.0460
vn -0.9753 0.0315 -0.2185
vn -0.9984 0.0530 -0.0182
vn -0.6800 -0.7202 -0.1374
vn -0.6800 -0.6634 -0.3122
vn -0.6800 -0.5650 -0.4674
vn -0.9979 0.0555 0.0342
vn -0.9991 0.0402 0.0161
vn -0.6800 -0.4310 -0.5932
vn -0.6800 -0.2699 -0.6818
vn -0.9972 0.0339 0.0659
vn -0.6800 -0.0919 -0.7275
vn -0.6800 0.0919 -0.7275
vn -0.9979 -0.0154 0.0633
vn -0.9984 0.0337 0.0448
vn -0.9696 -0.1614 0.1838
vn -0.9392 -0.3107 0.1459
vn -0.9996 0.0043 -0.0270
vn -0.9753 0.2176 -0.0376
vn -0.9237 0.3221 -0.2071
vn -0.9974 -0.0218 -0.0680
vn -0.9609 0.2018 -0.1893
vn -0.9763 -0.2163 -0.0012
vn -0.9795 -0.0515 -0.1949
vn -0.9766 -0.1273 -0.1733
vn -0.9836 0.0754 -0.1638
vn -0.8684 0.3748 0.3245
vn -0.8721 0.1107 0.4765
vn -0.8684 -0.1928 0.4567
vn -0.6437 0.5768 0.5029
vn -0.6437 0.1710 0.7459
vn -0.6437 -0.3000 0.7040
vn -0.8721 0.4874 0.0420
vn -0.9795 -0.2012 -0.0113
vn -0.9974 -0.0714 -0.0003
vn -0.9609 -0.1176 -0.2504
vn -0.9832 -0.1507 0.1023
vn -0.9763 -0.0678 0.2053
vn -0.9996 -0.0244 -0.0124
vn -0.9237 -0.0975 -0.3704
vn -0.9392 0.0428 0.3406
vn -0.9696 0.1249 0.2102
vn -0.9974 0.0580 -0.0417
vn -0.9609 0.2424 0.1335
vn -0.9763 -0.0657 -0.2061
vn -0.9996 0.0270 -0.0042
vn -0.9237 0.2965 0.2423
vn -0.9392 -0.2348 -0.2504
vn -0.9984 -0.0322 0.0459
vn -0.9753 0.1030 0.1953
vn -0.9696 -0.2247 -0.0967
vn -0.9991 -0.0029 0.0432
vn -0.9972 -0.0522 0.0526
vn -0.9979 -0.0649 0.0049
vn -0.6800 0.5650 -0.4674
vn -0.6800 0.4310 -0.5932
vn -0.6800 0.6634 -0.3122
vn -0.6800 0.7202 -0.1374
vn -0.6800 0.7318 0.0460
vn -0.9991 -0.0420 0.0106
vn -0.6800 0.6973 0.2266
vn -0.9972 -0.0662 -0.0334
vn -0.6800 0.6191 0.3929
vn -0.9753 -0.1539 0.1583
vn -0.9984 -0.0536 -0.0164
vn -0.6800 0.5019 0.5345
vn -0.6800 0.3532 0.6425
vn -0.9979 -0.0248 -0.0602
vn -0.9696 0.0225 -0.2436
vn -0.9392 0.1656 -0.3007
vn -0.9996 0.0124 0.0244
vn -0.9237 -0.1388 0.3569
vn -0.9974 0.0576 0.0422
vn -0.9609 -0.0520 0.2718
vn -0.9763 0.1757 -0.1262
vn -0.6800 0.1823 0.7102
vn -0.6800 0.2699 -0.6818
usemtl None
s 1
f 1/1/1 5/2/2 6/3/3 2/4/4
f 1/1/1 2/4/4 170/5/5 4/6/6
f 3/7/7 7/8/8 5/2/2 1/1/1
f 3/7/7 1/1/1 4/6/6 116/9/9
f 6/3/3 5/2/2 8/10/10 11/11/11
f 5/2/2 7/8/8 9/12/10 8/10/10
f 8/10/10 9/12/10 102/13/12 10/14/13
f 11/11/11 8/10/10 10/14/13 13/15/14
f 2/4/4 6/3/3 11/11/11 12/16/15
f 12/16/15 11/11/11 13/15/14 14/17/16
f 14/17/16 13/15/14 10/14/13 15/18/17
f 12/16/15 14/17/16 16/19/18 17/20/19
f 14/17/16 15/18/17 18/21/20 16/19/18
f 16/19/18 19/22/21 20/23/22 17/20/19
f 18/21/20 21/24/23 19/22/21 16/19/18
f 19/22/21 22/25/24 23/26/25 20/23/22
f 21/24/23 24/27/26 22/25/24 19/22/21
f 22/25/24 25/28/27 26/29/28 23/26/25
f 24/27/26 27/30/29 25/28/27 22/25/24
f 29/31/30 26/29/28 25/28/27 28/32/31
f 28/32/31 25/28/27 27/30/29 30/33/32
f 28/32/31 31/34/33 32/35/34 29/31/30
f 30/33/32 33/36/35 31/34/33 28/32/31
f 31/34/33 32/35/34 35/37/34 34/38/33
f 33/36/35 31/34/33 34/38/33 36/39/35
f 34/38/33 35/37/34 38/40/10 37/41/10
f 36/39/35 34/38/33 37/41/10 39/42/10
f 42/43/36 36/39/35 39/42/10 40/44/10
f 43/45/37 42/43/36 40/44/10 41/46/10
f 45/47/37 44/48/36 42/43/36 43/45/37
f 44/48/36 33/36/35 36/39/35 42/43/36
f 47/49/10 45/47/37 44/48/36 46/50/10
f 46/50/10 44/48/36 33/36/35 30/33/32
f 48/51/38 51/52/39 45/47/37 47/49/10
f 49/53/40 52/54/41 51/52/39 48/51/38
f 48/51/38 50/55/42 112/56/43 49/53/40
f 51/52/39 45/47/37 43/45/37 53/57/39
f 52/54/41 51/52/39 53/57/39 54/58/41
f 53/57/39 43/45/37 41/46/10 55/59/10
f 54/58/41 53/57/39 55/59/10 56/60/10
f 58/61/44 54/58/41 56/60/10 57/62/10
f 61/63/45 58/61/44 57/62/10 59/64/10
f 62/65/46 61/63/45 59/64/10 60/66/10
f 66/67/46 63/68/45 61/63/45 62/65/46
f 63/68/45 65/69/44 58/61/44 61/63/45
f 67/70/10 66/67/46 63/68/45 64/71/10
f 64/71/10 63/68/45 65/69/44 114/72/47
f 70/73/48 68/74/49 66/67/46 67/70/10
f 68/74/49 66/67/46 62/65/46 71/75/49
f 69/76/50 68/74/49 71/75/49 72/77/50
f 82/78/51 69/76/50 68/74/49 70/73/48
f 71/75/49 62/65/46 60/66/10 73/79/10
f 72/77/50 71/75/49 73/79/10 74/80/10
f 77/81/52 72/77/50 74/80/10 75/82/10
f 78/83/53 77/81/52 75/82/10 76/84/10
f 79/85/52 69/76/50 72/77/50 77/81/52
f 80/86/53 79/85/52 77/81/52 78/83/53
f 81/87/54 79/85/52 69/76/50 82/78/51
f 83/88/10 80/86/53 79/85/52 81/87/54
f 82/78/51 86/89/55 84/90/56 81/87/54
f 85/91/57 84/90/56 86/89/55 88/92/58
f 70/73/48 87/93/59 86/89/55 82/78/51
f 88/92/58 86/89/55 87/93/59 89/94/60
f 90/95/61 88/92/58 89/94/60 91/96/62
f 92/97/63 85/91/57 88/92/58 90/95/61
f 93/98/64 90/95/61 91/96/62 94/99/65
f 95/100/66 92/97/63 90/95/61 93/98/64
f 97/101/67 96/102/68 93/98/64 94/99/65
f 96/102/68 98/103/69 95/100/66 93/98/64
f 97/101/67 100/104/70 99/105/71 96/102/68
f 96/102/68 99/105/71 101/106/72 98/103/69
f 9/12/10 99/105/71 100/104/70 102/13/12
f 7/8/8 101/106/72 99/105/71 9/12/10
f 98/103/69 101/106/72 7/8/8 3/7/7
f 103/107/73 102/13/12 100/104/70 97/101/67
f 15/18/17 10/14/13 102/13/12 103/107/73
f 15/18/17 103/107/73 104/108/74 18/21/20
f 97/101/67 94/99/65 104/108/74 103/107/73
f 104/108/74 106/109/75 107/110/76 18/21/20
f 105/111/77 108/112/78 106/109/75 104/108/74
f 106/109/75 109/113/79 110/114/80 107/110/76
f 108/112/78 111/115/81 109/113/79 106/109/75
f 109/113/79 112/56/43 50/55/42 110/114/80
f 111/115/81 113/116/82 112/56/43 109/113/79
f 49/53/40 112/56/43 113/116/82 114/72/47
f 114/72/47 65/69/44 52/54/41 49/53/40
f 98/103/69 3/7/7 116/9/9 95/100/66
f 116/9/9 117/117/83 115/118/84 95/100/66
f 4/6/6 118/119/85 117/117/83 116/9/9
f 117/117/83 119/120/86 120/121/87 115/118/84
f 118/119/85 121/122/88 119/120/86 117/117/83
f 119/120/86 122/123/89 123/124/90 120/121/87
f 121/122/88 124/125/91 122/123/89 119/120/86
f 126/126/92 123/124/90 122/123/89 125/127/93
f 125/127/93 122/123/89 124/125/91 127/128/94
f 125/127/93 128/129/95 129/130/96 126/126/92
f 127/128/94 130/131/97 128/129/95 125/127/93
f 128/129/95 129/130/96 132/132/96 131/133/95
f 130/131/97 128/129/95 131/133/95 133/134/97
f 131/133/95 132/132/96 135/135/10 134/136/10
f 133/134/97 131/133/95 134/136/10 136/137/10
f 139/138/98 133/134/97 136/137/10 137/139/10
f 140/140/99 139/138/98 137/139/10 138/141/10
f 142/142/99 141/143/98 139/138/98 140/140/99
f 141/143/98 130/131/97 133/134/97 139/138/98
f 144/144/10 142/142/99 141/143/98 143/145/10
f 143/145/10 141/143/98 130/131/97 127/128/94
f 145/146/100 148/147/101 142/142/99 144/144/10
f 146/148/102 149/149/103 148/147/101 145/146/100
f 145/146/100 147/150/104 164/151/105 146/148/102
f 148/147/101 142/142/99 140/140/99 150/152/101
f 149/149/103 148/147/101 150/152/101 151/153/103
f 150/152/101 140/140/99 138/141/10 152/154/10
f 151/153/103 150/152/101 152/154/10 153/155/10
f 156/156/106 151/153/103 153/155/10 154/157/10
f 157/158/107 156/156/106 154/157/10 155/159/10
f 158/160/106 149/149/103 151/153/103 156/156/106
f 159/161/107 158/160/106 156/156/106 157/158/107
f 160/162/108 158/160/106 149/149/103 146/148/102
f 161/163/10 159/161/107 158/160/106 160/162/108
f 146/148/102 164/151/105 162/164/109 160/162/108
f 163/165/110 162/164/109 164/151/105 165/166/111
f 165/166/111 164/151/105 147/150/104 166/167/112
f 167/168/113 165/166/111 166/167/112 168/169/114
f 169/170/115 163/165/110 165/166/111 167/168/113
f 170/5/5 167/168/113 168/169/114 4/6/6
f 17/20/19 169/170/115 167/168/113 170/5/5
f 2/4/4 12/16/15 17/20/19 170/5/5
f 171/171/10 172/172/116 159/161/107 161/163/10
f 29/31/30 32/35/34 172/172/116 171/171/10
f 172/172/116 159/161/107 157/158/107 173/173/116
f 32/35/34 172/172/116 173/173/116 35/37/34
f 173/173/116 157/158/107 155/159/10 174/174/10
f 35/37/34 173/173/116 174/174/10 38/40/10
f 132/132/96 176/175/117 175/176/10 135/135/10
f 176/175/117 78/83/53 76/84/10 175/176/10
f 177/177/117 80/86/53 78/83/53 176/175/117
f 129/130/96 177/177/117 176/175/117 132/132/96
f 178/178/10 177/177/117 80/86/53 83/88/10
f 126/126/92 129/130/96 177/177/117 178/178/10
f 65/69/44 52/54/41 54/58/41 58/61/44
