# Blender v3.0.0 OBJ File: '711.blend'
# www.blender.org
mtllib taillights711.mtl
o taillights_Plane.012
v 0.795835 0.753890 -3.880954
v 0.804901 0.664187 -3.942754
v 0.804490 0.729813 -3.887490
v 0.804766 0.635050 -3.967052
v 0.733290 0.781560 -3.932380
v 0.628120 0.807551 -4.013447
v 0.529598 0.822044 -4.074939
v 0.739108 0.635409 -4.076159
v 0.587903 0.635187 -4.224616
v 0.443283 0.696538 -4.263315
v 0.437536 0.662735 -4.284177
v 0.738939 0.662738 -4.059375
v 0.710019 0.729709 -4.054029
v 0.662622 0.729709 -4.100265
v 0.687962 0.729709 -4.078206
v 0.687962 0.696791 -4.102863
v 0.664112 0.696791 -4.123655
v 0.712434 0.696791 -4.076038
v 0.741090 0.696791 -4.039980
v 0.587903 0.662738 -4.208261
v 0.713109 0.662738 -4.095123
v 0.664708 0.662738 -4.142973
v 0.687962 0.662738 -4.122687
v 0.589268 0.728538 -4.163496
v 0.741090 0.729709 -4.015324
v 0.707880 0.753890 -4.033401
v 0.657435 0.753890 -4.081752
v 0.687013 0.753890 -4.056107
v 0.587757 0.753890 -4.140981
v 0.739846 0.753890 -3.993739
v 0.705336 0.761735 -4.026872
v 0.650544 0.761735 -4.078279
v 0.685488 0.761735 -4.048222
v 0.585020 0.761738 -4.133330
v 0.738188 0.761735 -3.986333
v 0.694950 0.777265 -4.017582
v 0.634409 0.777231 -4.071611
v 0.676621 0.777261 -4.036237
v 0.573655 0.777154 -4.120924
v 0.723723 0.777269 -3.971704
v 0.455666 0.761903 -4.206706
v 0.458180 0.776193 -4.190042
v 0.467054 0.828545 -4.100193
v 0.779361 0.765023 -3.886728
v 0.804597 0.696859 -3.915997
v 0.692114 0.797108 -3.969309
v 0.584222 0.814252 -4.042211
v 0.713996 0.635187 -4.110505
v 0.687962 0.635187 -4.139042
v 0.664708 0.635187 -4.159328
v 0.432787 0.635187 -4.300571
v 0.450391 0.730684 -4.236348
v 0.454313 0.754120 -4.214639
v 0.589351 0.696791 -4.187205
v 0.531783 0.821732 -4.073630
v -0.795835 0.753890 -3.880954
v -0.804901 0.664187 -3.942754
v -0.804490 0.729813 -3.887490
v -0.804766 0.635050 -3.967052
v -0.733290 0.781560 -3.932380
v -0.628120 0.807551 -4.013447
v -0.529598 0.822044 -4.074939
v -0.739108 0.635409 -4.076159
v -0.587903 0.635187 -4.224616
v -0.443283 0.696538 -4.263315
v -0.437536 0.662735 -4.284177
v -0.738939 0.662738 -4.059375
v -0.710019 0.729709 -4.054029
v -0.662622 0.729709 -4.100265
v -0.687962 0.729709 -4.078206
v -0.687962 0.696791 -4.102863
v -0.664112 0.696791 -4.123655
v -0.712434 0.696791 -4.076038
v -0.741090 0.696791 -4.039980
v -0.587903 0.662738 -4.208261
v -0.713109 0.662738 -4.095123
v -0.664708 0.662738 -4.142973
v -0.687962 0.662738 -4.122687
v -0.589268 0.728538 -4.163496
v -0.741090 0.729709 -4.015324
v -0.707880 0.753890 -4.033401
v -0.657435 0.753890 -4.081752
v -0.687013 0.753890 -4.056107
v -0.587757 0.753890 -4.140981
v -0.739846 0.753890 -3.993739
v -0.705336 0.761735 -4.026872
v -0.650544 0.761735 -4.078279
v -0.685488 0.761735 -4.048222
v -0.585020 0.761738 -4.133330
v -0.738188 0.761735 -3.986333
v -0.694950 0.777265 -4.017582
v -0.634409 0.777231 -4.071611
v -0.676621 0.777261 -4.036237
v -0.573655 0.777154 -4.120924
v -0.723723 0.777269 -3.971704
v -0.455666 0.761903 -4.206706
v -0.458180 0.776193 -4.190042
v -0.467054 0.828545 -4.100193
v -0.779361 0.765023 -3.886728
v -0.804597 0.696859 -3.915997
v -0.692114 0.797108 -3.969309
v -0.584222 0.814252 -4.042211
v -0.713996 0.635187 -4.110505
v -0.687962 0.635187 -4.139042
v -0.664708 0.635187 -4.159328
v -0.432787 0.635187 -4.300571
v -0.450391 0.730684 -4.236348
v -0.454313 0.754120 -4.214639
v -0.589351 0.696791 -4.187205
v -0.531783 0.821732 -4.073630
vt 0.000000 0.000000
vt 0.000000 0.000000
vt 0.000000 0.000000
vt 0.000000 0.000000
vt 0.000000 0.000000
vt 0.000000 0.000000
vt 0.000000 0.000000
vt 0.000000 0.000000
vt 0.000000 0.000000
vt 0.000000 0.000000
vt 0.000000 0.000000
vt 0.000000 0.000000
vt 0.000000 0.000000
vt 0.000000 0.000000
vt 0.000000 0.000000
vt 0.000000 0.000000
vt 0.000000 0.000000
vt 0.000000 0.000000
vt 0.000000 0.000000
vt 0.000000 0.000000
vt 0.000000 0.000000
vt 0.000000 0.000000
vt 0.000000 0.000000
vt 0.000000 0.000000
vt 0.000000 0.000000
vt 0.000000 0.000000
vt 0.000000 0.000000
vt 0.000000 0.000000
vt 0.000000 0.000000
vt 0.000000 0.000000
vt 0.000000 0.000000
vt 0.000000 0.000000
vt 0.000000 0.000000
vt 0.000000 0.000000
vt 0.000000 0.000000
vt 0.000000 0.000000
vt 0.000000 0.000000
vt 0.000000 0.000000
vt 0.000000 0.000000
vt 0.000000 0.000000
vt 0.000000 0.000000
vt 0.000000 0.000000
vt 0.000000 0.000000
vt 0.000000 0.000000
vt 0.000000 0.000000
vt 0.000000 0.000000
vt 0.000000 0.000000
vt 0.000000 0.000000
vt 0.000000 0.000000
vt 0.000000 0.000000
vt 0.000000 0.000000
vt 0.000000 0.000000
vt 0.000000 0.000000
vt 0.000000 0.000000
vt 0.000000 0.000000
vt 0.000000 0.000000
vt 0.000000 0.000000
vt 0.000000 0.000000
vt 0.000000 0.000000
vt 0.000000 0.000000
vt 0.000000 0.000000
vt 0.000000 0.000000
vt 0.000000 0.000000
vt 0.000000 0.000000
vt 0.000000 0.000000
vt 0.000000 0.000000
vt 0.000000 0.000000
vt 0.000000 0.000000
vt 0.000000 0.000000
vt 0.000000 0.000000
vt 0.000000 0.000000
vt 0.000000 0.000000
vt 0.000000 0.000000
vt 0.000000 0.000000
vt 0.000000 0.000000
vt 0.000000 0.000000
vt 0.000000 0.000000
vt 0.000000 0.000000
vt 0.000000 0.000000
vt 0.000000 0.000000
vt 0.000000 0.000000
vt 0.000000 0.000000
vt 0.000000 0.000000
vt 0.000000 0.000000
vt 0.000000 0.000000
vt 0.000000 0.000000
vt 0.000000 0.000000
vt 0.000000 0.000000
vt 0.000000 0.000000
vt 0.000000 0.000000
vt 0.000000 0.000000
vt 0.000000 0.000000
vt 0.000000 0.000000
vt 0.000000 0.000000
vt 0.000000 0.000000
vt 0.000000 0.000000
vt 0.000000 0.000000
vt 0.000000 0.000000
vt 0.000000 0.000000
vt 0.000000 0.000000
vt 0.000000 0.000000
vt 0.000000 0.000000
vt 0.000000 0.000000
vt 0.000000 0.000000
vt 0.000000 0.000000
vt 0.000000 0.000000
vt 0.000000 0.000000
vt 0.000000 0.000000
vt 0.000000 0.000000
vt 0.000000 0.000000
vn 0.4797 0.4329 -0.7632
vn 0.3991 0.4428 -0.8029
vn 0.4024 0.4449 -0.8001
vn 0.4992 0.4305 -0.7519
vn 0.7789 0.3417 -0.5258
vn 0.7153 0.3597 -0.5991
vn 0.7242 0.3482 -0.5952
vn 0.7914 0.3237 -0.5185
vn 0.6338 0.3948 -0.6651
vn 0.5940 0.4106 -0.6917
vn 0.5961 0.4069 -0.6922
vn 0.6449 0.3873 -0.6588
vn 0.5828 0.4493 -0.6771
vn 0.6312 0.4288 -0.6463
vn 0.7062 0.3865 -0.5931
vn 0.7859 0.3489 -0.5104
vn 0.8100 0.3453 -0.4740
vn 0.8322 0.3081 -0.4609
vn 0.8400 0.3270 -0.4329
vn 0.4033 0.4800 -0.7790
vn 0.4934 0.4721 -0.7305
vn 0.5979 0.5177 -0.6118
vn 0.6645 0.4843 -0.5690
vn 0.5491 0.5393 -0.6385
vn 0.7617 0.4275 -0.4868
vn 0.8267 0.3824 -0.4127
vn 0.6214 0.5741 -0.5331
vn 0.7134 0.5377 -0.4494
vn 0.5556 0.6062 -0.5690
vn 0.5057 0.6300 -0.5893
vn 0.3731 0.6339 -0.6774
vn 0.4417 0.6375 -0.6312
vn 0.4697 0.5565 -0.6853
vn 0.3894 0.5622 -0.7295
vn 0.7719 0.5118 -0.3771
vn 0.4656 0.6930 -0.5503
vn 0.5178 0.6677 -0.5347
vn 0.5713 0.6644 -0.4818
vn 0.6089 0.7079 -0.3579
vn 0.6510 0.6951 -0.3050
vn 0.3591 0.6853 -0.6336
vn 0.4129 0.6978 -0.5852
vn 0.4085 0.7770 -0.4789
vn 0.4387 0.7771 -0.4512
vn 0.4788 0.7853 -0.3925
vn 0.5271 0.7998 -0.2870
vn 0.3353 0.7429 -0.5793
vn 0.3665 0.7672 -0.5263
vn 0.5376 0.8056 -0.2489
vn 0.4536 0.8414 -0.2936
vn 0.3655 0.8495 -0.3806
vn 0.3644 0.8293 -0.4236
vn 0.3723 0.8193 -0.4360
vn 0.2931 0.8117 -0.5052
vn 0.3278 0.8150 -0.4777
vn -0.4797 0.4329 -0.7632
vn -0.4992 0.4305 -0.7519
vn -0.4024 0.4449 -0.8001
vn -0.3991 0.4428 -0.8029
vn -0.7789 0.3417 -0.5258
vn -0.7914 0.3237 -0.5185
vn -0.7242 0.3482 -0.5952
vn -0.7153 0.3597 -0.5991
vn -0.6338 0.3948 -0.6651
vn -0.6449 0.3873 -0.6588
vn -0.5961 0.4069 -0.6922
vn -0.5940 0.4106 -0.6917
vn -0.6312 0.4288 -0.6463
vn -0.5828 0.4493 -0.6771
vn -0.7859 0.3489 -0.5104
vn -0.7063 0.3865 -0.5931
vn -0.8100 0.3453 -0.4740
vn -0.8322 0.3081 -0.4609
vn -0.8400 0.3270 -0.4329
vn -0.4033 0.4800 -0.7790
vn -0.4934 0.4721 -0.7305
vn -0.6645 0.4843 -0.5690
vn -0.5979 0.5177 -0.6118
vn -0.5491 0.5393 -0.6385
vn -0.7617 0.4275 -0.4868
vn -0.8267 0.3824 -0.4127
vn -0.7134 0.5377 -0.4494
vn -0.6214 0.5741 -0.5331
vn -0.5556 0.6062 -0.5690
vn -0.5057 0.6300 -0.5893
vn -0.3731 0.6339 -0.6774
vn -0.3894 0.5622 -0.7295
vn -0.4697 0.5565 -0.6853
vn -0.4417 0.6375 -0.6312
vn -0.7719 0.5118 -0.3771
vn -0.5178 0.6677 -0.5347
vn -0.4656 0.6930 -0.5503
vn -0.6089 0.7079 -0.3579
vn -0.5713 0.6644 -0.4818
vn -0.6510 0.6951 -0.3050
vn -0.3591 0.6853 -0.6336
vn -0.4129 0.6978 -0.5852
vn -0.4387 0.7771 -0.4512
vn -0.4085 0.7770 -0.4789
vn -0.5271 0.7998 -0.2869
vn -0.4788 0.7853 -0.3925
vn -0.3353 0.7429 -0.5793
vn -0.3665 0.7672 -0.5263
vn -0.5376 0.8056 -0.2489
vn -0.4536 0.8414 -0.2936
vn -0.3655 0.8495 -0.3806
vn -0.3644 0.8293 -0.4236
vn -0.3723 0.8193 -0.4360
vn -0.3278 0.8150 -0.4777
vn -0.2931 0.8117 -0.5052
usemtl None
s 1
f 9/1/1 51/2/2 11/3/3 20/4/4
f 8/5/5 48/6/6 21/7/7 12/8/8
f 49/9/9 50/10/10 22/11/11 23/12/12
f 48/6/6 49/9/9 23/12/12 21/7/7
f 23/12/12 22/11/11 17/13/13 16/14/14
f 12/8/8 21/7/7 18/15/15 19/16/16
f 4/17/17 8/5/5 12/8/8 2/18/18
f 21/7/7 23/12/12 16/14/14 18/15/15
f 2/18/18 12/8/8 19/16/16 45/19/19
f 10/20/20 54/21/21 20/4/4 11/3/3
f 18/15/15 16/14/14 15/22/22 13/23/23
f 16/14/14 17/13/13 14/24/24 15/22/22
f 19/16/16 18/15/15 13/23/23 25/25/25
f 45/19/19 19/16/16 25/25/25 3/26/26
f 25/25/25 13/23/23 26/27/27 30/28/28
f 13/23/23 15/22/22 28/29/29 26/27/27
f 15/22/22 14/24/24 27/30/30 28/29/29
f 53/31/31 29/32/32 24/33/33 52/34/34
f 3/26/26 25/25/25 30/28/28 1/35/35
f 28/29/29 27/30/30 32/36/36 33/37/37
f 30/28/28 26/27/27 31/38/38 35/39/39
f 26/27/27 28/29/29 33/37/37 31/38/38
f 1/35/35 30/28/28 35/39/39 44/40/40
f 41/41/41 34/42/42 29/32/32 53/31/31
f 33/37/37 32/36/36 37/43/43 38/44/44
f 35/39/39 31/38/38 36/45/45 40/46/46
f 31/38/38 33/37/37 38/44/44 36/45/45
f 42/47/47 39/48/48 34/42/42 41/41/41
f 44/40/40 35/39/39 40/46/46 5/49/49
f 46/50/50 5/49/49 40/46/46 36/45/45
f 6/51/51 46/50/50 36/45/45 38/44/44
f 47/52/52 6/51/51 38/44/44 37/43/43
f 55/53/53 47/52/52 37/43/43 39/48/48
f 54/21/21 10/20/20 52/34/34 24/33/33
f 39/48/48 42/47/47 43/54/54 7/55/55
f 7/55/55 55/53/53 39/48/48
f 32/36/36 34/42/42 39/48/48 37/43/43
f 27/30/30 29/32/32 34/42/42 32/36/36
f 14/24/24 24/33/33 29/32/32 27/30/30
f 17/13/13 54/21/21 24/33/33 14/24/24
f 22/11/11 20/4/4 54/21/21 17/13/13
f 50/10/10 9/1/1 20/4/4 22/11/11
f 64/56/56 75/57/57 66/58/58 106/59/59
f 63/60/60 67/61/61 76/62/62 103/63/63
f 104/64/64 78/65/65 77/66/66 105/67/67
f 103/63/63 76/62/62 78/65/65 104/64/64
f 78/65/65 71/68/68 72/69/69 77/66/66
f 67/61/61 74/70/70 73/71/71 76/62/62
f 59/72/72 57/73/73 67/61/61 63/60/60
f 76/62/62 73/71/71 71/68/68 78/65/65
f 57/73/73 100/74/74 74/70/70 67/61/61
f 65/75/75 66/58/58 75/57/57 109/76/76
f 73/71/71 68/77/77 70/78/78 71/68/68
f 71/68/68 70/78/78 69/79/79 72/69/69
f 74/70/70 80/80/80 68/77/77 73/71/71
f 100/74/74 58/81/81 80/80/80 74/70/70
f 80/80/80 85/82/82 81/83/83 68/77/77
f 68/77/77 81/83/83 83/84/84 70/78/78
f 70/78/78 83/84/84 82/85/85 69/79/79
f 108/86/86 107/87/87 79/88/88 84/89/89
f 58/81/81 56/90/90 85/82/82 80/80/80
f 83/84/84 88/91/91 87/92/92 82/85/85
f 85/82/82 90/93/93 86/94/94 81/83/83
f 81/83/83 86/94/94 88/91/91 83/84/84
f 56/90/90 99/95/95 90/93/93 85/82/82
f 96/96/96 108/86/86 84/89/89 89/97/97
f 88/91/91 93/98/98 92/99/99 87/92/92
f 90/93/93 95/100/100 91/101/101 86/94/94
f 86/94/94 91/101/101 93/98/98 88/91/91
f 97/102/102 96/96/96 89/97/97 94/103/103
f 99/95/95 60/104/104 95/100/100 90/93/93
f 101/105/105 91/101/101 95/100/100 60/104/104
f 61/106/106 93/98/98 91/101/101 101/105/105
f 102/107/107 92/99/99 93/98/98 61/106/106
f 110/108/108 94/103/103 92/99/99 102/107/107
f 109/76/76 79/88/88 107/87/87 65/75/75
f 94/103/103 62/109/109 98/110/110 97/102/102
f 62/109/109 94/103/103 110/108/108
f 87/92/92 92/99/99 94/103/103 89/97/97
f 82/85/85 87/92/92 89/97/97 84/89/89
f 69/79/79 82/85/85 84/89/89 79/88/88
f 72/69/69 69/79/79 79/88/88 109/76/76
f 77/66/66 72/69/69 109/76/76 75/57/57
f 105/67/67 77/66/66 75/57/57 64/56/56
