# Blender v3.0.0 OBJ File: '711.blend'
# www.blender.org
mtllib tailpipes711.mtl
o body.001_Plane.001
v 0.041640 0.244736 -4.392411
v 0.018704 0.252185 -4.392179
v 0.004529 0.271686 -4.391573
v 0.004529 0.295791 -4.390824
v 0.018704 0.315292 -4.390219
v 0.041640 0.322740 -4.389987
v 0.064576 0.315292 -4.390219
v 0.078751 0.295791 -4.390824
v 0.078751 0.271686 -4.391573
v 0.064576 0.252185 -4.392179
v 0.041640 0.250658 -4.392227
v 0.022187 0.256976 -4.392030
v 0.010164 0.273516 -4.391517
v 0.010164 0.293960 -4.390881
v 0.022187 0.310500 -4.390368
v 0.041640 0.316818 -4.390171
v 0.061093 0.310500 -4.390368
v 0.073116 0.293960 -4.390881
v 0.073116 0.273516 -4.391517
v 0.061093 0.256976 -4.392030
v 0.041640 0.233725 -4.038009
v 0.018704 0.241174 -4.037777
v 0.004529 0.260675 -4.037171
v 0.004529 0.284779 -4.036422
v 0.018704 0.304280 -4.035816
v 0.041640 0.311729 -4.035585
v 0.064576 0.304280 -4.035816
v 0.078751 0.284779 -4.036422
v 0.078751 0.260675 -4.037171
v 0.064576 0.241174 -4.037777
v -0.041640 0.244736 -4.392411
v -0.018704 0.252185 -4.392179
v -0.004529 0.271686 -4.391573
v -0.004529 0.295791 -4.390824
v -0.018704 0.315292 -4.390219
v -0.041640 0.322740 -4.389987
v -0.064576 0.315292 -4.390219
v -0.078751 0.295791 -4.390824
v -0.078751 0.271686 -4.391573
v -0.064576 0.252185 -4.392179
v -0.041640 0.250658 -4.392227
v -0.022187 0.256976 -4.392030
v -0.010164 0.273516 -4.391517
v -0.010164 0.293960 -4.390881
v -0.022187 0.310500 -4.390368
v -0.041640 0.316818 -4.390171
v -0.061093 0.310500 -4.390368
v -0.073116 0.293960 -4.390881
v -0.073116 0.273516 -4.391517
v -0.061093 0.256976 -4.392030
v -0.041640 0.233725 -4.038009
v -0.018704 0.241174 -4.037777
v -0.004529 0.260675 -4.037171
v -0.004529 0.284779 -4.036422
v -0.018704 0.304280 -4.035816
v -0.041640 0.311729 -4.035585
v -0.064576 0.304280 -4.035816
v -0.078751 0.284779 -4.036422
v -0.078751 0.260675 -4.037171
v -0.064576 0.241174 -4.037777
vt 0.000000 0.000000
vt 0.000000 0.000000
vt 0.000000 0.000000
vt 0.000000 0.000000
vt 0.000000 0.000000
vt 0.000000 0.000000
vt 0.000000 0.000000
vt 0.000000 0.000000
vt 0.000000 0.000000
vt 0.000000 0.000000
vt 0.000000 0.000000
vt 0.000000 0.000000
vt 0.000000 0.000000
vt 0.000000 0.000000
vt 0.000000 0.000000
vt 0.000000 0.000000
vt 0.000000 0.000000
vt 0.000000 0.000000
vt 0.000000 0.000000
vt 0.000000 0.000000
vt 0.000000 0.000000
vt 0.000000 0.000000
vt 0.000000 0.000000
vt 0.000000 0.000000
vt 0.000000 0.000000
vt 0.000000 0.000000
vt 0.000000 0.000000
vt 0.000000 0.000000
vt 0.000000 0.000000
vt 0.000000 0.000000
vt 0.000000 0.000000
vt 0.000000 0.000000
vt 0.000000 0.000000
vt 0.000000 0.000000
vt 0.000000 0.000000
vt 0.000000 0.000000
vt 0.000000 0.000000
vt 0.000000 0.000000
vt 0.000000 0.000000
vt 0.000000 0.000000
vt 0.000000 0.000000
vt 0.000000 0.000000
vt 0.000000 0.000000
vt 0.000000 0.000000
vt 0.000000 0.000000
vt 0.000000 0.000000
vt 0.000000 0.000000
vt 0.000000 0.000000
vt 0.000000 0.000000
vt 0.000000 0.000000
vt 0.000000 0.000000
vt 0.000000 0.000000
vt 0.000000 0.000000
vt 0.000000 0.000000
vt 0.000000 0.000000
vt 0.000000 0.000000
vt 0.000000 0.000000
vt 0.000000 0.000000
vt 0.000000 0.000000
vt 0.000000 0.000000
vn 0.7278 0.2564 -0.6361
vn 0.7278 -0.2163 -0.6507
vn 0.0000 0.0310 -0.9995
vn -0.4498 0.6388 -0.6242
vn 0.0000 0.7849 -0.6196
vn -0.4498 -0.5988 -0.6626
vn -0.7278 -0.2163 -0.6507
vn 0.0000 0.0311 -0.9995
vn 0.4498 -0.5988 -0.6626
vn 0.4498 0.6388 -0.6242
vn -0.7278 0.2564 -0.6361
vn 0.0000 -0.7449 -0.6672
vn -0.5878 -0.8086 -0.0251
vn -0.9510 -0.3088 -0.0096
vn 0.9510 -0.3088 -0.0096
vn 0.5878 -0.8086 -0.0251
vn 0.0000 0.9995 0.0310
vn 0.5878 0.8086 0.0251
vn -0.9510 0.3088 0.0096
vn 0.0000 -0.9995 -0.0310
vn 0.9510 0.3088 0.0096
vn -0.5878 0.8086 0.0251
vn 0.7278 0.2563 -0.6360
usemtl None
s 1
f 8/1/1 9/2/2 19/3/3 18/4/3
f 5/5/4 6/6/5 16/7/3 15/8/3
f 2/9/6 3/10/7 13/11/3 12/12/8
f 9/2/2 10/13/9 20/14/8 19/3/3
f 6/6/5 7/15/10 17/16/3 16/7/3
f 3/10/7 4/17/11 14/18/3 13/11/3
f 10/13/9 1/19/12 11/20/8 20/14/8
f 7/15/10 8/1/1 18/4/3 17/16/3
f 4/17/11 5/5/4 15/8/3 14/18/3
f 1/19/12 2/9/6 12/12/8 11/20/8
f 3/10/7 2/9/6 22/21/13 23/22/14
f 10/13/9 9/2/2 29/23/15 30/24/16
f 7/15/10 6/6/5 26/25/17 27/26/18
f 4/17/11 3/10/7 23/22/14 24/27/19
f 1/19/12 10/13/9 30/24/16 21/28/20
f 8/1/1 7/15/10 27/26/18 28/29/21
f 5/5/4 4/17/11 24/27/19 25/30/22
f 2/9/6 1/19/12 21/28/20 22/21/13
f 9/2/2 8/1/1 28/29/21 29/23/15
f 6/6/5 5/5/4 25/30/22 26/25/17
f 38/31/11 48/32/3 49/33/3 39/34/7
f 35/35/10 45/36/3 46/37/3 36/38/5
f 32/39/9 42/40/8 43/41/3 33/42/2
f 39/34/7 49/33/3 50/43/8 40/44/6
f 36/38/5 46/37/3 47/45/3 37/46/4
f 33/42/2 43/41/3 44/47/3 34/48/23
f 40/44/6 50/43/8 41/49/8 31/50/12
f 37/46/4 47/45/3 48/32/3 38/31/11
f 34/48/23 44/47/3 45/36/3 35/35/10
f 31/50/12 41/49/8 42/40/8 32/39/9
f 33/42/2 53/51/15 52/52/16 32/39/9
f 40/44/6 60/53/13 59/54/14 39/34/7
f 37/46/4 57/55/22 56/56/17 36/38/5
f 34/48/23 54/57/21 53/51/15 33/42/2
f 31/50/12 51/58/20 60/53/13 40/44/6
f 38/31/11 58/59/19 57/55/22 37/46/4
f 35/35/10 55/60/18 54/57/21 34/48/23
f 32/39/9 52/52/16 51/58/20 31/50/12
f 39/34/7 59/54/14 58/59/19 38/31/11
f 36/38/5 56/56/17 55/60/18 35/35/10
