# Blender v3.0.0 OBJ File: '711.blend'
# www.blender.org
mtllib windows711.mtl
o windows_Plane.008
v 0.513505 1.198508 -2.087545
v 0.467311 1.205238 -2.079296
v 0.436258 1.209761 -2.073750
v 0.216389 1.229309 -2.047165
v 0.130614 1.231791 -2.042019
v 0.323310 1.226216 -2.053581
v 0.000000 1.234686 -2.039450
v 0.139523 1.165773 -1.908455
v 0.339963 1.160197 -1.921986
v 0.000000 1.168668 -1.906478
v 0.542840 1.139727 -1.988406
v 0.493565 1.144699 -1.972274
v 0.460442 1.148041 -1.961430
v 0.228745 1.163291 -1.914478
v 0.269850 1.227762 -2.050373
v 0.284354 1.161744 -1.918232
v 0.619977 1.001042 -1.785951
v 0.550461 1.005467 -1.748834
v 0.000000 1.016446 -1.658277
v 0.139760 1.014905 -1.661065
v 0.581641 1.003688 -1.764562
v 0.423529 1.011937 -1.699185
v 0.245513 1.013584 -1.668848
v 0.331677 1.012761 -1.680037
v 0.704528 0.849024 -1.564033
v 0.649134 0.849187 -1.515801
v 0.000000 0.849590 -1.386214
v 0.140019 0.849533 -1.389892
v 0.678185 0.849122 -1.536881
v 0.515129 0.849424 -1.454966
v 0.263893 0.849485 -1.399603
v 0.383550 0.849454 -1.418942
v 0.580377 1.170917 -2.808370
v 0.580377 1.196937 -2.599591
v 0.590654 1.196937 -2.337160
v 0.602858 1.176184 -2.202263
v 0.621700 1.143473 -2.128158
v 0.648586 1.087627 -2.041248
v 0.740600 0.852775 -2.521299
v 0.731586 0.855424 -2.708934
v 0.730571 0.855424 -2.733065
v 0.723369 0.868459 -2.909272
v 0.728556 0.859068 -2.793856
v 0.714716 0.874341 -2.995714
v 0.644849 0.943820 -3.372752
v 0.622390 0.968922 -3.447566
v 0.678854 0.907972 -3.208417
v 0.681301 0.905512 -3.194014
v 0.602864 1.022363 -3.359696
v 0.594351 1.068722 -3.216417
v 0.593415 1.074274 -3.199373
v 0.585385 1.134976 -2.992802
v 0.582545 1.154367 -2.906474
v 0.589935 1.095049 -3.135118
v 0.588200 1.111415 -3.080843
v 0.580628 1.168997 -2.819751
v 0.695492 0.971511 -1.858674
v 0.749689 0.839080 -1.865455
v 0.491087 0.949806 -3.775259
v 0.323310 0.964606 -3.815957
v 0.130614 0.973019 -3.824989
v 0.000000 0.974447 -3.827944
v 0.501060 1.010544 -3.598355
v 0.511037 1.079080 -3.376524
v 0.516697 1.122244 -3.231495
v 0.517380 1.127865 -3.214009
v 0.510351 1.146120 -3.148377
v 0.489543 1.167969 -3.110762
v 0.323310 1.191968 -3.088802
v 0.130614 1.202245 -3.088802
v 0.000000 1.204378 -3.088802
v 0.457946 1.172531 -3.106588
v 0.423734 1.177470 -3.102068
v 0.383370 1.183297 -3.096736
v 0.269888 1.194817 -3.088802
v 0.216393 1.197670 -3.088802
v 0.450598 0.953378 -3.785080
v 0.408654 0.957078 -3.795255
v 0.366710 0.960778 -3.805429
v 0.260961 0.967328 -3.818879
v 0.196729 0.970133 -3.821890
v 0.130614 1.167497 -3.200401
v 0.213412 1.163178 -3.199931
v 0.268535 1.160332 -3.199474
v 0.323310 1.157502 -3.199031
v 0.380845 1.149565 -3.204167
v 0.421448 1.144061 -3.207149
v 0.456832 1.139309 -3.209441
v 0.000000 1.169523 -3.200849
v 0.489777 1.134898 -3.211493
v 0.212800 1.156091 -3.222764
v 0.268257 1.153246 -3.222214
v 0.380326 1.142635 -3.226240
v 0.420978 1.137196 -3.228739
v 0.456603 1.132483 -3.230573
v 0.489825 1.128103 -3.232190
v 0.130614 1.160357 -3.223330
v 0.323310 1.150420 -3.221680
v 0.000000 1.162361 -3.223870
v 0.208544 1.106848 -3.381415
v 0.266325 1.104015 -3.380213
v 0.376720 1.094478 -3.379612
v 0.417715 1.089500 -3.378755
v 0.455013 1.085056 -3.377409
v 0.490159 1.080889 -3.375997
v 0.130614 1.110749 -3.382652
v 0.323310 1.101216 -3.379047
v 0.000000 1.112600 -3.383832
v -0.513505 1.198508 -2.087545
v -0.467311 1.205238 -2.079296
v -0.436258 1.209761 -2.073750
v -0.216389 1.229309 -2.047165
v -0.130614 1.231791 -2.042019
v -0.323310 1.226216 -2.053581
v -0.139523 1.165773 -1.908455
v -0.339963 1.160197 -1.921986
v -0.542840 1.139727 -1.988406
v -0.493565 1.144699 -1.972274
v -0.460442 1.148041 -1.961430
v -0.228745 1.163291 -1.914478
v -0.269850 1.227762 -2.050373
v -0.284354 1.161744 -1.918232
v -0.619977 1.001042 -1.785951
v -0.550461 1.005467 -1.748834
v -0.139760 1.014905 -1.661065
v -0.581641 1.003688 -1.764562
v -0.423529 1.011937 -1.699185
v -0.245513 1.013584 -1.668848
v -0.331677 1.012761 -1.680037
v -0.704528 0.849024 -1.564033
v -0.649134 0.849187 -1.515801
v -0.140019 0.849533 -1.389892
v -0.678185 0.849122 -1.536881
v -0.515129 0.849424 -1.454966
v -0.263893 0.849485 -1.399603
v -0.383550 0.849454 -1.418942
v -0.580377 1.170917 -2.808370
v -0.580377 1.196937 -2.599591
v -0.590654 1.196937 -2.337160
v -0.602858 1.176184 -2.202263
v -0.621700 1.143473 -2.128158
v -0.648586 1.087627 -2.041248
v -0.740600 0.852775 -2.521299
v -0.731586 0.855424 -2.708934
v -0.730571 0.855424 -2.733065
v -0.723369 0.868459 -2.909272
v -0.728556 0.859068 -2.793856
v -0.714716 0.874341 -2.995714
v -0.644849 0.943820 -3.372752
v -0.622390 0.968922 -3.447566
v -0.678854 0.907972 -3.208417
v -0.681301 0.905512 -3.194014
v -0.602864 1.022363 -3.359696
v -0.594351 1.068722 -3.216417
v -0.593415 1.074274 -3.199373
v -0.585385 1.134976 -2.992802
v -0.582545 1.154367 -2.906474
v -0.589935 1.095049 -3.135118
v -0.588200 1.111415 -3.080843
v -0.580628 1.168997 -2.819751
v -0.695492 0.971511 -1.858674
v -0.749689 0.839080 -1.865455
v -0.491087 0.949806 -3.775259
v -0.323310 0.964606 -3.815957
v -0.130614 0.973019 -3.824989
v -0.501060 1.010544 -3.598355
v -0.511037 1.079080 -3.376524
v -0.516697 1.122244 -3.231495
v -0.517380 1.127865 -3.214009
v -0.510351 1.146120 -3.148377
v -0.489543 1.167969 -3.110762
v -0.323310 1.191968 -3.088802
v -0.130614 1.202245 -3.088802
v -0.457946 1.172531 -3.106588
v -0.423734 1.177470 -3.102068
v -0.383370 1.183297 -3.096736
v -0.269888 1.194817 -3.088802
v -0.216393 1.197670 -3.088802
v -0.450598 0.953378 -3.785080
v -0.408654 0.957078 -3.795255
v -0.366710 0.960778 -3.805429
v -0.260961 0.967328 -3.818879
v -0.196729 0.970133 -3.821890
v -0.130614 1.167497 -3.200401
v -0.213412 1.163178 -3.199931
v -0.268535 1.160332 -3.199474
v -0.323310 1.157502 -3.199031
v -0.380845 1.149565 -3.204167
v -0.421448 1.144061 -3.207149
v -0.456832 1.139309 -3.209441
v -0.489777 1.134898 -3.211493
v -0.212800 1.156091 -3.222764
v -0.268257 1.153246 -3.222214
v -0.380326 1.142635 -3.226240
v -0.420978 1.137196 -3.228739
v -0.456603 1.132483 -3.230573
v -0.489825 1.128103 -3.232190
v -0.130614 1.160357 -3.223330
v -0.323310 1.150420 -3.221680
v -0.208544 1.106848 -3.381415
v -0.266325 1.104015 -3.380213
v -0.376720 1.094478 -3.379612
v -0.417715 1.089500 -3.378755
v -0.455013 1.085056 -3.377409
v -0.490159 1.080889 -3.375997
v -0.130614 1.110749 -3.382652
v -0.323310 1.101216 -3.379047
vt 0.000000 0.000000
vt 0.000000 0.000000
vt 0.000000 0.000000
vt 0.000000 0.000000
vt 0.000000 0.000000
vt 0.000000 0.000000
vt 0.000000 0.000000
vt 0.000000 0.000000
vt 0.000000 0.000000
vt 0.000000 0.000000
vt 0.000000 0.000000
vt 0.000000 0.000000
vt 0.000000 0.000000
vt 0.000000 0.000000
vt 0.000000 0.000000
vt 0.000000 0.000000
vt 0.000000 0.000000
vt 0.000000 0.000000
vt 0.000000 0.000000
vt 0.000000 0.000000
vt 0.000000 0.000000
vt 0.000000 0.000000
vt 0.000000 0.000000
vt 0.000000 0.000000
vt 0.000000 0.000000
vt 0.000000 0.000000
vt 0.000000 0.000000
vt 0.000000 0.000000
vt 0.000000 0.000000
vt 0.000000 0.000000
vt 0.000000 0.000000
vt 0.000000 0.000000
vt 0.000000 0.000000
vt 0.000000 0.000000
vt 0.000000 0.000000
vt 0.000000 0.000000
vt 0.000000 0.000000
vt 0.000000 0.000000
vt 0.000000 0.000000
vt 0.000000 0.000000
vt 0.000000 0.000000
vt 0.000000 0.000000
vt 0.000000 0.000000
vt 0.000000 0.000000
vt 0.000000 0.000000
vt 0.000000 0.000000
vt 0.000000 0.000000
vt 0.000000 0.000000
vt 0.000000 0.000000
vt 0.000000 0.000000
vt 0.000000 0.000000
vt 0.000000 0.000000
vt 0.000000 0.000000
vt 0.000000 0.000000
vt 0.000000 0.000000
vt 0.000000 0.000000
vt 0.000000 0.000000
vt 0.000000 0.000000
vt 0.000000 0.000000
vt 0.000000 0.000000
vt 0.000000 0.000000
vt 0.000000 0.000000
vt 0.000000 0.000000
vt 0.000000 0.000000
vt 0.000000 0.000000
vt 0.000000 0.000000
vt 0.000000 0.000000
vt 0.000000 0.000000
vt 0.000000 0.000000
vt 0.000000 0.000000
vt 0.000000 0.000000
vt 0.000000 0.000000
vt 0.000000 0.000000
vt 0.000000 0.000000
vt 0.000000 0.000000
vt 0.000000 0.000000
vt 0.000000 0.000000
vt 0.000000 0.000000
vt 0.000000 0.000000
vt 0.000000 0.000000
vt 0.000000 0.000000
vt 0.000000 0.000000
vt 0.000000 0.000000
vt 0.000000 0.000000
vt 0.000000 0.000000
vt 0.000000 0.000000
vt 0.000000 0.000000
vt 0.000000 0.000000
vt 0.000000 0.000000
vt 0.000000 0.000000
vt 0.000000 0.000000
vt 0.000000 0.000000
vt 0.000000 0.000000
vt 0.000000 0.000000
vt 0.000000 0.000000
vt 0.000000 0.000000
vt 0.000000 0.000000
vt 0.000000 0.000000
vt 0.000000 0.000000
vt 0.000000 0.000000
vt 0.000000 0.000000
vt 0.000000 0.000000
vt 0.000000 0.000000
vt 0.000000 0.000000
vt 0.000000 0.000000
vt 0.000000 0.000000
vt 0.000000 0.000000
vt 0.000000 0.000000
vt 0.000000 0.000000
vt 0.000000 0.000000
vt 0.000000 0.000000
vt 0.000000 0.000000
vt 0.000000 0.000000
vt 0.000000 0.000000
vt 0.000000 0.000000
vt 0.000000 0.000000
vt 0.000000 0.000000
vt 0.000000 0.000000
vt 0.000000 0.000000
vt 0.000000 0.000000
vt 0.000000 0.000000
vt 0.000000 0.000000
vt 0.000000 0.000000
vt 0.000000 0.000000
vt 0.000000 0.000000
vt 0.000000 0.000000
vt 0.000000 0.000000
vt 0.000000 0.000000
vt 0.000000 0.000000
vt 0.000000 0.000000
vt 0.000000 0.000000
vt 0.000000 0.000000
vt 0.000000 0.000000
vt 0.000000 0.000000
vt 0.000000 0.000000
vt 0.000000 0.000000
vt 0.000000 0.000000
vt 0.000000 0.000000
vt 0.000000 0.000000
vt 0.000000 0.000000
vt 0.000000 0.000000
vt 0.000000 0.000000
vt 0.000000 0.000000
vt 0.000000 0.000000
vt 0.000000 0.000000
vt 0.000000 0.000000
vt 0.000000 0.000000
vt 0.000000 0.000000
vt 0.000000 0.000000
vt 0.000000 0.000000
vt 0.000000 0.000000
vt 0.000000 0.000000
vt 0.000000 0.000000
vt 0.000000 0.000000
vt 0.000000 0.000000
vt 0.000000 0.000000
vt 0.000000 0.000000
vt 0.000000 0.000000
vt 0.000000 0.000000
vt 0.000000 0.000000
vt 0.000000 0.000000
vt 0.000000 0.000000
vt 0.000000 0.000000
vt 0.000000 0.000000
vt 0.000000 0.000000
vt 0.000000 0.000000
vt 0.000000 0.000000
vt 0.000000 0.000000
vt 0.000000 0.000000
vt 0.000000 0.000000
vt 0.000000 0.000000
vt 0.000000 0.000000
vt 0.000000 0.000000
vt 0.000000 0.000000
vt 0.000000 0.000000
vt 0.000000 0.000000
vt 0.000000 0.000000
vt 0.000000 0.000000
vt 0.000000 0.000000
vt 0.000000 0.000000
vt 0.000000 0.000000
vt 0.000000 0.000000
vt 0.000000 0.000000
vt 0.000000 0.000000
vt 0.000000 0.000000
vt 0.000000 0.000000
vt 0.000000 0.000000
vt 0.000000 0.000000
vt 0.000000 0.000000
vt 0.000000 0.000000
vt 0.000000 0.000000
vt 0.000000 0.000000
vt 0.000000 0.000000
vt 0.000000 0.000000
vt 0.000000 0.000000
vt 0.000000 0.000000
vt 0.000000 0.000000
vt 0.000000 0.000000
vt 0.000000 0.000000
vt 0.000000 0.000000
vt 0.000000 0.000000
vt 0.000000 0.000000
vt 0.000000 0.000000
vt 0.000000 0.000000
vt 0.000000 0.000000
vt 0.000000 0.000000
vt 0.000000 0.000000
vn 0.0398 0.8963 0.4417
vn 0.0000 0.8964 0.4432
vn 0.0000 0.8756 0.4830
vn 0.0392 0.8753 0.4819
vn 0.0535 0.8961 0.4407
vn 0.0573 0.8755 0.4798
vn 0.2190 0.8710 0.4396
vn 0.2421 0.8585 0.4519
vn 0.2471 0.8556 0.4548
vn 0.2198 0.8688 0.4436
vn 0.2172 0.8763 0.4299
vn 0.2315 0.8627 0.4495
vn 0.1330 0.8906 0.4348
vn 0.1464 0.8704 0.4701
vn 0.0536 0.8956 0.4415
vn 0.0672 0.8743 0.4807
vn 0.0000 0.8531 0.5217
vn 0.0343 0.8533 0.5202
vn 0.0618 0.8533 0.5177
vn 0.0933 0.8513 0.5163
vn 0.1717 0.8509 0.4965
vn 0.2539 0.8482 0.4647
vn 0.2965 0.8427 0.4493
vn 0.3113 0.8388 0.4466
vn 0.3210 0.8404 0.4365
vn 0.3544 0.8328 0.4252
vn 0.2583 0.8480 0.4626
vn 0.1774 0.8506 0.4950
vn 0.1045 0.8516 0.5137
vn 0.0618 0.8534 0.5175
vn 0.0304 0.8534 0.5203
vn 0.9272 0.3744 -0.0039
vn 0.9123 0.4083 -0.0323
vn 0.9214 0.3882 -0.0133
vn 0.9100 0.4134 -0.0305
vn 0.9098 0.4138 -0.0308
vn 0.9091 0.4148 -0.0384
vn 0.9104 0.4126 -0.0299
vn 0.9080 0.4165 -0.0452
vn 0.9030 0.4283 -0.0325
vn 0.9006 0.4333 -0.0324
vn 0.8995 0.4357 -0.0324
vn 0.8953 0.4427 -0.0486
vn 0.8949 0.4430 -0.0542
vn 0.8914 0.4463 -0.0791
vn 0.8928 0.4414 -0.0898
vn 0.8860 0.4559 -0.0851
vn 0.8824 0.4622 -0.0881
vn 0.8823 0.4623 -0.0881
vn 0.8860 0.4558 -0.0850
vn 0.8896 0.4473 -0.0921
vn 0.8758 0.4734 -0.0935
vn 0.8771 0.4714 -0.0921
vn 0.8705 0.4819 -0.0996
vn 0.0000 0.9548 -0.2972
vn 0.0333 0.9542 -0.2972
vn 0.0335 0.9542 -0.2972
vn 0.0512 0.9534 -0.2973
vn 0.0514 0.9534 -0.2973
vn 0.0531 0.9533 -0.2973
vn 0.0533 0.9532 -0.2976
vn 0.0543 0.9531 -0.2976
vn 0.0541 0.9532 -0.2973
vn 0.0877 0.9505 -0.2981
vn 0.0910 0.9502 -0.2980
vn 0.0771 0.9514 -0.2983
vn 0.0746 0.9516 -0.2983
vn 0.1012 0.9485 -0.3000
vn 0.1036 0.9482 -0.3001
vn 0.1246 0.9458 -0.2997
vn 0.1278 0.9444 -0.3030
vn 0.1397 0.9428 -0.3025
vn 0.1359 0.9444 -0.2992
vn 0.1292 0.9432 -0.3060
vn 0.1414 0.9416 -0.3054
vn 0.0863 0.9483 -0.3054
vn 0.1352 0.9420 -0.3072
vn 0.1019 0.9463 -0.3066
vn 0.1504 0.9418 -0.3005
vn 0.1892 0.9358 -0.2974
vn 0.1051 0.9460 -0.3066
vn 0.1018 0.9474 -0.3033
vn 0.1048 0.9471 -0.3034
vn 0.0799 0.9511 -0.2982
vn 0.1094 0.9476 -0.3000
vn 0.0512 0.9533 -0.2976
vn 0.0515 0.9533 -0.2976
vn 0.0338 0.9542 -0.2971
vn 0.0519 0.9534 -0.2973
vn 0.0346 0.9542 -0.2971
vn 0.1475 0.9408 -0.3051
vn 0.1126 0.9452 -0.3065
vn 0.1117 0.9463 -0.3033
vn 0.0521 0.9532 -0.2976
vn 0.2590 0.9217 -0.2889
vn 0.3214 0.9087 -0.2663
vn 0.1810 0.9360 -0.3017
vn 0.0350 0.9542 -0.2971
vn 0.0381 0.9522 -0.3029
vn -0.0752 0.9496 -0.3041
vn -0.0398 0.8963 0.4417
vn -0.0392 0.8753 0.4819
vn -0.0535 0.8961 0.4407
vn -0.0573 0.8755 0.4798
vn -0.2190 0.8710 0.4396
vn -0.2198 0.8688 0.4436
vn -0.2471 0.8556 0.4548
vn -0.2421 0.8585 0.4519
vn -0.2172 0.8763 0.4299
vn -0.2315 0.8627 0.4495
vn -0.1330 0.8906 0.4348
vn -0.1464 0.8704 0.4701
vn -0.0536 0.8956 0.4415
vn -0.0672 0.8743 0.4807
vn -0.0343 0.8533 0.5202
vn -0.0618 0.8533 0.5177
vn -0.0933 0.8513 0.5163
vn -0.1717 0.8509 0.4965
vn -0.2539 0.8482 0.4647
vn -0.2965 0.8427 0.4493
vn -0.3113 0.8388 0.4466
vn -0.3210 0.8404 0.4365
vn -0.3544 0.8328 0.4252
vn -0.2583 0.8480 0.4626
vn -0.1774 0.8506 0.4950
vn -0.1045 0.8516 0.5137
vn -0.0618 0.8534 0.5175
vn -0.0304 0.8534 0.5203
vn -0.9272 0.3744 -0.0039
vn -0.9214 0.3882 -0.0133
vn -0.9123 0.4083 -0.0323
vn -0.9100 0.4134 -0.0305
vn -0.9098 0.4138 -0.0308
vn -0.9091 0.4148 -0.0384
vn -0.9104 0.4126 -0.0299
vn -0.9080 0.4165 -0.0452
vn -0.9030 0.4283 -0.0325
vn -0.8995 0.4357 -0.0324
vn -0.9006 0.4333 -0.0324
vn -0.8949 0.4430 -0.0542
vn -0.8953 0.4427 -0.0486
vn -0.8928 0.4414 -0.0898
vn -0.8914 0.4463 -0.0791
vn -0.8860 0.4559 -0.0851
vn -0.8860 0.4558 -0.0850
vn -0.8823 0.4623 -0.0881
vn -0.8824 0.4622 -0.0881
vn -0.8896 0.4473 -0.0921
vn -0.8771 0.4714 -0.0921
vn -0.8758 0.4734 -0.0935
vn -0.8705 0.4819 -0.0996
vn -0.0335 0.9542 -0.2971
vn -0.0333 0.9542 -0.2972
vn -0.0514 0.9534 -0.2973
vn -0.0512 0.9534 -0.2973
vn -0.0531 0.9533 -0.2973
vn -0.0541 0.9532 -0.2973
vn -0.0543 0.9531 -0.2976
vn -0.0533 0.9532 -0.2976
vn -0.0910 0.9502 -0.2980
vn -0.0877 0.9505 -0.2981
vn -0.0771 0.9514 -0.2983
vn -0.1036 0.9482 -0.3001
vn -0.1012 0.9485 -0.3000
vn -0.0746 0.9516 -0.2983
vn -0.1246 0.9458 -0.2997
vn -0.1359 0.9444 -0.2992
vn -0.1397 0.9428 -0.3025
vn -0.1278 0.9444 -0.3030
vn -0.1414 0.9416 -0.3054
vn -0.1292 0.9432 -0.3060
vn -0.1352 0.9420 -0.3072
vn -0.0863 0.9483 -0.3054
vn -0.1018 0.9463 -0.3066
vn -0.1051 0.9460 -0.3066
vn -0.1892 0.9358 -0.2974
vn -0.1504 0.9418 -0.3005
vn -0.1018 0.9474 -0.3033
vn -0.1048 0.9471 -0.3034
vn -0.0799 0.9511 -0.2982
vn -0.1094 0.9476 -0.3000
vn -0.0512 0.9533 -0.2976
vn -0.0515 0.9533 -0.2976
vn -0.0338 0.9542 -0.2971
vn -0.0519 0.9534 -0.2973
vn -0.0346 0.9542 -0.2971
vn -0.1126 0.9452 -0.3065
vn -0.1475 0.9408 -0.3051
vn -0.1117 0.9463 -0.3033
vn -0.0521 0.9532 -0.2976
vn -0.2590 0.9217 -0.2889
vn -0.3214 0.9087 -0.2663
vn -0.1810 0.9360 -0.3017
vn -0.0350 0.9542 -0.2971
vn -0.0381 0.9522 -0.3029
vn 0.0752 0.9496 -0.3041
usemtl None
s 1
f 5/1/1 7/2/2 10/3/3 8/4/4
f 4/5/5 5/1/1 8/4/4 14/6/6
f 2/7/7 12/8/8 11/9/9 1/10/10
f 3/11/11 13/12/12 12/8/8 2/7/7
f 6/13/13 9/14/14 13/12/12 3/11/11
f 15/15/15 4/5/5 14/6/6 16/16/16
f 6/13/13 15/15/15 16/16/16 9/14/14
f 19/17/17 20/18/18 8/4/4 10/3/3
f 23/19/19 14/6/6 8/4/4 20/18/18
f 24/20/20 16/16/16 14/6/6 23/19/19
f 22/21/21 9/14/14 16/16/16 24/20/20
f 18/22/22 21/23/23 12/8/8 13/12/12
f 21/23/23 17/24/24 11/9/9 12/8/8
f 29/25/25 25/26/26 17/24/24 21/23/23
f 26/27/27 29/25/25 21/23/23 18/22/22
f 13/12/12 9/14/14 22/21/21 18/22/22
f 30/28/28 22/21/21 24/20/20 32/29/29
f 32/29/29 24/20/20 23/19/19 31/30/30
f 31/30/30 23/19/19 20/18/18 28/31/31
f 27/32/17 28/31/31 20/18/18 19/17/17
f 18/22/22 22/21/21 30/28/28 26/27/27
f 57/33/32 58/34/32 39/35/33 38/36/34
f 36/37/35 37/38/36 38/36/34 39/35/33
f 34/39/37 35/40/38 36/37/35 39/35/33
f 34/39/37 39/35/33 40/41/39 33/42/39
f 41/43/40 43/44/41 53/45/42 56/46/40
f 43/44/41 42/47/43 52/48/44 53/45/42
f 42/47/43 44/49/45 55/50/46 52/48/44
f 48/51/47 47/52/48 50/53/49 51/54/50
f 44/49/45 48/51/47 51/54/50 54/55/51
f 54/55/51 55/50/46 44/49/45
f 47/52/48 45/56/52 49/57/53 50/53/49
f 45/56/52 46/58/54 49/57/53
f 89/59/55 71/60/55 70/61/56 82/62/57
f 82/62/57 70/61/56 76/63/58 83/64/59
f 100/65/60 101/66/61 80/67/62 81/68/63
f 101/66/61 107/69/64 60/70/65 80/67/62
f 85/71/66 69/72/67 74/73/68 86/74/69
f 102/75/70 103/76/71 78/77/72 79/78/73
f 103/76/71 104/79/74 77/80/75 78/77/72
f 104/79/74 105/81/76 59/82/77 77/80/75
f 72/83/78 68/84/79 90/85/80 88/86/81
f 73/87/82 72/83/78 88/86/81 87/88/83
f 74/73/68 73/87/82 87/88/83 86/74/69
f 98/89/84 85/71/66 86/74/69 93/90/85
f 75/91/86 69/72/67 85/71/66 84/92/87
f 76/63/58 75/91/86 84/92/87 83/64/59
f 97/93/88 82/62/57 83/64/59 91/94/89
f 99/95/55 89/59/55 82/62/57 97/93/88
f 108/96/55 99/95/55 97/93/88 106/97/90
f 106/97/90 97/93/88 91/94/89 100/65/60
f 107/69/64 98/89/84 93/90/85 102/75/70
f 88/86/81 90/85/80 96/98/91 95/99/92
f 87/88/83 88/86/81 95/99/92 94/100/93
f 86/74/69 87/88/83 94/100/93 93/90/85
f 84/92/87 85/71/66 98/89/84 92/101/94
f 83/64/59 84/92/87 92/101/94 91/94/89
f 66/102/95 90/85/80 68/84/79 67/103/96
f 65/104/97 96/98/91 90/85/80 66/102/95
f 60/70/65 107/69/64 102/75/70 79/78/73
f 61/105/98 106/97/90 100/65/60 81/68/63
f 62/106/55 108/96/55 106/97/90 61/105/98
f 95/99/92 96/98/91 105/81/76 104/79/74
f 94/100/93 95/99/92 104/79/74 103/76/71
f 93/90/85 94/100/93 103/76/71 102/75/70
f 92/101/94 98/89/84 107/69/64 101/66/61
f 91/94/89 92/101/94 101/66/61 100/65/60
f 64/107/99 105/81/76 96/98/91 65/104/97
f 63/108/100 59/82/77 105/81/76 64/107/99
f 113/109/101 115/110/102 10/3/3 7/2/2
f 112/111/103 120/112/104 115/110/102 113/109/101
f 110/113/105 109/114/106 117/115/107 118/116/108
f 111/117/109 110/113/105 118/116/108 119/118/110
f 114/119/111 111/117/109 119/118/110 116/120/112
f 121/121/113 122/122/114 120/112/104 112/111/103
f 114/119/111 116/120/112 122/122/114 121/121/113
f 19/17/17 10/3/3 115/110/102 125/123/115
f 128/124/116 125/123/115 115/110/102 120/112/104
f 129/125/117 128/124/116 120/112/104 122/122/114
f 127/126/118 129/125/117 122/122/114 116/120/112
f 124/127/119 119/118/110 118/116/108 126/128/120
f 126/128/120 118/116/108 117/115/107 123/129/121
f 133/130/122 126/128/120 123/129/121 130/131/123
f 131/132/124 124/127/119 126/128/120 133/130/122
f 119/118/110 124/127/119 127/126/118 116/120/112
f 134/133/125 136/134/126 129/125/117 127/126/118
f 136/134/126 135/135/127 128/124/116 129/125/117
f 135/135/127 132/136/128 125/123/115 128/124/116
f 27/32/17 19/17/17 125/123/115 132/136/128
f 124/127/119 131/132/124 134/133/125 127/126/118
f 161/137/129 142/138/130 143/139/131 162/140/129
f 140/141/132 143/139/131 142/138/130 141/142/133
f 138/143/134 143/139/131 140/141/132 139/144/135
f 138/143/134 137/145/136 144/146/136 143/139/131
f 145/147/137 160/148/137 157/149/138 147/150/139
f 147/150/139 157/149/138 156/151/140 146/152/141
f 146/152/141 156/151/140 159/153/142 148/154/143
f 152/155/144 155/156/145 154/157/146 151/158/147
f 148/154/143 158/159/148 155/156/145 152/155/144
f 158/159/148 148/154/143 159/153/142
f 151/158/147 154/157/146 153/160/149 149/161/150
f 149/161/150 153/160/149 150/162/151
f 89/59/55 184/163/152 173/164/153 71/60/55
f 184/163/152 185/165/154 178/166/155 173/164/153
f 200/167/156 183/168/157 182/169/158 201/170/159
f 201/170/159 182/169/158 164/171/160 207/172/161
f 187/173/162 188/174/163 176/175/164 172/176/165
f 202/177/166 181/178/167 180/179/168 203/180/169
f 203/180/169 180/179/168 179/181/170 204/182/171
f 204/182/171 179/181/170 163/183/172 205/184/173
f 174/185/174 190/186/175 191/187/176 171/188/177
f 175/189/178 189/190/179 190/186/175 174/185/174
f 176/175/164 188/174/163 189/190/179 175/189/178
f 199/191/180 194/192/181 188/174/163 187/173/162
f 177/193/182 186/194/183 187/173/162 172/176/165
f 178/166/155 185/165/154 186/194/183 177/193/182
f 198/195/184 192/196/185 185/165/154 184/163/152
f 99/95/55 198/195/184 184/163/152 89/59/55
f 108/96/55 206/197/186 198/195/184 99/95/55
f 206/197/186 200/167/156 192/196/185 198/195/184
f 207/172/161 202/177/166 194/192/181 199/191/180
f 190/186/175 196/198/187 197/199/188 191/187/176
f 189/190/179 195/200/189 196/198/187 190/186/175
f 188/174/163 194/192/181 195/200/189 189/190/179
f 186/194/183 193/201/190 199/191/180 187/173/162
f 185/165/154 192/196/185 193/201/190 186/194/183
f 169/202/191 170/203/192 171/188/177 191/187/176
f 168/204/193 169/202/191 191/187/176 197/199/188
f 164/171/160 181/178/167 202/177/166 207/172/161
f 165/205/194 183/168/157 200/167/156 206/197/186
f 62/106/55 165/205/194 206/197/186 108/96/55
f 196/198/187 204/182/171 205/184/173 197/199/188
f 195/200/189 203/180/169 204/182/171 196/198/187
f 194/192/181 202/177/166 203/180/169 195/200/189
f 193/201/190 201/170/159 207/172/161 199/191/180
f 192/196/185 200/167/156 201/170/159 193/201/190
f 167/206/195 168/204/193 197/199/188 205/184/173
f 166/207/196 167/206/195 205/184/173 163/183/172
