# Blender v3.0.0 OBJ File: 'volvo240.blend'
# www.blender.org
mtllib bolbobits.mtl
o plastic_bumper_Plane.009
v 0.824427 0.549870 -0.640000
v 0.000000 0.540609 -0.066522
v 0.108852 0.540609 -0.074288
v 0.294975 0.540609 -0.086106
v 0.000000 0.540609 -0.010802
v 0.108852 0.540609 -0.018569
v 0.294975 0.540609 -0.030387
v 0.000000 0.512479 -0.000726
v 0.108852 0.512479 -0.008492
v 0.294975 0.512479 -0.020310
v 0.000000 0.410727 -0.011978
v 0.108852 0.410727 -0.019744
v 0.294975 0.410727 -0.031562
v 0.000000 0.377979 -0.028604
v 0.108852 0.377979 -0.036370
v 0.294975 0.377979 -0.048188
v 0.000000 0.377979 -0.098636
v 0.108852 0.377979 -0.106402
v 0.294975 0.377979 -0.118221
v 0.668801 0.540609 -0.141729
v 0.668801 0.540609 -0.086009
v 0.668801 0.512479 -0.075933
v 0.647561 0.410727 -0.084024
v 0.641066 0.377979 -0.099684
v 0.715010 0.540609 -0.157261
v 0.748930 0.540609 -0.113057
v 0.755065 0.512479 -0.105063
v 0.736460 0.410727 -0.110490
v 0.727067 0.377979 -0.124056
v 0.728424 0.540609 -0.199258
v 0.773218 0.540609 -0.166120
v 0.781318 0.512479 -0.160127
v 0.767050 0.410727 -0.158604
v 0.755204 0.377979 -0.170585
v 0.632625 0.377979 -0.163914
v 0.701468 0.377979 -0.196188
v 0.825553 0.514399 -0.625544
v 0.758642 0.541862 -0.283280
v 0.747901 0.377979 -0.269154
v 0.779969 0.377979 -0.253722
v 0.776766 0.378982 -0.571575
v 0.788874 0.411755 -0.253759
v 0.000000 0.556593 -0.089071
v 0.294975 0.556593 -0.112343
v 0.108852 0.556593 -0.096837
v 0.748608 0.556593 -0.296849
v 0.668801 0.556593 -0.169043
v 0.713783 0.556593 -0.222341
v 0.780000 0.680000 -0.710000
v 0.780000 0.600000 -0.640000
v 0.780000 0.560000 -0.620000
v 0.800000 0.750000 -0.860000
v 0.800000 0.760000 -0.950000
v 0.810000 0.680000 -1.180000
v 0.810000 0.600000 -1.250000
v 0.810000 0.560000 -1.270000
v 0.800000 0.750000 -1.040000
v 0.753586 0.314642 -0.545933
v 0.836617 0.628894 -0.709643
v 0.824427 0.549870 -0.640000
v 0.846630 0.696425 -0.860000
v 0.852207 0.706354 -0.950000
v 0.852618 0.625732 -1.180000
v 0.843100 0.546300 -1.250000
v 0.838341 0.506585 -1.270000
v 0.854027 0.696425 -1.040000
v 0.748655 0.268289 -1.400391
v 0.000000 0.540609 -0.066522
v 0.108852 0.540609 -0.074288
v 0.294975 0.540609 -0.086106
v 0.668801 0.540609 -0.141729
v 0.715010 0.540609 -0.157261
v 0.728424 0.540609 -0.199258
v 0.825553 0.514399 -0.625544
v 0.758642 0.541862 -0.283280
v 0.776766 0.378982 -0.571575
v 0.748021 0.316198 -3.195216
v 0.796689 0.506452 -3.224987
v 0.808417 0.604977 -3.286278
v 0.810976 0.683303 -3.411727
v 0.811865 0.703044 -3.548141
v 0.777299 0.366816 -3.943834
v 0.795691 0.506452 -3.869317
v 0.808417 0.596487 -3.796607
v 0.810976 0.661015 -3.706182
v 0.817308 0.455474 -3.254704
v 0.834704 0.553744 -3.321302
v 0.839644 0.622341 -3.411727
v 0.841748 0.651558 -3.548141
v 0.827627 0.455474 -3.869317
v 0.833789 0.541041 -3.796607
v 0.838729 0.609638 -3.706182
v 0.808969 0.568031 -3.258518
v 0.828535 0.517838 -3.296968
v -0.824427 0.549870 -0.640000
v 0.000000 0.540609 -0.066522
v -0.108852 0.540609 -0.074288
v -0.294975 0.540609 -0.086106
v 0.000000 0.540609 -0.010802
v -0.108852 0.540609 -0.018569
v -0.294975 0.540609 -0.030387
v 0.000000 0.512479 -0.000726
v -0.108852 0.512479 -0.008492
v -0.294975 0.512479 -0.020310
v 0.000000 0.410727 -0.011978
v -0.108852 0.410727 -0.019744
v -0.294975 0.410727 -0.031562
v 0.000000 0.377979 -0.028604
v -0.108852 0.377979 -0.036370
v -0.294975 0.377979 -0.048188
v 0.000000 0.377979 -0.098636
v -0.108852 0.377979 -0.106402
v -0.294975 0.377979 -0.118221
v -0.668801 0.540609 -0.141729
v -0.668801 0.540609 -0.086009
v -0.668801 0.512479 -0.075933
v -0.647561 0.410727 -0.084024
v -0.641066 0.377979 -0.099684
v -0.715010 0.540609 -0.157261
v -0.748930 0.540609 -0.113057
v -0.755065 0.512479 -0.105063
v -0.736460 0.410727 -0.110490
v -0.727067 0.377979 -0.124056
v -0.728424 0.540609 -0.199258
v -0.773218 0.540609 -0.166120
v -0.781318 0.512479 -0.160127
v -0.767050 0.410727 -0.158604
v -0.755204 0.377979 -0.170585
v -0.632625 0.377979 -0.163914
v -0.701468 0.377979 -0.196188
v -0.825553 0.514399 -0.625544
v -0.758642 0.541862 -0.283280
v -0.747901 0.377979 -0.269154
v -0.779969 0.377979 -0.253722
v -0.776766 0.378982 -0.571575
v -0.788874 0.411755 -0.253759
v 0.000000 0.556593 -0.089071
v -0.294975 0.556593 -0.112343
v -0.108852 0.556593 -0.096837
v -0.748608 0.556593 -0.296849
v -0.668801 0.556593 -0.169043
v -0.713783 0.556593 -0.222341
v -0.780000 0.680000 -0.710000
v -0.780000 0.600000 -0.640000
v -0.780000 0.560000 -0.620000
v -0.800000 0.750000 -0.860000
v -0.800000 0.760000 -0.950000
v -0.810000 0.680000 -1.180000
v -0.810000 0.600000 -1.250000
v -0.810000 0.560000 -1.270000
v -0.800000 0.750000 -1.040000
v -0.753586 0.314642 -0.545933
v -0.836617 0.628894 -0.709643
v -0.824427 0.549870 -0.640000
v -0.846630 0.696425 -0.860000
v -0.852207 0.706354 -0.950000
v -0.852618 0.625732 -1.180000
v -0.843100 0.546300 -1.250000
v -0.838341 0.506585 -1.270000
v -0.854027 0.696425 -1.040000
v -0.748655 0.268289 -1.400391
v 0.000000 0.540609 -0.066522
v -0.108852 0.540609 -0.074288
v -0.294975 0.540609 -0.086106
v -0.668801 0.540609 -0.141729
v -0.715010 0.540609 -0.157261
v -0.728424 0.540609 -0.199258
v -0.825553 0.514399 -0.625544
v -0.758642 0.541862 -0.283280
v -0.776766 0.378982 -0.571575
v -0.748021 0.316198 -3.195216
v -0.796689 0.506452 -3.224987
v -0.808417 0.604977 -3.286278
v -0.810976 0.683303 -3.411727
v -0.811865 0.703044 -3.548141
v -0.777299 0.366816 -3.943834
v -0.795691 0.506452 -3.869317
v -0.808417 0.596487 -3.796607
v -0.810976 0.661015 -3.706182
v -0.817308 0.455474 -3.254704
v -0.834704 0.553744 -3.321302
v -0.839644 0.622341 -3.411727
v -0.841748 0.651558 -3.548141
v -0.827627 0.455474 -3.869317
v -0.833789 0.541041 -3.796607
v -0.838729 0.609638 -3.706182
v -0.808969 0.568031 -3.258518
v -0.828535 0.517838 -3.296968
vt 0.000000 0.000000
vt 0.000000 0.000000
vt 0.000000 0.000000
vt 0.000000 0.000000
vt 0.000000 0.000000
vt 0.000000 0.000000
vt 0.000000 0.000000
vt 0.000000 0.000000
vt 0.000000 0.000000
vt 0.000000 0.000000
vt 0.000000 0.000000
vt 0.000000 0.000000
vt 0.000000 0.000000
vt 0.000000 0.000000
vt 0.000000 0.000000
vt 0.000000 0.000000
vt 0.000000 0.000000
vt 0.000000 0.000000
vt 0.000000 0.000000
vt 0.000000 0.000000
vt 0.000000 0.000000
vt 0.000000 0.000000
vt 0.000000 0.000000
vt 0.000000 0.000000
vt 0.000000 0.000000
vt 0.000000 0.000000
vt 0.000000 0.000000
vt 0.000000 0.000000
vt 0.000000 0.000000
vt 0.000000 0.000000
vt 0.000000 0.000000
vt 0.000000 0.000000
vt 0.000000 0.000000
vt 0.000000 0.000000
vt 0.000000 0.000000
vt 0.000000 0.000000
vt 0.000000 0.000000
vt 0.000000 0.000000
vt 0.000000 0.000000
vt 0.000000 0.000000
vt 0.000000 0.000000
vt 0.000000 0.000000
vt 0.000000 0.000000
vt 0.000000 0.000000
vt 0.000000 0.000000
vt 0.000000 0.000000
vt 0.000000 0.000000
vt 0.000000 0.000000
vt 0.000000 0.000000
vt 0.000000 0.000000
vt 0.000000 0.000000
vt 0.000000 0.000000
vt 0.000000 0.000000
vt 0.000000 0.000000
vt 0.000000 0.000000
vt 0.000000 0.000000
vt 0.000000 0.000000
vt 0.000000 0.000000
vt 0.000000 0.000000
vt 0.000000 0.000000
vt 0.000000 0.000000
vt 0.000000 0.000000
vt 0.000000 0.000000
vt 0.000000 0.000000
vt 0.000000 0.000000
vt 0.000000 0.000000
vt 0.000000 0.000000
vt 0.000000 0.000000
vt 0.000000 0.000000
vt 0.000000 0.000000
vt 0.000000 0.000000
vt 0.000000 0.000000
vt 0.000000 0.000000
vt 0.000000 0.000000
vt 0.000000 0.000000
vt 0.000000 0.000000
vt 0.000000 0.000000
vt 0.000000 0.000000
vt 0.000000 0.000000
vt 0.000000 0.000000
vt 0.000000 0.000000
vt 0.000000 0.000000
vt 0.000000 0.000000
vt 0.000000 0.000000
vt 0.000000 0.000000
vt 0.000000 0.000000
vt 0.000000 0.000000
vt 0.000000 0.000000
vt 0.000000 0.000000
vt 0.000000 0.000000
vt 0.000000 0.000000
vt 0.000000 0.000000
vt 0.000000 0.000000
vt 0.000000 0.000000
vt 0.000000 0.000000
vt 0.000000 0.000000
vt 0.000000 0.000000
vt 0.000000 0.000000
vt 0.000000 0.000000
vt 0.000000 0.000000
vt 0.000000 0.000000
vt 0.000000 0.000000
vt 0.000000 0.000000
vt 0.000000 0.000000
vt 0.000000 0.000000
vt 0.000000 0.000000
vt 0.000000 0.000000
vt 0.000000 0.000000
vt 0.000000 0.000000
vt 0.000000 0.000000
vt 0.000000 0.000000
vt 0.000000 0.000000
vt 0.000000 0.000000
vt 0.000000 0.000000
vt 0.000000 0.000000
vt 0.000000 0.000000
vt 0.000000 0.000000
vt 0.000000 0.000000
vt 0.000000 0.000000
vt 0.000000 0.000000
vt 0.000000 0.000000
vt 0.000000 0.000000
vt 0.000000 0.000000
vt 0.000000 0.000000
vt 0.000000 0.000000
vt 0.000000 0.000000
vt 0.000000 0.000000
vt 0.000000 0.000000
vt 0.000000 0.000000
vt 0.000000 0.000000
vt 0.000000 0.000000
vt 0.000000 0.000000
vt 0.000000 0.000000
vt 0.000000 0.000000
vt 0.000000 0.000000
vt 0.000000 0.000000
vt 0.000000 0.000000
vt 0.000000 0.000000
vt 0.000000 0.000000
vt 0.000000 0.000000
vt 0.000000 0.000000
vt 0.000000 0.000000
vt 0.000000 0.000000
vt 0.000000 0.000000
vt 0.000000 0.000000
vt 0.000000 0.000000
vt 0.000000 0.000000
vt 0.000000 0.000000
vt 0.000000 0.000000
vt 0.000000 0.000000
vt 0.000000 0.000000
vt 0.000000 0.000000
vt 0.000000 0.000000
vt 0.000000 0.000000
vt 0.000000 0.000000
vt 0.000000 0.000000
vt 0.000000 0.000000
vt 0.000000 0.000000
vt 0.000000 0.000000
vt 0.000000 0.000000
vt 0.000000 0.000000
vt 0.000000 0.000000
vt 0.000000 0.000000
vt 0.000000 0.000000
vt 0.000000 0.000000
vt 0.000000 0.000000
vt 0.000000 0.000000
vt 0.000000 0.000000
vt 0.000000 0.000000
vt 0.000000 0.000000
vt 0.000000 0.000000
vt 0.000000 0.000000
vt 0.000000 0.000000
vt 0.000000 0.000000
vt 0.000000 0.000000
vt 0.000000 0.000000
vt 0.000000 0.000000
vt 0.000000 0.000000
vt 0.000000 0.000000
vt 0.000000 0.000000
vt 0.000000 0.000000
vt 0.000000 0.000000
vt 0.000000 0.000000
vt 0.000000 0.000000
vt 0.000000 0.000000
vt 0.000000 0.000000
vt 0.000000 0.000000
vt 0.000000 0.000000
vn 0.0000 -1.0000 0.0000
vn 0.0569 -0.8454 0.5311
vn 0.0351 -0.8526 0.5214
vn 0.0000 1.0000 0.0000
vn 0.0422 0.8048 0.5921
vn 0.0386 0.8181 0.5737
vn 0.0707 0.1152 0.9908
vn 0.0668 0.1165 0.9909
vn 0.0682 -0.2830 0.9567
vn 0.0645 -0.2855 0.9562
vn 0.0385 -0.8411 0.5395
vn 0.1006 -0.2833 0.9537
vn 0.1040 0.1154 0.9879
vn 0.0623 0.8099 0.5832
vn 0.1434 0.7996 0.5830
vn 0.1137 -0.8412 0.5287
vn 0.2079 -0.2833 0.9362
vn 0.2311 0.1078 0.9669
vn 0.5806 -0.2987 0.7574
vn 0.6539 0.0957 0.7505
vn 0.4407 0.7543 0.4865
vn 0.3634 -0.8023 0.4736
vn 0.9060 -0.2434 0.3463
vn 0.9545 0.0817 0.2868
vn 0.6305 0.7579 0.1671
vn -0.0052 0.9999 0.0070
vn 0.5435 -0.8099 0.2204
vn 0.9664 0.2360 0.1015
vn 0.9972 0.0108 0.0741
vn -0.0338 0.9993 0.0149
vn 0.6077 -0.7903 0.0776
vn 0.0008 -1.0000 -0.0017
vn 0.9286 -0.3710 -0.0028
vn 0.9745 -0.1945 0.1119
vn 0.7144 0.6793 -0.1678
vn 0.7228 0.6908 0.0134
vn 0.7226 0.6911 0.0120
vn 0.7148 0.6702 -0.1996
vn 0.6510 0.4388 -0.6194
vn 0.7053 0.5897 -0.3933
vn 0.6921 0.5363 -0.4830
vn 0.6118 0.3754 -0.6962
vn 0.5126 0.4993 0.6985
vn 0.4739 0.8777 -0.0716
vn 0.5931 0.5907 0.5471
vn 0.6228 0.6183 0.4794
vn 0.4982 0.2643 -0.8258
vn 0.5651 0.3189 -0.7609
vn 0.5212 0.2829 -0.8052
vn 0.7074 0.6719 0.2191
vn 0.7004 0.6699 0.2464
vn 0.4332 0.9012 -0.0045
vn -0.3604 -0.2507 -0.8985
vn 0.0412 0.8151 0.5778
vn 0.0407 0.8252 0.5633
vn 0.0407 0.8260 0.5622
vn 0.0596 0.8469 0.5284
vn 0.0574 0.8456 0.5306
vn 0.1923 0.8847 0.4246
vn 0.1160 0.8547 0.5059
vn 0.3042 0.9039 0.3006
vn 0.4550 0.8595 0.2328
vn 0.4185 0.8794 0.2269
vn 0.5060 0.8511 0.1399
vn 0.5995 0.7758 0.1967
vn 0.9128 0.2724 0.3041
vn 0.9156 0.2556 0.3104
vn 0.8950 0.3976 0.2019
vn 0.8924 0.4207 0.1628
vn 0.8799 0.4747 -0.0195
vn 0.8794 0.4753 -0.0250
vn 0.8547 0.4465 -0.2647
vn 0.8601 0.4623 -0.2154
vn 0.6811 0.3797 -0.6260
vn 0.8133 0.4131 -0.4096
vn 0.7661 0.4019 -0.5014
vn 0.6048 0.3585 -0.7111
vn 0.5414 0.3392 -0.7692
vn 0.9189 0.1356 0.3703
vn 0.9157 0.1192 0.3837
vn 0.8169 -0.0226 0.5763
vn 0.8673 0.0302 0.4968
vn 0.7431 -0.0862 0.6636
vn -0.0351 -0.8526 0.5214
vn -0.0569 -0.8454 0.5311
vn -0.0386 0.8181 0.5737
vn -0.0422 0.8048 0.5921
vn -0.0668 0.1165 0.9909
vn -0.0707 0.1152 0.9908
vn -0.0645 -0.2855 0.9562
vn -0.0682 -0.2830 0.9567
vn -0.0385 -0.8411 0.5395
vn -0.1006 -0.2833 0.9537
vn -0.1040 0.1154 0.9879
vn -0.0623 0.8099 0.5832
vn -0.1434 0.7996 0.5830
vn -0.2079 -0.2833 0.9362
vn -0.1137 -0.8412 0.5287
vn -0.2311 0.1078 0.9669
vn -0.6539 0.0957 0.7505
vn -0.5806 -0.2987 0.7574
vn -0.4407 0.7543 0.4865
vn -0.3634 -0.8023 0.4736
vn -0.9545 0.0817 0.2868
vn -0.9060 -0.2434 0.3463
vn 0.0052 0.9999 0.0070
vn -0.6305 0.7579 0.1671
vn -0.5435 -0.8099 0.2204
vn -0.9664 0.2360 0.1015
vn -0.9972 0.0108 0.0741
vn 0.0338 0.9993 0.0149
vn -0.6077 -0.7903 0.0776
vn -0.0008 -1.0000 -0.0017
vn -0.9286 -0.3710 -0.0028
vn -0.9745 -0.1945 0.1119
vn -0.7144 0.6793 -0.1678
vn -0.7148 0.6702 -0.1996
vn -0.7226 0.6911 0.0120
vn -0.7228 0.6908 0.0134
vn -0.6510 0.4388 -0.6194
vn -0.6118 0.3754 -0.6962
vn -0.6921 0.5363 -0.4830
vn -0.7053 0.5897 -0.3933
vn -0.5126 0.4993 0.6985
vn -0.6228 0.6183 0.4794
vn -0.5931 0.5907 0.5471
vn -0.4739 0.8777 -0.0716
vn -0.4982 0.2643 -0.8258
vn -0.5212 0.2829 -0.8052
vn -0.5651 0.3189 -0.7609
vn -0.7074 0.6719 0.2191
vn -0.7004 0.6699 0.2464
vn -0.4332 0.9012 -0.0045
vn 0.3604 -0.2507 -0.8985
vn -0.0412 0.8151 0.5778
vn -0.0407 0.8260 0.5622
vn -0.0407 0.8252 0.5633
vn -0.0596 0.8469 0.5284
vn -0.0574 0.8456 0.5306
vn -0.1923 0.8847 0.4246
vn -0.1160 0.8547 0.5059
vn -0.3042 0.9039 0.3006
vn -0.4550 0.8595 0.2328
vn -0.4185 0.8794 0.2269
vn -0.5060 0.8511 0.1399
vn -0.5995 0.7758 0.1967
vn -0.9128 0.2724 0.3041
vn -0.8924 0.4207 0.1628
vn -0.8950 0.3976 0.2019
vn -0.9156 0.2556 0.3104
vn -0.8799 0.4747 -0.0195
vn -0.8601 0.4623 -0.2154
vn -0.8547 0.4465 -0.2647
vn -0.8794 0.4753 -0.0250
vn -0.6811 0.3797 -0.6260
vn -0.6048 0.3585 -0.7111
vn -0.7661 0.4019 -0.5014
vn -0.8133 0.4131 -0.4096
vn -0.5414 0.3392 -0.7692
vn -0.9157 0.1192 0.3837
vn -0.9189 0.1356 0.3703
vn -0.8169 -0.0226 0.5763
vn -0.8673 0.0302 0.4968
vn -0.7431 -0.0862 0.6636
usemtl Material.007
s 1
f 18/1/1 19/2/1 16/3/2 15/4/3
f 2/5/4 5/6/5 6/7/6 3/8/4
f 5/6/5 8/9/7 9/10/8 6/7/6
f 8/9/7 11/11/9 12/12/10 9/10/8
f 11/11/9 14/13/11 15/4/3 12/12/10
f 14/13/11 17/14/1 18/1/1 15/4/3
f 16/3/2 13/15/12 12/12/10 15/4/3
f 12/12/10 13/15/12 10/16/13 9/10/8
f 9/10/8 10/16/13 7/17/14 6/7/6
f 6/7/6 7/17/14 4/18/4 3/8/4
f 7/17/14 21/19/15 20/20/4 4/18/4
f 16/3/2 24/21/16 23/22/17 13/15/12
f 13/15/12 23/22/17 22/23/18 10/16/13
f 10/16/13 22/23/18 21/19/15 7/17/14
f 23/22/17 28/24/19 27/25/20 22/23/18
f 21/19/15 26/26/21 25/27/4 20/20/4
f 24/21/16 29/28/22 28/24/19 23/22/17
f 22/23/18 27/25/20 26/26/21 21/19/15
f 28/24/19 33/29/23 32/30/24 27/25/20
f 26/26/21 31/31/25 30/32/26 25/27/4
f 29/28/22 34/33/27 33/29/23 28/24/19
f 27/25/20 32/30/24 31/31/25 26/26/21
f 19/2/1 35/34/1 24/21/16 16/3/2
f 36/35/1 29/28/22 24/21/16 35/34/1
f 1/36/28 31/31/25 32/30/24 37/37/29
f 31/31/25 38/38/30 30/32/26
f 1/36/28 38/38/30 31/31/25
f 29/28/22 36/35/1 34/33/27
f 40/39/31 34/33/27 36/35/1 39/40/32
f 41/41/33 40/39/31 39/40/32
f 42/42/34 33/29/23 34/33/27 40/39/31
f 33/29/23 42/42/34 37/37/29 32/30/24
f 37/37/29 42/42/34 40/39/31 41/41/33
f 57/43/35 53/44/36 62/45/37 66/46/38
f 55/47/39 54/48/40 63/49/41 64/50/42
f 50/51/43 60/52/44 59/53/45 49/54/46
f 67/55/47 56/56/48 65/57/49
f 56/56/48 55/47/39 64/50/42 65/57/49
f 52/58/50 49/54/46 59/53/45 61/59/51
f 50/51/43 51/60/52 60/52/44
f 54/48/40 57/43/35 66/46/38 63/49/41
f 53/44/36 52/58/50 61/59/51 62/45/37
f 51/60/52 60/52/44 74/61/53 76/62/53 58/63/53
f 43/64/54 68/65/54 69/66/55 45/67/56
f 44/68/57 45/67/56 69/66/55 70/69/58
f 47/70/59 44/68/57 70/69/58 71/71/60
f 71/71/60 72/72/61 47/70/59
f 48/73/62 47/70/59 72/72/61 73/74/63
f 48/73/62 73/74/63 46/75/64
f 73/74/63 75/76/65 46/75/64
f 51/60/52 46/75/64 75/76/65 60/52/44
f 79/77/66 87/78/67 88/79/68 80/80/69
f 81/81/70 89/82/71 92/83/72 85/84/73
f 83/85/74 84/86/75 91/87/76 90/88/77
f 80/80/69 88/79/68 89/82/71 81/81/70
f 84/86/75 85/84/73 92/83/72 91/87/76
f 82/89/78 83/85/74 90/88/77
f 79/77/66 93/90/79 94/91/80 87/78/67
f 86/92/81 94/91/80 93/90/79 78/93/82
f 78/93/82 77/94/83 86/92/81
f 112/95/1 109/96/84 110/97/85 113/98/1
f 96/99/4 97/100/4 100/101/86 99/102/87
f 99/102/87 100/101/86 103/103/88 102/104/89
f 102/104/89 103/103/88 106/105/90 105/106/91
f 105/106/91 106/105/90 109/96/84 108/107/92
f 108/107/92 109/96/84 112/95/1 111/108/1
f 110/97/85 109/96/84 106/105/90 107/109/93
f 106/105/90 103/103/88 104/110/94 107/109/93
f 103/103/88 100/101/86 101/111/95 104/110/94
f 100/101/86 97/100/4 98/112/4 101/111/95
f 101/111/95 98/112/4 114/113/4 115/114/96
f 110/97/85 107/109/93 117/115/97 118/116/98
f 107/109/93 104/110/94 116/117/99 117/115/97
f 104/110/94 101/111/95 115/114/96 116/117/99
f 117/115/97 116/117/99 121/118/100 122/119/101
f 115/114/96 114/113/4 119/120/4 120/121/102
f 118/116/98 117/115/97 122/119/101 123/122/103
f 116/117/99 115/114/96 120/121/102 121/118/100
f 122/119/101 121/118/100 126/123/104 127/124/105
f 120/121/102 119/120/4 124/125/106 125/126/107
f 123/122/103 122/119/101 127/124/105 128/127/108
f 121/118/100 120/121/102 125/126/107 126/123/104
f 113/98/1 110/97/85 118/116/98 129/128/1
f 130/129/1 129/128/1 118/116/98 123/122/103
f 95/130/109 131/131/110 126/123/104 125/126/107
f 125/126/107 124/125/106 132/132/111
f 95/130/109 125/126/107 132/132/111
f 123/122/103 128/127/108 130/129/1
f 134/133/112 133/134/113 130/129/1 128/127/108
f 135/135/114 133/134/113 134/133/112
f 136/136/115 134/133/112 128/127/108 127/124/105
f 127/124/105 126/123/104 131/131/110 136/136/115
f 131/131/110 135/135/114 134/133/112 136/136/115
f 151/137/116 160/138/117 156/139/118 147/140/119
f 149/141/120 158/142/121 157/143/122 148/144/123
f 144/145/124 143/146/125 153/147/126 154/148/127
f 161/149/128 159/150/129 150/151/130
f 150/151/130 159/150/129 158/142/121 149/141/120
f 146/152/131 155/153/132 153/147/126 143/146/125
f 144/145/124 154/148/127 145/154/133
f 148/144/123 157/143/122 160/138/117 151/137/116
f 147/140/119 156/139/118 155/153/132 146/152/131
f 145/154/133 152/155/134 170/156/134 168/157/134 154/148/127
f 137/158/135 139/159/136 163/160/137 162/161/135
f 138/162/138 164/163/139 163/160/137 139/159/136
f 141/164/140 165/165/141 164/163/139 138/162/138
f 165/165/141 141/164/140 166/166/142
f 142/167/143 167/168/144 166/166/142 141/164/140
f 142/167/143 140/169/145 167/168/144
f 167/168/144 140/169/145 169/170/146
f 145/154/133 154/148/127 169/170/146 140/169/145
f 173/171/147 174/172/148 182/173/149 181/174/150
f 175/175/151 179/176/152 186/177/153 183/178/154
f 177/179/155 184/180/156 185/181/157 178/182/158
f 174/172/148 175/175/151 183/178/154 182/173/149
f 178/182/158 185/181/157 186/177/153 179/176/152
f 176/183/159 184/180/156 177/179/155
f 173/171/147 181/174/150 188/184/160 187/185/161
f 180/186/162 172/187/163 187/185/161 188/184/160
f 172/187/163 180/186/162 171/188/164
