# Blender v3.0.0 OBJ File: 'volvo240.blend'
# www.blender.org
mtllib bolbotails.mtl
o taillight_Plane.006
v 0.740270 0.760871 -4.654409
v 0.748610 0.761048 -4.571995
v 0.752052 0.730903 -4.537983
v 0.752052 0.607081 -4.536214
v 0.746732 0.582316 -4.559209
v 0.628559 0.760871 -4.686208
v 0.569167 0.760871 -4.691508
v 0.317760 0.760871 -4.698927
v 0.740270 0.583590 -4.654409
v 0.628559 0.583590 -4.686208
v 0.569167 0.583590 -4.691508
v 0.317760 0.583590 -4.698927
v -0.740270 0.760871 -4.654409
v -0.748610 0.761048 -4.571995
v -0.752052 0.730903 -4.537983
v -0.752052 0.607081 -4.536214
v -0.746732 0.582316 -4.559209
v -0.628559 0.760871 -4.686208
v -0.569167 0.760871 -4.691508
v -0.317760 0.760871 -4.698927
v -0.740270 0.583590 -4.654409
v -0.628559 0.583590 -4.686208
v -0.569167 0.583590 -4.691508
v -0.317760 0.583590 -4.698927
vt 0.000000 0.000000
vt 0.000000 0.000000
vt 0.000000 0.000000
vt 0.000000 0.000000
vt 0.000000 0.000000
vt 0.000000 0.000000
vt 0.000000 0.000000
vt 0.000000 0.000000
vt 0.000000 0.000000
vt 0.000000 0.000000
vt 0.000000 0.000000
vt 0.000000 0.000000
vt 0.000000 0.000000
vt 0.000000 0.000000
vt 0.000000 0.000000
vt 0.000000 0.000000
vt 0.000000 0.000000
vt 0.000000 0.000000
vt 0.000000 0.000000
vt 0.000000 0.000000
vt 0.000000 0.000000
vt 0.000000 0.000000
vt 0.000000 0.000000
vt 0.000000 0.000000
vn 0.0295 0.0000 -0.9995
vn 0.0592 0.0000 -0.9982
vn 0.1821 0.0000 -0.9832
vn 0.7677 -0.0056 -0.6407
vn 0.7693 -0.0057 -0.6389
vn 0.9951 -0.0094 -0.0982
vn -0.0295 0.0000 -0.9995
vn -0.0592 0.0000 -0.9982
vn -0.1821 0.0000 -0.9832
vn -0.7693 -0.0057 -0.6389
vn -0.7677 -0.0056 -0.6407
vn -0.9951 -0.0094 -0.0982
usemtl Material.003
s 1
f 8/1/1 7/2/2 11/3/2 12/4/1
f 7/2/2 6/5/3 10/6/3 11/3/2
f 6/5/3 1/7/4 9/8/5 10/6/3
f 1/7/4 2/9/6 3/10/6 4/11/6 5/12/6 9/8/5
f 20/13/7 24/14/7 23/15/8 19/16/8
f 19/16/8 23/15/8 22/17/9 18/18/9
f 18/18/9 22/17/9 21/19/10 13/20/11
f 13/20/11 21/19/10 17/21/12 16/22/12 15/23/12 14/24/12
