# Blender v3.0.0 OBJ File: '711.blend'
# www.blender.org
mtllib 711FLRim.mtl
o or.004_Circle.003
v 0.107387 -0.040901 -0.004081
v 0.107387 -0.031099 -0.027077
v 0.107387 -0.035314 0.020286
v 0.121570 -0.097835 -0.010386
v 0.122437 -0.040901 -0.004081
v 0.122437 -0.031099 -0.027077
v 0.122437 -0.035314 0.020286
v 0.122437 -0.004065 -0.015555
v 0.122437 0.002841 0.014564
v 0.122437 0.034090 -0.021277
v 0.122437 -0.009652 -0.039921
v 0.107387 -0.009652 -0.039921
v 0.122437 0.015248 -0.037705
v 0.107387 0.015248 -0.037705
v 0.107387 0.034090 -0.021277
v 0.121570 0.037429 -0.084408
v 0.121570 -0.021249 -0.096016
v 0.121570 0.083857 -0.049640
v 0.133800 0.042035 -0.106132
v 0.121570 0.015138 -0.116011
v 0.121570 0.073351 -0.094817
v 0.133800 0.049827 -0.152649
v 0.121570 0.024664 -0.158841
v 0.121570 0.079078 -0.145672
v 0.133800 0.053848 -0.192182
v 0.121570 0.015743 -0.198690
v 0.121570 0.093886 -0.181167
v 0.121570 0.056938 -0.224636
v 0.121570 -0.000612 -0.231906
v 0.121570 0.110871 -0.203282
v 0.121570 0.060962 -0.243214
v 0.121570 -0.001253 -0.251074
v 0.121570 0.119268 -0.220129
v 0.094801 0.060962 -0.243214
v 0.094801 -0.001253 -0.251074
v 0.094801 0.119268 -0.220129
v 0.094801 0.050826 -0.188476
v 0.094801 0.002116 -0.194629
v 0.094801 0.096475 -0.170402
v 0.094801 0.136196 -0.141544
v 0.094801 0.167491 -0.103714
v 0.094801 0.170001 -0.183269
v 0.094801 0.209973 -0.134951
v 0.121570 0.170001 -0.183269
v 0.121570 0.209973 -0.134951
v 0.121570 0.157800 -0.169186
v 0.121570 0.194774 -0.124491
v 0.121570 0.219473 -0.072005
v 0.121570 0.230342 -0.015026
v 0.121570 0.192936 -0.046186
v 0.121570 0.236674 -0.078210
v 0.121570 0.248424 -0.016611
v 0.094801 0.236674 -0.078210
v 0.094801 0.248424 -0.016611
v 0.094801 0.188395 -0.059290
v 0.094801 0.197595 -0.011063
v 0.094801 0.194513 0.037937
v 0.094801 0.244487 0.045975
v 0.094801 0.179341 0.084631
v 0.094801 0.153033 0.126085
v 0.094801 0.225108 0.105615
v 0.094801 0.191507 0.158562
v 0.121570 0.225108 0.105615
v 0.121570 0.208775 0.098034
v 0.121570 0.244487 0.045975
v 0.121570 0.191507 0.158562
v 0.121570 0.177693 0.147011
v 0.121570 0.145794 0.201490
v 0.121570 0.090841 0.231701
v 0.121570 0.135408 0.186719
v 0.094801 0.145794 0.201490
v 0.094801 0.090841 0.231701
v 0.094801 0.117243 0.159694
v 0.094801 0.074219 0.183347
v 0.094801 0.026665 0.195557
v 0.094801 -0.022432 0.195557
v 0.094801 0.030102 0.247296
v 0.094801 -0.032608 0.247296
v 0.121570 0.030102 0.247296
v 0.121570 -0.032608 0.247296
v 0.121570 0.028392 0.229090
v 0.121570 0.084576 0.214664
v 0.121570 -0.029615 0.229090
v 0.121570 0.029134 0.201215
v 0.121570 0.020250 0.163796
v 0.133800 0.068000 0.186593
v 0.121570 0.102653 0.169461
v 0.133800 0.048016 0.152247
v 0.121570 0.072012 0.142465
v 0.133800 0.026978 0.110033
v 0.121570 0.054545 0.102216
v 0.121570 -0.005008 0.119286
v 0.121570 0.017935 0.089751
v 0.121570 0.072230 0.064652
v 0.121570 -0.040061 0.088913
v 0.107387 0.008429 0.038930
v 0.107387 0.029876 0.026086
v 0.107387 -0.016472 0.036714
v 0.122437 0.008429 0.038930
v 0.122437 0.029876 0.026086
v 0.122437 -0.016472 0.036714
v 0.122437 0.039678 0.003090
v 0.107387 0.039678 0.003090
v 0.121570 0.090949 0.009753
v 0.121570 0.072145 0.064741
v 0.133800 0.113033 0.007420
v 0.121570 0.114117 -0.021213
v 0.121570 0.111949 0.040701
v 0.133800 0.159681 0.000457
v 0.121570 0.157794 -0.025388
v 0.121570 0.162085 0.030432
v 0.133800 0.198522 -0.007935
v 0.121570 0.200418 0.033547
v 0.121570 0.226700 0.042867
v 0.121570 -0.081252 0.083701
v 0.121570 -0.080710 0.045032
v 0.133800 -0.097205 0.059899
v 0.121570 -0.115890 0.032338
v 0.133800 -0.130851 0.092952
v 0.121570 -0.114133 0.112751
v 0.121570 -0.150415 0.070114
v 0.133800 -0.157342 0.122572
v 0.121570 -0.130339 0.150234
v 0.121570 -0.183258 0.090126
v 0.121570 -0.178917 0.147011
v 0.121570 -0.136631 0.186720
v 0.121570 -0.209998 0.098034
v 0.121570 -0.194013 0.158563
v 0.121570 -0.148300 0.201490
v 0.121570 -0.227615 0.105615
v 0.094801 -0.194013 0.158563
v 0.094801 -0.148300 0.201490
v 0.094801 -0.227615 0.105615
v 0.094801 -0.148800 0.126085
v 0.094801 -0.113010 0.159694
v 0.094801 -0.175108 0.084631
v 0.094801 -0.190280 0.037937
v 0.094801 -0.193362 -0.011063
v 0.094801 -0.246993 0.045975
v 0.094801 -0.250931 -0.016611
v 0.121570 -0.246993 0.045975
v 0.121570 -0.250931 -0.016611
v 0.121570 -0.227923 0.042867
v 0.121570 -0.231566 -0.015026
v 0.121570 -0.220696 -0.072005
v 0.121570 -0.195998 -0.124491
v 0.121570 -0.184052 -0.077296
v 0.121570 -0.239180 -0.078210
v 0.121570 -0.212480 -0.134951
v 0.094801 -0.239180 -0.078210
v 0.094801 -0.212480 -0.134951
v 0.094801 -0.184163 -0.059290
v 0.094801 -0.163258 -0.103714
v 0.094801 -0.131963 -0.141544
v 0.094801 -0.092242 -0.170402
v 0.094801 -0.172507 -0.183269
v 0.094801 -0.121774 -0.220129
v 0.121570 -0.172507 -0.183269
v 0.121570 -0.121774 -0.220129
v 0.121570 -0.159023 -0.169186
v 0.121570 -0.112095 -0.203282
v 0.121570 -0.143239 -0.146199
v 0.121570 -0.114057 -0.121147
v 0.133800 -0.166088 -0.111525
v 0.133800 -0.129732 -0.095484
v 0.121570 -0.143396 -0.073466
v 0.133800 -0.087900 -0.073698
v 0.121570 -0.105606 -0.051171
v 0.121570 -0.067461 -0.099985
v 0.121570 -0.068662 -0.062605
v 0.121570 -0.058161 -0.224636
v 0.121570 -0.063468 -0.243214
v 0.094801 -0.063468 -0.243214
v 0.094801 -0.046593 -0.188476
v 0.094801 -0.069986 0.183347
v 0.094801 -0.093347 0.231701
v 0.121570 -0.093347 0.231701
v 0.121570 -0.085800 0.214664
vt 0.000000 0.000000
vt 0.000000 0.000000
vt 0.000000 0.000000
vt 0.000000 0.000000
vt 0.000000 0.000000
vt 0.000000 0.000000
vt 0.000000 0.000000
vt 0.000000 0.000000
vt 0.000000 0.000000
vt 0.000000 0.000000
vt 0.000000 0.000000
vt 0.000000 0.000000
vt 0.000000 0.000000
vt 0.000000 0.000000
vt 0.000000 0.000000
vt 0.000000 0.000000
vt 0.000000 0.000000
vt 0.000000 0.000000
vt 0.000000 0.000000
vt 0.000000 0.000000
vt 0.000000 0.000000
vt 0.000000 0.000000
vt 0.000000 0.000000
vt 0.000000 0.000000
vt 0.000000 0.000000
vt 0.000000 0.000000
vt 0.000000 0.000000
vt 0.000000 0.000000
vt 0.000000 0.000000
vt 0.000000 0.000000
vt 0.000000 0.000000
vt 0.000000 0.000000
vt 0.000000 0.000000
vt 0.000000 0.000000
vt 0.000000 0.000000
vt 0.000000 0.000000
vt 0.000000 0.000000
vt 0.000000 0.000000
vt 0.000000 0.000000
vt 0.000000 0.000000
vt 0.000000 0.000000
vt 0.000000 0.000000
vt 0.000000 0.000000
vt 0.000000 0.000000
vt 0.000000 0.000000
vt 0.000000 0.000000
vt 0.000000 0.000000
vt 0.000000 0.000000
vt 0.000000 0.000000
vt 0.000000 0.000000
vt 0.000000 0.000000
vt 0.000000 0.000000
vt 0.000000 0.000000
vt 0.000000 0.000000
vt 0.000000 0.000000
vt 0.000000 0.000000
vt 0.000000 0.000000
vt 0.000000 0.000000
vt 0.000000 0.000000
vt 0.000000 0.000000
vt 0.000000 0.000000
vt 0.000000 0.000000
vt 0.000000 0.000000
vt 0.000000 0.000000
vt 0.000000 0.000000
vt 0.000000 0.000000
vt 0.000000 0.000000
vt 0.000000 0.000000
vt 0.000000 0.000000
vt 0.000000 0.000000
vt 0.000000 0.000000
vt 0.000000 0.000000
vt 0.000000 0.000000
vt 0.000000 0.000000
vt 0.000000 0.000000
vt 0.000000 0.000000
vt 0.000000 0.000000
vt 0.000000 0.000000
vt 0.000000 0.000000
vt 0.000000 0.000000
vt 0.000000 0.000000
vt 0.000000 0.000000
vt 0.000000 0.000000
vt 0.000000 0.000000
vt 0.000000 0.000000
vt 0.000000 0.000000
vt 0.000000 0.000000
vt 0.000000 0.000000
vt 0.000000 0.000000
vt 0.000000 0.000000
vt 0.000000 0.000000
vt 0.000000 0.000000
vt 0.000000 0.000000
vt 0.000000 0.000000
vt 0.000000 0.000000
vt 0.000000 0.000000
vt 0.000000 0.000000
vt 0.000000 0.000000
vt 0.000000 0.000000
vt 0.000000 0.000000
vt 0.000000 0.000000
vt 0.000000 0.000000
vt 0.000000 0.000000
vt 0.000000 0.000000
vt 0.000000 0.000000
vt 0.000000 0.000000
vt 0.000000 0.000000
vt 0.000000 0.000000
vt 0.000000 0.000000
vt 0.000000 0.000000
vt 0.000000 0.000000
vt 0.000000 0.000000
vt 0.000000 0.000000
vt 0.000000 0.000000
vt 0.000000 0.000000
vt 0.000000 0.000000
vt 0.000000 0.000000
vt 0.000000 0.000000
vt 0.000000 0.000000
vt 0.000000 0.000000
vt 0.000000 0.000000
vt 0.000000 0.000000
vt 0.000000 0.000000
vt 0.000000 0.000000
vt 0.000000 0.000000
vt 0.000000 0.000000
vt 0.000000 0.000000
vt 0.000000 0.000000
vt 0.000000 0.000000
vt 0.000000 0.000000
vt 0.000000 0.000000
vt 0.000000 0.000000
vt 0.000000 0.000000
vt 0.000000 0.000000
vt 0.000000 0.000000
vt 0.000000 0.000000
vt 0.000000 0.000000
vt 0.000000 0.000000
vt 0.000000 0.000000
vt 0.000000 0.000000
vt 0.000000 0.000000
vt 0.000000 0.000000
vt 0.000000 0.000000
vt 0.000000 0.000000
vt 0.000000 0.000000
vt 0.000000 0.000000
vt 0.000000 0.000000
vt 0.000000 0.000000
vt 0.000000 0.000000
vt 0.000000 0.000000
vt 0.000000 0.000000
vt 0.000000 0.000000
vt 0.000000 0.000000
vt 0.000000 0.000000
vt 0.000000 0.000000
vt 0.000000 0.000000
vt 0.000000 0.000000
vt 0.000000 0.000000
vt 0.000000 0.000000
vt 0.000000 0.000000
vt 0.000000 0.000000
vt 0.000000 0.000000
vt 0.000000 0.000000
vt 0.000000 0.000000
vt 0.000000 0.000000
vt 0.000000 0.000000
vt 0.000000 0.000000
vt 0.000000 0.000000
vt 0.000000 0.000000
vt 0.000000 0.000000
vt 0.000000 0.000000
vt 0.000000 0.000000
vt 0.000000 0.000000
vt 0.000000 0.000000
vt 0.000000 0.000000
vt 0.000000 0.000000
vt 0.000000 0.000000
vt 0.000000 0.000000
vn 0.8684 -0.4939 -0.0422
vn 0.8721 -0.3696 -0.3205
vn 0.6437 -0.5768 -0.5029
vn 0.6437 -0.7622 -0.0678
vn 0.9836 0.1791 0.0210
vn 0.9795 0.1562 0.1274
vn 0.8721 -0.4190 0.2525
vn 0.6437 -0.6565 0.3931
vn 0.9795 0.1695 -0.1092
vn 0.6437 -0.1710 -0.7459
vn 1.0000 0.0000 0.0000
vn 0.6437 0.6565 -0.3931
vn 0.6437 0.7622 0.0678
vn 0.6437 0.3000 -0.7040
vn 0.8684 -0.1125 -0.4828
vn 0.8721 0.1906 -0.4506
vn 0.8684 0.4244 -0.2562
vn 0.9836 0.0353 0.1768
vn 0.9795 -0.0729 0.1880
vn 0.9836 -0.1572 0.0882
vn 0.9609 -0.2745 0.0345
vn 0.9974 -0.0224 0.0678
vn 0.9763 0.1744 0.1281
vn 0.9237 -0.3824 -0.0217
vn 0.9996 -0.0193 0.0193
vn 0.9392 0.3371 0.0646
vn 0.9753 -0.1981 -0.0974
vn 0.9984 -0.0009 -0.0560
vn 0.9696 0.2386 -0.0539
vn 0.9991 -0.0231 -0.0367
vn 0.9972 0.0113 -0.0733
vn 0.9979 0.0496 -0.0422
vn 0.6800 0.0000 0.7332
vn 0.6800 -0.1823 0.7102
vn 0.6800 -0.3532 0.6425
vn 0.6800 -0.5019 0.5345
vn 0.6800 -0.6191 0.3929
vn 0.9991 0.0277 -0.0333
vn 0.6800 -0.6973 0.2266
vn 0.9972 0.0732 -0.0119
vn 0.6800 -0.7318 0.0460
vn 0.9984 0.0530 -0.0182
vn 0.9753 0.0315 -0.2185
vn 0.6800 -0.7202 -0.1374
vn 0.6800 -0.6634 -0.3122
vn 0.6800 -0.5650 -0.4674
vn 0.9979 0.0555 0.0342
vn 0.9991 0.0402 0.0161
vn 0.6800 -0.4310 -0.5932
vn 0.6800 -0.2699 -0.6818
vn 0.9972 0.0339 0.0659
vn 0.6800 -0.0919 -0.7275
vn 0.6800 0.0919 -0.7275
vn 0.9979 -0.0154 0.0633
vn 0.9696 -0.1614 0.1838
vn 0.9984 0.0337 0.0448
vn 0.9392 -0.3107 0.1459
vn 0.9996 0.0043 -0.0270
vn 0.9753 0.2176 -0.0376
vn 0.9237 0.3221 -0.2071
vn 0.9974 -0.0218 -0.0680
vn 0.9609 0.2018 -0.1893
vn 0.9763 -0.2163 -0.0012
vn 0.9795 -0.0515 -0.1949
vn 0.9766 -0.1273 -0.1733
vn 0.9836 0.0754 -0.1638
vn 0.8684 0.3748 0.3245
vn 0.8721 0.1107 0.4765
vn 0.8684 -0.1928 0.4567
vn 0.6437 0.1710 0.7459
vn 0.6437 0.5768 0.5029
vn 0.6437 -0.3000 0.7040
vn 0.8721 0.4874 0.0420
vn 0.9795 -0.2012 -0.0113
vn 0.9609 -0.1176 -0.2504
vn 0.9974 -0.0714 -0.0003
vn 0.9832 -0.1507 0.1023
vn 0.9763 -0.0678 0.2053
vn 0.9237 -0.0975 -0.3704
vn 0.9996 -0.0244 -0.0124
vn 0.9392 0.0428 0.3406
vn 0.9696 0.1249 0.2102
vn 0.9609 0.2424 0.1335
vn 0.9974 0.0580 -0.0417
vn 0.9763 -0.0657 -0.2061
vn 0.9237 0.2965 0.2423
vn 0.9996 0.0270 -0.0042
vn 0.9392 -0.2348 -0.2504
vn 0.9753 0.1030 0.1953
vn 0.9984 -0.0322 0.0459
vn 0.9696 -0.2247 -0.0967
vn 0.9991 -0.0029 0.0432
vn 0.9972 -0.0522 0.0526
vn 0.9979 -0.0649 0.0049
vn 0.6800 0.4310 -0.5932
vn 0.6800 0.5650 -0.4674
vn 0.6800 0.6634 -0.3122
vn 0.6800 0.7202 -0.1374
vn 0.6800 0.7318 0.0460
vn 0.9991 -0.0420 0.0106
vn 0.6800 0.6973 0.2266
vn 0.9972 -0.0662 -0.0334
vn 0.6800 0.6191 0.3929
vn 0.9984 -0.0536 -0.0164
vn 0.9753 -0.1539 0.1583
vn 0.6800 0.5019 0.5345
vn 0.6800 0.3532 0.6425
vn 0.9979 -0.0248 -0.0602
vn 0.9696 0.0225 -0.2436
vn 0.9392 0.1656 -0.3007
vn 0.9996 0.0124 0.0244
vn 0.9237 -0.1388 0.3569
vn 0.9974 0.0576 0.0422
vn 0.9609 -0.0520 0.2718
vn 0.9763 0.1757 -0.1262
vn 0.6800 0.1823 0.7102
vn 0.6800 0.2699 -0.6818
usemtl None
s 1
f 1/1/1 2/2/2 6/3/3 5/4/4
f 1/1/1 4/5/5 170/6/6 2/2/2
f 3/7/7 1/1/1 5/4/4 7/8/8
f 3/7/7 116/9/9 4/5/5 1/1/1
f 6/3/3 11/10/10 8/11/11 5/4/4
f 5/4/4 8/11/11 9/12/11 7/8/8
f 8/11/11 10/13/12 102/14/13 9/12/11
f 11/10/10 13/15/14 10/13/12 8/11/11
f 2/2/2 12/16/15 11/10/10 6/3/3
f 12/16/15 14/17/16 13/15/14 11/10/10
f 14/17/16 15/18/17 10/13/12 13/15/14
f 12/16/15 17/19/18 16/20/19 14/17/16
f 14/17/16 16/20/19 18/21/20 15/18/17
f 16/20/19 17/19/18 20/22/21 19/23/22
f 18/21/20 16/20/19 19/23/22 21/24/23
f 19/23/22 20/22/21 23/25/24 22/26/25
f 21/24/23 19/23/22 22/26/25 24/27/26
f 22/26/25 23/25/24 26/28/27 25/29/28
f 24/27/26 22/26/25 25/29/28 27/30/29
f 29/31/30 28/32/31 25/29/28 26/28/27
f 28/32/31 30/33/32 27/30/29 25/29/28
f 28/32/31 29/31/30 32/34/33 31/35/34
f 30/33/32 28/32/31 31/35/34 33/36/35
f 31/35/34 34/37/34 35/38/33 32/34/33
f 33/36/35 36/39/35 34/37/34 31/35/34
f 34/37/34 37/40/11 38/41/11 35/38/33
f 36/39/35 39/42/11 37/40/11 34/37/34
f 42/43/36 40/44/11 39/42/11 36/39/35
f 43/45/37 41/46/11 40/44/11 42/43/36
f 45/47/37 43/45/37 42/43/36 44/48/36
f 44/48/36 42/43/36 36/39/35 33/36/35
f 47/49/11 46/50/11 44/48/36 45/47/37
f 46/50/11 30/33/32 33/36/35 44/48/36
f 48/51/38 47/49/11 45/47/37 51/52/39
f 49/53/40 48/51/38 51/52/39 52/54/41
f 48/51/38 49/53/40 112/55/42 50/56/43
f 51/52/39 53/57/39 43/45/37 45/47/37
f 52/54/41 54/58/41 53/57/39 51/52/39
f 53/57/39 55/59/11 41/46/11 43/45/37
f 54/58/41 56/60/11 55/59/11 53/57/39
f 58/61/44 57/62/11 56/60/11 54/58/41
f 61/63/45 59/64/11 57/62/11 58/61/44
f 62/65/46 60/66/11 59/64/11 61/63/45
f 66/67/46 62/65/46 61/63/45 63/68/45
f 63/68/45 61/63/45 58/61/44 65/69/44
f 67/70/11 64/71/11 63/68/45 66/67/46
f 64/71/11 114/72/47 65/69/44 63/68/45
f 70/73/48 67/70/11 66/67/46 68/74/49
f 68/74/49 71/75/49 62/65/46 66/67/46
f 69/76/50 72/77/50 71/75/49 68/74/49
f 82/78/51 70/73/48 68/74/49 69/76/50
f 71/75/49 73/79/11 60/66/11 62/65/46
f 72/77/50 74/80/11 73/79/11 71/75/49
f 77/81/52 75/82/11 74/80/11 72/77/50
f 78/83/53 76/84/11 75/82/11 77/81/52
f 79/85/52 77/81/52 72/77/50 69/76/50
f 80/86/53 78/83/53 77/81/52 79/85/52
f 81/87/54 82/78/51 69/76/50 79/85/52
f 83/88/11 81/87/54 79/85/52 80/86/53
f 82/78/51 81/87/54 84/89/55 86/90/56
f 85/91/57 88/92/58 86/90/56 84/89/55
f 70/73/48 82/78/51 86/90/56 87/93/59
f 88/92/58 89/94/60 87/93/59 86/90/56
f 90/95/61 91/96/62 89/94/60 88/92/58
f 92/97/63 90/95/61 88/92/58 85/91/57
f 93/98/64 94/99/65 91/96/62 90/95/61
f 95/100/66 93/98/64 90/95/61 92/97/63
f 97/101/67 94/99/65 93/98/64 96/102/68
f 96/102/68 93/98/64 95/100/66 98/103/69
f 97/101/67 96/102/68 99/104/70 100/105/71
f 96/102/68 98/103/69 101/106/72 99/104/70
f 9/12/11 102/14/13 100/105/71 99/104/70
f 7/8/8 9/12/11 99/104/70 101/106/72
f 98/103/69 3/7/7 7/8/8 101/106/72
f 103/107/73 97/101/67 100/105/71 102/14/13
f 15/18/17 103/107/73 102/14/13 10/13/12
f 15/18/17 18/21/20 104/108/74 103/107/73
f 97/101/67 103/107/73 104/108/74 94/99/65
f 104/108/74 18/21/20 107/109/75 106/110/76
f 105/111/77 104/108/74 106/110/76 108/112/78
f 106/110/76 107/109/75 110/113/79 109/114/80
f 108/112/78 106/110/76 109/114/80 111/115/81
f 109/114/80 110/113/79 50/56/43 112/55/42
f 111/115/81 109/114/80 112/55/42 113/116/82
f 49/53/40 114/72/47 113/116/82 112/55/42
f 114/72/47 49/53/40 52/54/41 65/69/44
f 98/103/69 95/100/66 116/9/9 3/7/7
f 116/9/9 95/100/66 115/117/83 117/118/84
f 4/5/5 116/9/9 117/118/84 118/119/85
f 117/118/84 115/117/83 120/120/86 119/121/87
f 118/119/85 117/118/84 119/121/87 121/122/88
f 119/121/87 120/120/86 123/123/89 122/124/90
f 121/122/88 119/121/87 122/124/90 124/125/91
f 126/126/92 125/127/93 122/124/90 123/123/89
f 125/127/93 127/128/94 124/125/91 122/124/90
f 125/127/93 126/126/92 129/129/95 128/130/96
f 127/128/94 125/127/93 128/130/96 130/131/97
f 128/130/96 131/132/96 132/133/95 129/129/95
f 130/131/97 133/134/97 131/132/96 128/130/96
f 131/132/96 134/135/11 135/136/11 132/133/95
f 133/134/97 136/137/11 134/135/11 131/132/96
f 139/138/98 137/139/11 136/137/11 133/134/97
f 140/140/99 138/141/11 137/139/11 139/138/98
f 142/142/99 140/140/99 139/138/98 141/143/98
f 141/143/98 139/138/98 133/134/97 130/131/97
f 144/144/11 143/145/11 141/143/98 142/142/99
f 143/145/11 127/128/94 130/131/97 141/143/98
f 145/146/100 144/144/11 142/142/99 148/147/101
f 146/148/102 145/146/100 148/147/101 149/149/103
f 145/146/100 146/148/102 164/150/104 147/151/105
f 148/147/101 150/152/101 140/140/99 142/142/99
f 149/149/103 151/153/103 150/152/101 148/147/101
f 150/152/101 152/154/11 138/141/11 140/140/99
f 151/153/103 153/155/11 152/154/11 150/152/101
f 156/156/106 154/157/11 153/155/11 151/153/103
f 157/158/107 155/159/11 154/157/11 156/156/106
f 158/160/106 156/156/106 151/153/103 149/149/103
f 159/161/107 157/158/107 156/156/106 158/160/106
f 160/162/108 146/148/102 149/149/103 158/160/106
f 161/163/11 160/162/108 158/160/106 159/161/107
f 146/148/102 160/162/108 162/164/109 164/150/104
f 163/165/110 165/166/111 164/150/104 162/164/109
f 165/166/111 166/167/112 147/151/105 164/150/104
f 167/168/113 168/169/114 166/167/112 165/166/111
f 169/170/115 167/168/113 165/166/111 163/165/110
f 170/6/6 4/5/5 168/169/114 167/168/113
f 17/19/18 170/6/6 167/168/113 169/170/115
f 2/2/2 170/6/6 17/19/18 12/16/15
f 171/171/11 161/163/11 159/161/107 172/172/116
f 29/31/30 171/171/11 172/172/116 32/34/33
f 172/172/116 173/173/116 157/158/107 159/161/107
f 32/34/33 35/38/33 173/173/116 172/172/116
f 173/173/116 174/174/11 155/159/11 157/158/107
f 35/38/33 38/41/11 174/174/11 173/173/116
f 132/133/95 135/136/11 175/175/11 176/176/117
f 176/176/117 175/175/11 76/84/11 78/83/53
f 177/177/117 176/176/117 78/83/53 80/86/53
f 129/129/95 132/133/95 176/176/117 177/177/117
f 178/178/11 83/88/11 80/86/53 177/177/117
f 126/126/92 178/178/11 177/177/117 129/129/95
f 65/69/44 58/61/44 54/58/41 52/54/41
