# Blender v3.0.0 OBJ File: '711.blend'
# www.blender.org
mtllib 711FLTire.mtl
o or.005_Circle.004
v 0.121218 0.172615 0.181503
v 0.121218 0.212587 0.133185
v 0.121218 0.121882 0.218363
v 0.109323 0.203622 0.217414
v 0.109323 0.251229 0.159867
v 0.109323 0.143200 0.261314
v 0.088979 0.221709 0.236674
v 0.088979 0.273538 0.174024
v 0.088979 0.155928 0.284467
v -0.150765 0.221709 0.236674
v -0.150765 0.273538 0.174024
v -0.150765 0.155928 0.284467
v -0.168754 0.163421 0.174604
v -0.168754 0.201645 0.128400
v -0.168754 0.114908 0.209851
v -0.168754 0.059153 0.231927
v -0.168754 -0.000340 0.239442
v -0.150765 0.080328 0.314399
v -0.150765 -0.000340 0.324590
v 0.088979 0.080328 0.314399
v 0.088979 -0.000340 0.324590
v 0.109323 0.073758 0.288808
v 0.109323 -0.000340 0.298169
v 0.121218 0.063576 0.241448
v 0.121218 0.001361 0.249307
v 0.121218 -0.060854 0.241448
v 0.121218 -0.119160 0.218363
v 0.109323 -0.074438 0.288808
v 0.109323 -0.143880 0.261314
v 0.088979 -0.081009 0.314399
v 0.088979 -0.156609 0.284467
v -0.150765 -0.081009 0.314399
v -0.150765 -0.156609 0.284467
v -0.168754 -0.059833 0.231926
v -0.168754 -0.115588 0.209851
v -0.168754 -0.164102 0.174604
v -0.168754 -0.202326 0.128400
v -0.150765 -0.222389 0.236674
v -0.150765 -0.274218 0.174024
v 0.088979 -0.222389 0.236674
v 0.088979 -0.274218 0.174024
v 0.109323 -0.204303 0.217414
v 0.109323 -0.251910 0.159867
v 0.121218 -0.169893 0.181503
v 0.121218 -0.209866 0.133185
v 0.121218 -0.236566 0.076444
v 0.121218 -0.248317 0.014845
v 0.109323 -0.283710 0.092288
v 0.109323 -0.297705 0.018925
v 0.088979 -0.308838 0.100453
v 0.088979 -0.324074 0.020583
v -0.150765 -0.308838 0.100453
v -0.150765 -0.324074 0.020583
v -0.168754 -0.227858 0.074141
v -0.168754 -0.239094 0.015237
v -0.168754 -0.235329 -0.044611
v -0.168754 -0.216799 -0.101642
v -0.150765 -0.318969 -0.060566
v -0.150765 -0.293842 -0.137896
v 0.088979 -0.318969 -0.060566
v 0.088979 -0.293842 -0.137896
v 0.109323 -0.293015 -0.055615
v 0.109323 -0.269936 -0.126646
v 0.121218 -0.244379 -0.047741
v 0.121218 -0.225001 -0.107381
v 0.121218 -0.191399 -0.160329
v 0.121218 -0.145686 -0.203256
v 0.109323 -0.229917 -0.189706
v 0.109323 -0.175472 -0.240833
v 0.088979 -0.250275 -0.206548
v 0.088979 -0.191002 -0.262208
v -0.150765 -0.250275 -0.206548
v -0.150765 -0.191002 -0.262208
v -0.168754 -0.184667 -0.152273
v -0.168754 -0.140954 -0.193322
v -0.168754 -0.088405 -0.222211
v -0.168754 -0.030323 -0.237124
v -0.150765 -0.119750 -0.301379
v -0.150765 -0.040995 -0.321600
v 0.088979 -0.119750 -0.301379
v 0.088979 -0.040995 -0.321600
v 0.109323 -0.110024 -0.276813
v 0.109323 -0.037684 -0.295387
v 0.121218 -0.090733 -0.233467
v 0.121218 -0.029994 -0.249062
v 0.121218 0.032716 -0.249062
v 0.121218 0.093455 -0.233467
v 0.109323 0.037003 -0.295387
v 0.109323 0.109343 -0.276813
v 0.088979 0.040315 -0.321600
v 0.088979 0.119070 -0.301379
v -0.150765 0.040315 -0.321600
v -0.150765 0.119070 -0.301379
v -0.168754 0.029643 -0.237124
v -0.168754 0.087725 -0.222211
v -0.168754 0.140273 -0.193322
v -0.168754 0.183987 -0.152273
v -0.150765 0.190322 -0.262208
v -0.150765 0.249594 -0.206548
v 0.088979 0.190322 -0.262208
v 0.088979 0.249594 -0.206548
v 0.109323 0.174792 -0.240833
v 0.121218 0.148408 -0.203256
v 0.109323 0.229236 -0.189706
v 0.121218 0.194121 -0.160329
v 0.109323 0.269255 -0.126646
v 0.121218 0.227722 -0.107381
v 0.109323 0.292335 -0.055615
v 0.088979 0.293162 -0.137896
v 0.088979 0.318288 -0.060566
v -0.150765 0.293162 -0.137896
v -0.150765 0.318288 -0.060566
v -0.168754 0.216118 -0.101642
v -0.168754 0.234649 -0.044611
v -0.168754 0.238414 0.015237
v -0.168754 0.227177 0.074141
v -0.150765 0.323394 0.020584
v -0.150765 0.308158 0.100453
v 0.088979 0.323394 0.020584
v 0.088979 0.308158 0.100453
v 0.109323 0.297024 0.018925
v 0.109323 0.283030 0.092288
v 0.121218 0.251038 0.014845
v 0.121218 0.239288 0.076444
v 0.121218 0.247101 -0.047741
vt 0.000000 0.000000
vt 0.000000 0.000000
vt 0.000000 0.000000
vt 0.000000 0.000000
vt 0.000000 0.000000
vt 0.000000 0.000000
vt 0.000000 0.000000
vt 0.000000 0.000000
vt 0.000000 0.000000
vt 0.000000 0.000000
vt 0.000000 0.000000
vt 0.000000 0.000000
vt 0.000000 0.000000
vt 0.000000 0.000000
vt 0.000000 0.000000
vt 0.000000 0.000000
vt 0.000000 0.000000
vt 0.000000 0.000000
vt 0.000000 0.000000
vt 0.000000 0.000000
vt 0.000000 0.000000
vt 0.000000 0.000000
vt 0.000000 0.000000
vt 0.000000 0.000000
vt 0.000000 0.000000
vt 0.000000 0.000000
vt 0.000000 0.000000
vt 0.000000 0.000000
vt 0.000000 0.000000
vt 0.000000 0.000000
vt 0.000000 0.000000
vt 0.000000 0.000000
vt 0.000000 0.000000
vt 0.000000 0.000000
vt 0.000000 0.000000
vt 0.000000 0.000000
vt 0.000000 0.000000
vt 0.000000 0.000000
vt 0.000000 0.000000
vt 0.000000 0.000000
vt 0.000000 0.000000
vt 0.000000 0.000000
vt 0.000000 0.000000
vt 0.000000 0.000000
vt 0.000000 0.000000
vt 0.000000 0.000000
vt 0.000000 0.000000
vt 0.000000 0.000000
vt 0.000000 0.000000
vt 0.000000 0.000000
vt 0.000000 0.000000
vt 0.000000 0.000000
vt 0.000000 0.000000
vt 0.000000 0.000000
vt 0.000000 0.000000
vt 0.000000 0.000000
vt 0.000000 0.000000
vt 0.000000 0.000000
vt 0.000000 0.000000
vt 0.000000 0.000000
vt 0.000000 0.000000
vt 0.000000 0.000000
vt 0.000000 0.000000
vt 0.000000 0.000000
vt 0.000000 0.000000
vt 0.000000 0.000000
vt 0.000000 0.000000
vt 0.000000 0.000000
vt 0.000000 0.000000
vt 0.000000 0.000000
vt 0.000000 0.000000
vt 0.000000 0.000000
vt 0.000000 0.000000
vt 0.000000 0.000000
vt 0.000000 0.000000
vt 0.000000 0.000000
vt 0.000000 0.000000
vt 0.000000 0.000000
vt 0.000000 0.000000
vt 0.000000 0.000000
vt 0.000000 0.000000
vt 0.000000 0.000000
vt 0.000000 0.000000
vt 0.000000 0.000000
vt 0.000000 0.000000
vt 0.000000 0.000000
vt 0.000000 0.000000
vt 0.000000 0.000000
vt 0.000000 0.000000
vt 0.000000 0.000000
vt 0.000000 0.000000
vt 0.000000 0.000000
vt 0.000000 0.000000
vt 0.000000 0.000000
vt 0.000000 0.000000
vt 0.000000 0.000000
vt 0.000000 0.000000
vt 0.000000 0.000000
vt 0.000000 0.000000
vt 0.000000 0.000000
vt 0.000000 0.000000
vt 0.000000 0.000000
vt 0.000000 0.000000
vt 0.000000 0.000000
vt 0.000000 0.000000
vt 0.000000 0.000000
vt 0.000000 0.000000
vt 0.000000 0.000000
vt 0.000000 0.000000
vt 0.000000 0.000000
vt 0.000000 0.000000
vt 0.000000 0.000000
vt 0.000000 0.000000
vt 0.000000 0.000000
vt 0.000000 0.000000
vt 0.000000 0.000000
vt 0.000000 0.000000
vt 0.000000 0.000000
vt 0.000000 0.000000
vt 0.000000 0.000000
vt 0.000000 0.000000
vt 0.000000 0.000000
vt 0.000000 0.000000
vt 0.000000 0.000000
vt 0.000000 0.000000
vn 0.9699 0.1672 0.1768
vn 0.9693 0.2079 0.1310
vn 0.8931 0.3797 0.2413
vn 0.8936 0.3070 0.3274
vn 0.9705 0.1169 0.2107
vn 0.8941 0.2154 0.3926
vn 0.4281 0.7630 0.4842
vn 0.4281 0.6186 0.6588
vn 0.4281 0.4353 0.7919
vn -0.6063 0.6714 0.4261
vn -0.6063 0.5444 0.5797
vn -0.6063 0.3831 0.6969
vn -0.9784 0.1745 0.1108
vn -0.9784 0.1415 0.1507
vn -0.9784 0.0996 0.1811
vn -0.9784 0.0514 0.2002
vn -0.6063 0.1978 0.7703
vn -0.9784 0.0000 0.2067
vn -0.6063 0.0000 0.7953
vn 0.4281 0.2247 0.8753
vn 0.4281 0.0000 0.9037
vn 0.8946 0.1108 0.4329
vn 0.8950 -0.0002 0.4460
vn 0.9716 0.0007 0.2365
vn 0.9711 0.0602 0.2309
vn 0.9720 -0.0578 0.2275
vn 0.8954 -0.1109 0.4312
vn 0.9724 -0.1121 0.2047
vn 0.8957 -0.2143 0.3896
vn 0.4281 -0.2247 0.8753
vn 0.4281 -0.4353 0.7919
vn -0.6063 -0.1978 0.7703
vn -0.6063 -0.3831 0.6969
vn -0.9784 -0.0514 0.2002
vn -0.9784 -0.0996 0.1811
vn -0.9784 -0.1415 0.1507
vn -0.6063 -0.5444 0.5797
vn -0.9784 -0.1745 0.1108
vn -0.6063 -0.6714 0.4261
vn 0.4281 -0.6186 0.6588
vn 0.4281 -0.7630 0.4842
vn 0.8959 -0.3042 0.3238
vn 0.8959 -0.3750 0.2380
vn 0.9726 -0.1961 0.1245
vn 0.9726 -0.1591 0.1697
vn 0.9726 -0.2213 0.0717
vn 0.8959 -0.4225 0.1374
vn 0.9724 -0.2330 0.0143
vn 0.8957 -0.4437 0.0280
vn 0.4281 -0.8595 0.2792
vn 0.4281 -0.9019 0.0567
vn -0.6063 -0.7563 0.2457
vn -0.6063 -0.7937 0.0499
vn -0.9784 -0.1966 0.0638
vn -0.9784 -0.2063 0.0130
vn -0.9784 -0.2030 -0.0387
vn -0.6063 -0.7812 -0.1490
vn -0.9784 -0.1870 -0.0880
vn -0.6063 -0.7196 -0.3386
vn 0.4281 -0.8877 -0.1693
vn 0.4281 -0.8177 -0.3848
vn 0.8954 -0.4374 -0.0832
vn 0.8950 -0.4036 -0.1896
vn 0.9720 -0.2305 -0.0446
vn 0.9716 -0.2137 -0.1014
vn 0.9711 -0.1834 -0.1527
vn 0.8946 -0.3445 -0.2846
vn 0.9705 -0.1409 -0.1955
vn 0.8941 -0.2635 -0.3621
vn 0.4281 -0.6963 -0.5760
vn 0.4281 -0.5312 -0.7311
vn -0.6063 -0.6128 -0.5069
vn -0.6063 -0.4674 -0.6434
vn -0.9784 -0.1592 -0.1317
vn -0.9784 -0.1215 -0.1672
vn -0.9784 -0.0761 -0.1922
vn -0.6063 -0.2927 -0.7394
vn -0.9784 -0.0259 -0.2051
vn -0.6063 -0.0996 -0.7890
vn 0.4281 -0.3327 -0.8402
vn 0.4281 -0.1133 -0.8966
vn 0.8936 -0.1655 -0.4172
vn 0.8931 -0.0567 -0.4463
vn 0.9693 -0.0300 -0.2439
vn 0.9699 -0.0888 -0.2266
vn 0.9688 0.0318 -0.2458
vn 0.8926 0.0562 -0.4472
vn 0.9684 0.0924 -0.2318
vn 0.8922 0.1660 -0.4199
vn 0.4281 0.1133 -0.8966
vn 0.4281 0.3327 -0.8402
vn -0.6063 0.0996 -0.7890
vn -0.6063 0.2927 -0.7394
vn -0.9784 0.0259 -0.2051
vn -0.9784 0.0761 -0.1922
vn -0.9784 0.1215 -0.1672
vn -0.6063 0.4674 -0.6434
vn -0.9784 0.1592 -0.1317
vn -0.6063 0.6128 -0.5069
vn 0.4281 0.5312 -0.7311
vn 0.4281 0.6963 -0.5760
vn 0.8920 0.2656 -0.3658
vn 0.8918 0.3485 -0.2883
vn 0.9680 0.1477 -0.2027
vn 0.9679 0.1938 -0.1602
vn 0.9679 0.2275 -0.1072
vn 0.8918 0.4093 -0.1925
vn 0.4281 0.8177 -0.3848
vn 0.9680 0.2463 -0.0473
vn 0.8920 0.4440 -0.0846
vn 0.4281 0.8877 -0.1693
vn -0.6063 0.7196 -0.3386
vn -0.6063 0.7812 -0.1490
vn -0.9784 0.1870 -0.0880
vn -0.9784 0.2030 -0.0387
vn -0.9784 0.2063 0.0130
vn -0.6063 0.7937 0.0499
vn -0.9784 0.1966 0.0638
vn -0.6063 0.7563 0.2457
vn 0.4281 0.9019 0.0567
vn 0.4281 0.8595 0.2792
vn 0.8922 0.4506 0.0285
vn 0.8926 0.4286 0.1395
vn 0.9688 0.2359 0.0759
vn 0.9684 0.2491 0.0151
usemtl None
s 1
f 1/1/1 2/2/2 5/3/3 4/4/4
f 3/5/5 1/1/1 4/4/4 6/6/6
f 5/3/3 8/7/7 7/8/8 4/4/4
f 4/4/4 7/8/8 9/9/9 6/6/6
f 8/7/7 11/10/10 10/11/11 7/8/8
f 7/8/8 10/11/11 12/12/12 9/9/9
f 11/10/10 14/13/13 13/14/14 10/11/11
f 10/11/11 13/14/14 15/15/15 12/12/12
f 12/12/12 15/15/15 16/16/16 18/17/17
f 18/17/17 16/16/16 17/18/18 19/19/19
f 20/20/20 18/17/17 19/19/19 21/21/21
f 9/9/9 12/12/12 18/17/17 20/20/20
f 22/22/22 20/20/20 21/21/21 23/23/23
f 6/6/6 9/9/9 20/20/20 22/22/22
f 25/24/24 24/25/25 22/22/22 23/23/23
f 24/25/25 3/5/5 6/6/6 22/22/22
f 26/26/26 25/24/24 23/23/23 28/27/27
f 27/28/28 26/26/26 28/27/27 29/29/29
f 28/27/27 30/30/30 31/31/31 29/29/29
f 23/23/23 21/21/21 30/30/30 28/27/27
f 30/30/30 32/32/32 33/33/33 31/31/31
f 21/21/21 19/19/19 32/32/32 30/30/30
f 32/32/32 34/34/34 35/35/35 33/33/33
f 19/19/19 17/18/18 34/34/34 32/32/32
f 33/33/33 35/35/35 36/36/36 38/37/37
f 38/37/37 36/36/36 37/38/38 39/39/39
f 40/40/40 38/37/37 39/39/39 41/41/41
f 31/31/31 33/33/33 38/37/37 40/40/40
f 42/42/42 40/40/40 41/41/41 43/43/43
f 29/29/29 31/31/31 40/40/40 42/42/42
f 45/44/44 44/45/45 42/42/42 43/43/43
f 44/45/45 27/28/28 29/29/29 42/42/42
f 46/46/46 45/44/44 43/43/43 48/47/47
f 47/48/48 46/46/46 48/47/47 49/49/49
f 48/47/47 50/50/50 51/51/51 49/49/49
f 43/43/43 41/41/41 50/50/50 48/47/47
f 50/50/50 52/52/52 53/53/53 51/51/51
f 41/41/41 39/39/39 52/52/52 50/50/50
f 52/52/52 54/54/54 55/55/55 53/53/53
f 39/39/39 37/38/38 54/54/54 52/52/52
f 53/53/53 55/55/55 56/56/56 58/57/57
f 58/57/57 56/56/56 57/58/58 59/59/59
f 51/51/51 53/53/53 58/57/57 60/60/60
f 60/60/60 58/57/57 59/59/59 61/61/61
f 49/49/49 51/51/51 60/60/60 62/62/62
f 62/62/62 60/60/60 61/61/61 63/63/63
f 64/64/64 47/48/48 49/49/49 62/62/62
f 65/65/65 64/64/64 62/62/62 63/63/63
f 66/66/66 65/65/65 63/63/63 68/67/67
f 67/68/68 66/66/66 68/67/67 69/69/69
f 68/67/67 70/70/70 71/71/71 69/69/69
f 63/63/63 61/61/61 70/70/70 68/67/67
f 70/70/70 72/72/72 73/73/73 71/71/71
f 61/61/61 59/59/59 72/72/72 70/70/70
f 72/72/72 74/74/74 75/75/75 73/73/73
f 59/59/59 57/58/58 74/74/74 72/72/72
f 73/73/73 75/75/75 76/76/76 78/77/77
f 78/77/77 76/76/76 77/78/78 79/79/79
f 80/80/80 78/77/77 79/79/79 81/81/81
f 71/71/71 73/73/73 78/77/77 80/80/80
f 82/82/82 80/80/80 81/81/81 83/83/83
f 69/69/69 71/71/71 80/80/80 82/82/82
f 85/84/84 84/85/85 82/82/82 83/83/83
f 84/85/85 67/68/68 69/69/69 82/82/82
f 86/86/86 85/84/84 83/83/83 88/87/87
f 87/88/88 86/86/86 88/87/87 89/89/89
f 88/87/87 90/90/90 91/91/91 89/89/89
f 83/83/83 81/81/81 90/90/90 88/87/87
f 90/90/90 92/92/92 93/93/93 91/91/91
f 81/81/81 79/79/79 92/92/92 90/90/90
f 92/92/92 94/94/94 95/95/95 93/93/93
f 79/79/79 77/78/78 94/94/94 92/92/92
f 93/93/93 95/95/95 96/96/96 98/97/97
f 98/97/97 96/96/96 97/98/98 99/99/99
f 91/91/91 93/93/93 98/97/97 100/100/100
f 100/100/100 98/97/97 99/99/99 101/101/101
f 89/89/89 91/91/91 100/100/100 102/102/102
f 102/102/102 100/100/100 101/101/101 104/103/103
f 103/104/104 87/88/88 89/89/89 102/102/102
f 105/105/105 103/104/104 102/102/102 104/103/103
f 107/106/106 105/105/105 104/103/103 106/107/107
f 104/103/103 101/101/101 109/108/108 106/107/107
f 125/109/109 107/106/106 106/107/107 108/110/110
f 106/107/107 109/108/108 110/111/111 108/110/110
f 109/108/108 111/112/112 112/113/113 110/111/111
f 101/101/101 99/99/99 111/112/112 109/108/108
f 111/112/112 113/114/114 114/115/115 112/113/113
f 99/99/99 97/98/98 113/114/114 111/112/112
f 112/113/113 114/115/115 115/116/116 117/117/117
f 117/117/117 115/116/116 116/118/118 118/119/119
f 119/120/120 117/117/117 118/119/119 120/121/121
f 110/111/111 112/113/113 117/117/117 119/120/120
f 121/122/122 119/120/120 120/121/121 122/123/123
f 108/110/110 110/111/111 119/120/120 121/122/122
f 124/124/124 123/125/125 121/122/122 122/123/123
f 123/125/125 125/109/109 108/110/110 121/122/122
f 2/2/2 124/124/124 122/123/123 5/3/3
f 122/123/123 120/121/121 8/7/7 5/3/3
f 120/121/121 118/119/119 11/10/10 8/7/7
f 118/119/119 116/118/118 14/13/13 11/10/10
